<svg enable-background="new 0 0 32 32" height="32" viewBox="0 0 32 32" width="32" xmlns="http://www.w3.org/2000/svg"><g fill="#ffa28d"><path d="m15 15.5c0-.276.224-.5.5-.5h8c.276 0 .5.224.5.5 0 .276-.224.5-.5.5h-8c-.276 0-.5-.224-.5-.5z"/><path d="m22.89 17c-.51 4.8-2.939 8.08-7.01 8.83-3.94-.84-6.29-4.1-6.78-8.83z"/><path d="m19.934 3.22c-.16-.22-.469-.29-.699-.14-.23.16-.289.47-.141.7 1.17 1.75 1.121 3.21.301 4.17-.25.3-.471.49-.811.7-.459.27-.939.56-1.25 1.09-.51.88-.43 1.95.23 3.02.09.16.25.24.42.24l.26-.07c.24-.15.311-.46.17-.69-.33-.53-.631-1.3-.219-2 .189-.31.52-.51.898-.73.381-.23.701-.49 1.061-.91 1.36-1.59.94-3.64-.22-5.38z"/><path d="m14.904 2.21c-.15-.22-.47-.28-.69-.12-.23.16-.28.47-.12.7.5.72 1.01 1.84.89 2.8-.13 1.09-.96 1.33-2.38 1.64-.43.1-.86.19-1.27.33-1.21.42-1.93 1.08-2.19 2.02-.31 1.07-.11 2.36.49 3.21.1.14.25.21.41.21.1 0 .2-.03.29-.09.23-.16.28-.47.12-.7-.42-.59-.57-1.58-.35-2.36.17-.61.67-1.04 1.56-1.35.35-.12.74-.2 1.15-.29 1.33-.29 2.93-.65 3.17-2.5.181-1.57-.779-3.08-1.08-3.5z"/></g><path d="m18.93 3.22c-.16-.22-.47-.29-.7-.14-.23.16-.29.47-.14.7 1.17 1.75 1.12 3.21.3 4.17-.25.3-.47.49-.81.7-.46.27-.94.56-1.25 1.09-.51.88-.43 1.95.23 3.02.09.16.25.24.42.24l.26-.07c.24-.15.31-.46.17-.69-.33-.53-.63-1.3-.22-2 .189-.31.52-.51.899-.73.38-.23.7-.49 1.061-.91 1.36-1.59.94-3.64-.22-5.38z" fill="#2d2220"/><path d="m13.9 2.21c-.15-.22-.47-.28-.69-.12-.23.16-.28.47-.12.7.5.72 1.01 1.84.89 2.8-.13 1.09-.96 1.33-2.38 1.64-.43.1-.86.19-1.27.33-1.21.42-1.93 1.08-2.19 2.02-.31 1.07-.11 2.36.49 3.21.1.14.25.21.41.21.1 0 .2-.03.29-.09.23-.16.28-.47.12-.7-.42-.59-.57-1.58-.35-2.36.17-.61.67-1.04 1.56-1.35.35-.12.74-.2 1.15-.29 1.33-.29 2.93-.65 3.17-2.5.18-1.57-.78-3.08-1.08-3.5z" fill="#2d2220"/><path d="m23.97 16.01c.01-.33.03-.66.03-1.01 0-.55-.45-1-1-1h-18c-.55 0-1 .45-1 1 0 5.59 2.08 9.33 5.47 11h-.47c-.28 0-.5.22-.5.5s.22.5.5.5h10c.28 0 .5-.22.5-.5s-.22-.5-.5-.5h-.47c.56-.28 1.09-.61 1.58-1 6.83-.04 7.949-3.72 7.949-5.5.001-2.42-1.569-3.43-4.089-3.49zm-9.97 9.99c-5.8 0-9-4.37-9-11h18c0 1.45-.15 2.79-.46 4h-6.04c-.28 0-.5.22-.5.5s.22.5.5.5h5.75c-.24.73-.55 1.4-.91 2h-3.84c-.28 0-.5.22-.5.5s.22.5.5.5h3.16c-1.52 1.91-3.77 3-6.66 3zm7.21-2.05c1.46-1.67 2.39-4 2.68-6.95 2.721.05 3.051 1.23 3.051 2.5-.001.78-.251 3.98-5.731 4.45z" fill="#2d2220"/><path d="m5 16h18v1h-18z" fill="#2d2220"/></svg>