<?xml version="1.0" encoding="UTF-8"?><svg id="Capa_1" xmlns="http://www.w3.org/2000/svg" viewBox="0 0 638.37 404.99"><defs><style>.cls-1{fill:#fff;}</style></defs><path class="cls-1" d="m272.41,76.4c6.24,0,11.05,1.84,14.44,5.5,3.39,3.67,5.09,8.51,5.09,14.53s-1.71,10.81-5.13,14.53c-3.42,3.72-8.22,5.58-14.4,5.58h-14.69v21.58h-6.98v-61.72h21.67Zm.33,33.49c3.88,0,6.94-1.23,9.15-3.69,2.22-2.46,3.33-5.72,3.33-9.77s-1.09-7.29-3.28-9.72c-2.19-2.43-5.25-3.65-9.19-3.65h-15.02v26.84h15.02Z"/><path class="cls-1" d="m335.27,96.42c-2.3,6.4-6.1,16.72-11.41,30.94-5.31,14.23-9.11,24.54-11.41,30.94h-7.06l8.21-22.65-15.84-39.23h8.13c1.15,3.07,4.54,12.09,10.18,27.09.16.38.45.56.86.53.41-.03.7-.23.86-.62l9.68-27h7.8Z"/><path class="cls-1" d="m369.14,132.37c4.71,0,8.75-1.16,12.15-3.49,3.39-2.33,5.99-5.51,7.8-9.56h7.72c-2.19,5.96-5.69,10.76-10.51,14.4-4.81,3.64-10.56,5.46-17.24,5.46-8.7,0-15.74-2.99-21.13-8.99-5.39-5.99-8.09-13.63-8.09-22.94s2.71-17.04,8.13-23.06c5.42-6.02,12.45-9.03,21.09-9.03,6.57,0,12.27,1.79,17.11,5.38,4.84,3.58,8.38,8.41,10.63,14.48h-7.72c-1.86-3.99-4.5-7.15-7.92-9.48-3.42-2.33-7.48-3.49-12.19-3.49-6.73,0-12.08,2.34-16.05,7.02-3.97,4.68-5.95,10.74-5.95,18.18s2,13.42,5.99,18.1c3.99,4.68,9.38,7.02,16.17,7.02Z"/><path class="cls-1" d="m407.78,100.57c4.16-4.24,9.38-6.36,15.67-6.36s11.52,2.12,15.68,6.36c4.16,4.24,6.24,9.59,6.24,16.04s-2.08,11.82-6.24,16.09c-4.16,4.27-9.38,6.4-15.68,6.4s-11.52-2.12-15.67-6.36c-4.16-4.24-6.24-9.62-6.24-16.13s2.08-11.8,6.24-16.04Zm15.67,32.21c4.49,0,8.11-1.49,10.87-4.47,2.76-2.98,4.15-6.88,4.15-11.7s-1.38-8.55-4.15-11.53c-2.76-2.98-6.39-4.47-10.87-4.47s-8.04,1.49-10.83,4.47c-2.79,2.99-4.18,6.85-4.18,11.61s1.39,8.63,4.18,11.61c2.79,2.98,6.4,4.47,10.83,4.47Z"/><path class="cls-1" d="m473.66,94.29c5.36,0,9.53,1.68,12.52,5.05,2.98,3.37,4.47,8.22,4.47,14.57v24.21h-6.98v-23.14c0-1.64-.18-3.22-.53-4.72-.36-1.5-.95-3.02-1.77-4.56-.82-1.53-2.08-2.76-3.77-3.69-1.7-.93-3.72-1.39-6.07-1.39s-4.53.51-6.36,1.52c-1.84,1.01-3.19,2.27-4.06,3.77-.88,1.51-1.51,2.93-1.89,4.27-.38,1.34-.58,2.56-.58,3.65v24.29h-6.98v-42.76h6.98v7.88c1.09-2.46,2.86-4.57,5.3-6.32,2.43-1.75,5.67-2.62,9.72-2.62Z"/><path class="cls-1" d="m508.1,83.25v20.19h26.51v6.65h-26.51v21.58h30.7v6.65h-37.42v-61.8h37.42v6.73h-30.7Z"/><path class="cls-1" d="m285.5,290.01c0,2.74-.59,5.37-1.76,7.88-1.18,2.52-2.75,4.86-4.72,7.02-1.97,2.16-4.01,4.24-6.11,6.24-2.11,2-4.3,4.27-6.57,6.81-2.27,2.54-4.09,5.02-5.46,7.43h23.56v6.48h-34.14c.93-4.16,3.64-9,8.13-14.53,2.13-2.62,5.01-5.83,8.62-9.6,3.61-3.77,5.86-6.21,6.73-7.3,3.12-3.94,4.65-7.52,4.6-10.75,0-2.68-.92-4.91-2.75-6.69-1.83-1.78-4.28-2.67-7.34-2.67s-5.71.99-7.59,2.96c-1.89,1.97-2.94,4.73-3.16,8.29h-6.65c0-4.76,1.52-8.93,4.56-12.52,3.04-3.58,7.34-5.38,12.93-5.38,5.14,0,9.29,1.57,12.43,4.72,3.15,3.15,4.72,7.02,4.72,11.61Z"/><path class="cls-1" d="m317.68,273.51c7.06,0,12.76,2.78,17.11,8.33,4.35,5.56,6.52,12.63,6.52,21.22s-2.18,15.75-6.52,21.3c-4.35,5.55-10.06,8.33-17.11,8.33s-12.68-2.78-17.03-8.33c-4.35-5.55-6.52-12.65-6.52-21.3s2.18-15.66,6.52-21.22c4.35-5.55,10.03-8.33,17.03-8.33Zm-12.39,46.25c3.01,4.3,7.14,6.44,12.39,6.44s9.41-2.15,12.47-6.44c3.07-4.3,4.6-9.86,4.6-16.7s-1.53-12.39-4.6-16.66c-3.06-4.27-7.22-6.4-12.47-6.4s-9.38,2.14-12.39,6.4c-3.01,4.27-4.52,9.82-4.52,16.66s1.5,12.41,4.52,16.7Z"/><path class="cls-1" d="m381.72,290.01c0,2.74-.59,5.37-1.76,7.88-1.18,2.52-2.75,4.86-4.72,7.02-1.97,2.16-4.01,4.24-6.11,6.24-2.11,2-4.3,4.27-6.57,6.81-2.27,2.54-4.09,5.02-5.46,7.43h23.56v6.48h-34.14c.93-4.16,3.64-9,8.13-14.53,2.13-2.62,5.01-5.83,8.62-9.6,3.61-3.77,5.86-6.21,6.73-7.3,3.12-3.94,4.65-7.52,4.6-10.75,0-2.68-.92-4.91-2.75-6.69-1.83-1.78-4.28-2.67-7.34-2.67s-5.71.99-7.59,2.96c-1.89,1.97-2.94,4.73-3.16,8.29h-6.65c0-4.76,1.52-8.93,4.56-12.52,3.04-3.58,7.34-5.38,12.93-5.38,5.14,0,9.29,1.57,12.43,4.72,3.15,3.15,4.72,7.02,4.72,11.61Z"/><path class="cls-1" d="m412.16,296.99c5.03.55,9.16,2.31,12.39,5.29,3.23,2.98,4.84,6.8,4.84,11.45,0,2.19-.36,4.35-1.07,6.48-.71,2.13-1.79,4.16-3.24,6.07-1.45,1.92-3.49,3.46-6.11,4.64-2.62,1.18-5.66,1.76-9.11,1.76-3.17,0-6-.49-8.49-1.48-2.49-.99-4.5-2.28-6.03-3.9-1.53-1.61-2.74-3.24-3.61-4.88-.88-1.64-1.53-3.37-1.97-5.17l6.73-1.64c.6,2.79,1.97,5.25,4.1,7.39,2.13,2.14,5.17,3.2,9.11,3.2s7.32-1.19,9.64-3.57c2.33-2.38,3.49-5.24,3.49-8.58s-1.16-5.83-3.49-7.8c-2.33-1.97-5.35-3.04-9.07-3.2-.99-.05-2.04,0-3.16.16s-2.05.31-2.79.45c-.74.14-1.16.21-1.27.21l-1.56-5.17c.77-.77,1.79-1.75,3.08-2.95,1.29-1.2,3.3-3.11,6.03-5.71,2.73-2.6,4.98-4.76,6.73-6.48,1.75-1.72,2.57-2.61,2.46-2.67h-26.67v-6.4h35.29v6.32l-16.25,16.17Z"/><path class="cls-1" d="m275.29,229.22c4.71,0,8.75-1.16,12.15-3.49,3.39-2.33,5.99-5.51,7.8-9.56h7.71c-2.19,5.96-5.69,10.76-10.51,14.4-4.81,3.64-10.56,5.46-17.23,5.46-8.7,0-15.75-2.99-21.14-8.99-5.39-5.99-8.08-13.63-8.08-22.94s2.71-17.04,8.13-23.06c5.41-6.02,12.44-9.03,21.09-9.03,6.57,0,12.27,1.79,17.11,5.38,4.84,3.58,8.38,8.41,10.63,14.48h-7.71c-1.86-3.99-4.5-7.15-7.92-9.48-3.42-2.33-7.48-3.49-12.19-3.49-6.73,0-12.08,2.34-16.04,7.02-3.97,4.68-5.95,10.74-5.95,18.18s2,13.42,5.99,18.1c3.99,4.68,9.38,7.02,16.17,7.02Z"/><path class="cls-1" d="m343.74,222.9c0,4.27,1.64,6.4,4.92,6.4v5.66c-.05-.05-.33-.05-.82,0s-1.18-.01-2.05-.2c-.88-.19-1.75-.44-2.63-.74-.88-.3-1.74-.86-2.58-1.68-.85-.82-1.49-1.78-1.93-2.87-1.26,1.86-3.38,3.42-6.36,4.68-2.98,1.26-5.87,1.89-8.66,1.89-5.36,0-9.45-1.19-12.27-3.57-2.82-2.38-4.23-5.48-4.23-9.32,0-3.34,1.29-6.17,3.86-8.49,2.57-2.33,7-3.98,13.29-4.96,1.09-.22,2.68-.39,4.76-.53,2.08-.14,3.86-.23,5.34-.29h2.3v-2.71c-.05-2.3-.81-4.32-2.26-6.07-1.45-1.75-3.98-2.62-7.59-2.62-5.47,0-8.92,2.22-10.34,6.65l-6.89-1.81c2.73-7.44,8.48-11.16,17.23-11.16,5.8,0,10.07,1.5,12.81,4.51,2.73,3.01,4.1,6.68,4.1,11v16.25Zm-6.98-8.53l-10.1.65c-2.62.22-4.81.66-6.57,1.31-3.77,1.26-5.66,3.42-5.66,6.48,0,2.63,1.14,4.5,3.41,5.62,2.27,1.12,4.75,1.54,7.43,1.27,3.23-.22,5.96-1.31,8.21-3.28,2.19-1.97,3.28-3.53,3.28-4.68v-7.39Z"/><path class="cls-1" d="m378.05,191.14c5.36,0,9.53,1.68,12.52,5.05,2.98,3.37,4.47,8.22,4.47,14.57v24.21h-6.98v-23.14c0-1.64-.18-3.22-.53-4.72-.36-1.5-.95-3.02-1.77-4.56-.82-1.53-2.08-2.76-3.77-3.69-1.7-.93-3.72-1.39-6.07-1.39s-4.53.51-6.36,1.52c-1.84,1.01-3.19,2.27-4.06,3.77-.88,1.51-1.51,2.93-1.89,4.27-.38,1.34-.58,2.56-.58,3.65v24.29h-6.98v-42.76h6.98v7.88c1.09-2.46,2.86-4.57,5.3-6.32,2.43-1.75,5.67-2.62,9.72-2.62Z"/><path class="cls-1" d="m438.67,222.9c0,4.27,1.64,6.4,4.92,6.4v5.66c-.05-.05-.33-.05-.82,0-.49.05-1.18-.01-2.05-.2-.88-.19-1.75-.44-2.62-.74-.88-.3-1.74-.86-2.58-1.68-.85-.82-1.49-1.78-1.93-2.87-1.26,1.86-3.38,3.42-6.36,4.68-2.98,1.26-5.87,1.89-8.66,1.89-5.36,0-9.45-1.19-12.27-3.57-2.82-2.38-4.22-5.48-4.22-9.32,0-3.34,1.29-6.17,3.86-8.49,2.57-2.33,7-3.98,13.3-4.96,1.09-.22,2.68-.39,4.76-.53,2.08-.14,3.86-.23,5.33-.29h2.3v-2.71c-.05-2.3-.81-4.32-2.26-6.07-1.45-1.75-3.98-2.62-7.59-2.62-5.47,0-8.92,2.22-10.34,6.65l-6.9-1.81c2.73-7.44,8.48-11.16,17.24-11.16,5.8,0,10.06,1.5,12.8,4.51,2.73,3.01,4.1,6.68,4.1,11v16.25Zm-6.98-8.53l-10.09.65c-2.63.22-4.82.66-6.57,1.31-3.77,1.26-5.66,3.42-5.66,6.48,0,2.63,1.13,4.5,3.41,5.62,2.27,1.12,4.75,1.54,7.43,1.27,3.23-.22,5.96-1.31,8.21-3.28,2.19-1.97,3.28-3.53,3.28-4.68v-7.39Z"/><path class="cls-1" d="m472.98,191.05c.65,0,1.58.05,2.79.16v7.14c-1.7-.38-3.26-.57-4.68-.57-2.57,0-4.73.52-6.48,1.56-1.75,1.04-3.01,2.39-3.77,4.06s-1.3,3.16-1.6,4.47c-.3,1.31-.45,2.6-.45,3.86v23.23h-6.98v-42.84h6.89v7.88c.82-2.52,2.46-4.64,4.92-6.36,2.46-1.72,5.58-2.58,9.36-2.58Z"/><path class="cls-1" d="m489.3,174.39c.9.93,1.35,2.05,1.35,3.37s-.45,2.43-1.35,3.37c-.9.93-2.04,1.39-3.41,1.39s-2.43-.46-3.37-1.39c-.93-.93-1.39-2.05-1.39-3.37s.46-2.43,1.39-3.37c.93-.93,2.05-1.39,3.37-1.39s2.5.46,3.41,1.39Zm.04,60.57h-6.89v-42.84h6.89v42.84Z"/><path class="cls-1" d="m534.23,222.9c0,4.27,1.64,6.4,4.92,6.4v5.66c-.05-.05-.33-.05-.82,0-.49.05-1.18-.01-2.05-.2-.88-.19-1.75-.44-2.62-.74-.88-.3-1.74-.86-2.58-1.68-.85-.82-1.49-1.78-1.93-2.87-1.26,1.86-3.38,3.42-6.36,4.68-2.98,1.26-5.87,1.89-8.66,1.89-5.36,0-9.45-1.19-12.27-3.57-2.82-2.38-4.22-5.48-4.22-9.32,0-3.34,1.29-6.17,3.86-8.49,2.57-2.33,7-3.98,13.3-4.96,1.09-.22,2.68-.39,4.76-.53,2.08-.14,3.86-.23,5.33-.29h2.3v-2.71c-.05-2.3-.81-4.32-2.26-6.07-1.45-1.75-3.98-2.62-7.59-2.62-5.47,0-8.92,2.22-10.34,6.65l-6.9-1.81c2.73-7.44,8.48-11.16,17.24-11.16,5.8,0,10.06,1.5,12.8,4.51,2.73,3.01,4.1,6.68,4.1,11v16.25Zm-6.98-8.53l-10.09.65c-2.63.22-4.82.66-6.57,1.31-3.77,1.26-5.66,3.42-5.66,6.48,0,2.63,1.13,4.5,3.41,5.62,2.27,1.12,4.75,1.54,7.43,1.27,3.23-.22,5.96-1.31,8.21-3.28,2.19-1.97,3.28-3.53,3.28-4.68v-7.39Z"/><path class="cls-1" d="m570.18,204.52c-1.04-4.98-4.38-7.47-10.01-7.47-3.34,0-5.69.74-7.06,2.22-1.37,1.48-2.05,2.98-2.05,4.51,0,1.7.83,3,2.5,3.9,1.67.9,4.26,1.74,7.76,2.5,2.02.44,3.56.79,4.6,1.07,1.04.27,2.41.75,4.1,1.44,1.7.68,2.97,1.42,3.82,2.22.85.79,1.61,1.89,2.3,3.28.69,1.39,1.03,3,1.03,4.8,0,4.05-1.46,7.22-4.39,9.52-2.93,2.3-6.83,3.45-11.69,3.45-5.31,0-9.45-1.33-12.44-3.98-2.98-2.65-4.67-5.84-5.05-9.56h6.89c.33,1.92,1.31,3.65,2.96,5.21,1.64,1.56,4.13,2.34,7.47,2.34,2.73,0,5.01-.58,6.81-1.76,1.8-1.18,2.71-2.91,2.71-5.21,0-1.97-.77-3.41-2.3-4.31-1.53-.9-4.16-1.82-7.88-2.75-5.91-1.42-10.1-2.91-12.56-4.47-2.46-1.56-3.69-4.09-3.69-7.59,0-1.42.24-2.83.74-4.23s1.31-2.76,2.46-4.1c1.15-1.34,2.8-2.43,4.96-3.28,2.16-.85,4.72-1.27,7.67-1.27,5.42,0,9.53,1.33,12.35,3.98,2.82,2.65,4.42,5.84,4.8,9.56h-6.81Z"/><polygon class="cls-1" points="61.72 236.83 121.05 202.15 61.72 167.88 61.72 138.54 167.4 202.15 61.72 265.77 61.72 236.83"/><polygon class="cls-1" points="100.15 106.01 164.03 144.97 164.08 74.16 189.05 61.72 189.05 190.93 75.17 118.45 100.15 106.01"/><polygon class="cls-1" points="100.15 298.98 164.03 258.32 164.08 330.83 189.05 343.27 189.05 214.07 75.17 286.54 100.15 298.98"/><polygon class="cls-1" points="61.72 236.83 121.05 202.15 61.72 167.88 61.72 138.54 167.4 202.15 61.72 265.77 61.72 236.83"/><polygon class="cls-1" points="100.15 106.01 164.03 144.97 164.08 74.16 189.05 61.72 189.05 190.93 75.17 118.45 100.15 106.01"/><polygon class="cls-1" points="100.15 298.98 164.03 258.32 164.08 330.83 189.05 343.27 189.05 214.07 75.17 286.54 100.15 298.98"/><path class="cls-1" d="m568.89,103.33c8.2,1.91,14.15,4.1,17.84,6.56,3.69,2.46,5.54,6.18,5.54,11.16,0,5.63-2.05,10.06-6.15,13.29-4.1,3.23-9.57,4.84-16.41,4.84s-12.91-1.75-17.23-5.25c-4.32-3.5-6.81-8.07-7.47-13.7h6.89c.66,3.28,2.41,6.17,5.25,8.66,2.84,2.49,7,3.73,12.47,3.73,5.14,0,9.04-1.11,11.69-3.32,2.65-2.22,3.98-4.83,3.98-7.84,0-1.42-.37-2.72-1.11-3.9-.74-1.18-1.57-2.12-2.5-2.83-.93-.71-2.27-1.41-4.02-2.09-1.75-.68-3.21-1.19-4.39-1.52-1.18-.33-2.8-.74-4.88-1.23-8.37-2.02-14.28-4.23-17.72-6.6s-5.14-5.89-5.09-10.54c.11-5.09,2.08-9.28,5.91-12.59,3.83-3.31,9.24-4.96,16.24-4.96s12.52,1.68,16.74,5.05c4.21,3.36,6.73,8,7.55,13.91h-6.81c-.82-3.55-2.61-6.52-5.37-8.9s-6.82-3.57-12.18-3.57-9.02,1.09-11.49,3.28c-2.46,2.19-3.69,4.76-3.69,7.71s1.27,5.06,3.82,6.48c2.54,1.42,6.74,2.82,12.59,4.18Z"/></svg>