<?xml version="1.0" encoding="UTF-8" standalone="no"?>
<!-- Created with Inkscape (http://www.inkscape.org/) -->

<svg
   version="1.1"
   id="svg228"
   width="500"
   height="500"
   viewBox="0 0 500 500.00002"
   sodipodi:docname="logo_lifer.svg"
   inkscape:version="1.2.2 (1:1.2.2+202305151914+b0a8486541)"
   xmlns:inkscape="http://www.inkscape.org/namespaces/inkscape"
   xmlns:sodipodi="http://sodipodi.sourceforge.net/DTD/sodipodi-0.dtd"
   xmlns="http://www.w3.org/2000/svg"
   xmlns:svg="http://www.w3.org/2000/svg">
  <defs
     id="defs232" />
  <sodipodi:namedview
     id="namedview230"
     pagecolor="#ffffff"
     bordercolor="#111111"
     borderopacity="1"
     inkscape:showpageshadow="0"
     inkscape:pageopacity="0"
     inkscape:pagecheckerboard="1"
     inkscape:deskcolor="#d1d1d1"
     showgrid="false"
     showguides="true"
     inkscape:zoom="1.3830001"
     inkscape:cx="114.60592"
     inkscape:cy="323.93346"
     inkscape:window-width="1920"
     inkscape:window-height="1168"
     inkscape:window-x="720"
     inkscape:window-y="0"
     inkscape:window-maximized="1"
     inkscape:current-layer="g234">
    <sodipodi:guide
       position="-781.97074,-692.31126"
       orientation="0,-1"
       id="guide2734"
       inkscape:locked="false" />
    <sodipodi:guide
       position="-817.78737,-782.71866"
       orientation="1,0"
       id="guide2736"
       inkscape:locked="false" />
  </sodipodi:namedview>
  <g
     inkscape:groupmode="layer"
     inkscape:label="Image"
     id="g234">
    <path
       style="fill:#000000;stroke-width:1.33333"
       d="m -1499.2235,432.70201 c 0,-12.83333 0.2,-18.08333 0.4444,-11.66666 0.2444,6.41666 0.2444,16.91666 0,23.33333 -0.2444,6.41667 -0.4444,1.16667 -0.4444,-11.66667 z"
       id="path520" />
    <g
       id="g5134"
       transform="matrix(1.0022906,0,0,1.0022906,-1.5459541,-4.7987178)">
      <g
         id="g5073"
         transform="matrix(0.37579185,0,0,0.37579185,496.7854,169.88303)">
        <path
           id="path516"
           style="fill:#000000;stroke-width:1.33333"
           d="m -389.11659,546.32422 c -1.76199,-0.005 -3.62191,0.12082 -5.54101,0.38476 l -6.61328,0.91016 v 16.54102 16.54101 h 4 c 3.91099,0 4,-0.1475 4,-6.66601 0,-6.97057 0.13719,-7.12904 5.02148,-5.82032 2.2099,0.59212 3.41689,2.3778 4.49219,6.64844 1.3785,5.47428 1.75557,5.83789 6.03906,5.83789 4.5515,0 4.56586,-0.0189 3.66406,-5 -0.4979,-2.75 -1.7087,-6.58835 -2.6914,-8.53125 -1.5214,-3.00808 -1.49547,-3.77545 0.17773,-5.16406 2.7082,-2.24759 2.48186,-9.76632 -0.36914,-12.28125 -2.4876,-2.19436 -6.89371,-3.38682 -12.17969,-3.40039 z m -0.57422,6.92578 c 2.78004,-0.0185 5.9154,2.29515 5.49024,4.54102 -0.2725,1.43927 -1.9729,2.39405 -4.74609,2.6621 -3.8146,0.36872 -4.32422,0.033 -4.32422,-2.85742 0,-1.80135 0.94455,-3.63757 2.09765,-4.08008 0.46561,-0.17866 0.9676,-0.26219 1.48242,-0.26562 z" />
        <path
           id="path512"
           style="fill:#000000;stroke-width:1.33333"
           d="m -388.80273,531.32031 c -12.96781,0.19789 -25.42248,7.58319 -30.48829,19.67188 -2.61406,6.23803 -2.23044,19.96081 0.74024,26.50195 2.81508,6.19852 11.00187,13.64495 17.64453,16.04883 12.71708,4.60211 30.03615,0.32006 38.05664,-9.41016 7.46529,-9.05678 9.25445,-23.2011 4.31445,-34.09765 -3.65579,-8.06366 -7.27631,-11.7497 -15.2207,-15.4961 -4.81927,-2.27266 -9.97251,-3.29618 -15.04687,-3.21875 z m 0.50195,8.03711 c 9.85839,0 17.16063,5.14262 21.26953,14.97656 5.00029,11.96748 0.16018,25.03163 -11.53711,31.14258 -1.9803,1.03452 -6.4803,1.87996 -10,1.87696 -20.32179,-0.0158 -30.80518,-25.4848 -16.64844,-40.44727 5.12509,-5.41677 9.90143,-7.54883 16.91602,-7.54883 z" />
      </g>
      <path
         style="fill:#000000;stroke-width:0.501056"
         d="m 129.86174,414.14121 c 0.005,-2.27357 0.45275,-16.76029 0.99607,-32.19283 0.54332,-15.43255 0.99055,-29.39095 0.99386,-31.01877 l 0.006,-2.95965 -2.60379,3.71124 c -13.3048,18.96365 -46.117363,38.97932 -72.110853,43.98755 -11.83921,2.28111 -25.09587,2.34754 -33.81766,0.16954 l -3.45366,-0.86246 -0.12867,-34.69813 -0.12871,-34.6981 h 3.69572 c 4.40789,0 11.03671,-1.09491 14.85021,-2.45283 l 2.75579,-0.98134 -2.03852,-0.0365 c -8.05093,-0.14456 -17.55038,-6.70318 -21.60942,-14.91953 l -1.9059,-3.85792 v -8.54231 -8.54231 l 1.84769,-3.55808 c 4.6912,-9.0337 12.94039,-14.45062 22.95457,-15.07335 12.35186,-0.76808 23.61055,6.7561 27.58906,18.43774 1.27119,3.73237 1.79809,10.68606 1.05875,13.97273 l -0.5072,2.25475 3.48306,-3.75792 c 8.0082,-8.6402 13.50157,-18.70218 15.98833,-29.28515 1.82195,-7.75383 2.02514,-12.81556 1.39637,-34.78315 -0.46125,-16.11542 -0.45899,-22.07961 0.0102,-26.80647 1.72676,-17.39384 7.92921,-32.56406 18.669573,-45.66294 3.21042,-3.91538 11.643,-12.27923 16.23867,-16.10623 11.32851,-9.43378 28.63726,-20.52648 45.59607,-29.22126 19.35139,-9.92144 46.79785,-19.112698 69.5843,-23.302358 16.3979,-3.01503 21.48343,-3.35631 46.91117,-3.14815 25.19541,0.20627 28.35919,0.45515 43.0908,3.38975 22.5105,4.4842 37.61882,11.335788 62.13093,28.176178 12.73278,8.74773 19.26309,14.33152 27.69072,23.67723 25.83716,28.65174 43.37263,66.42375 52.68653,113.48916 7.5923,38.36481 14.3233,100.98286 16.1446,150.19147 l 0.3384,9.14426 h -52.86856 -52.86858 l -0.27893,-6.639 c -1.25094,-29.77555 -24.85383,-55.01204 -57.62103,-61.60911 -7.98768,-1.60816 -22.28074,-1.59851 -29.80117,0.0203 -15.42801,3.32061 -28.19098,10.07318 -38.47729,20.3574 -12.21356,12.21109 -19.23688,28.59241 -19.26577,44.9359 -0.003,1.65647 -0.23235,2.414 -0.79667,2.63055 -0.43591,0.16727 -24.56175,0.30412 -53.61298,0.30412 l -52.82041,-3e-5 0.008,-4.13371 z"
         id="path346" />
      <path
         style="fill:#99fe00;fill-opacity:1;stroke-width:0.501056"
         d="m 231.76472,411.81749 c 0.16728,-0.43592 0.30414,-1.76386 0.30414,-2.95099 0,-3.09396 1.3546,-9.8067 3.04295,-15.0793 5.03159,-15.71326 17.04689,-30.27746 32.62176,-39.54208 18.077,-10.75295 41.59416,-14.00114 62.79276,-8.67287 25.87867,6.50462 46.32752,24.66534 54.04508,47.99769 1.81372,5.48342 3.32581,13.15495 3.32581,16.87365 v 2.16648 h 47.41003 47.41005 l -0.3326,-6.38845 c -4.1372,-79.46737 -12.8454,-143.51091 -24.3852,-179.33683 -12.1006,-37.56701 -31.72504,-69.45268 -55.11999,-89.55861 -5.43716,-4.67274 -17.64142,-13.34704 -27.62107,-19.63194 -6.45376,-4.06438 -19.62396,-10.61265 -26.12289,-12.98837 C 320.6163,94.280542 277.48782,91.754412 241.54239,98.403892 220.14676,102.36182 198.45911,109.21235 179.458,118.01461 c -6.70873,3.10781 -7.89338,3.72701 -17.53696,9.16624 -27.42173,15.46657 -46.55341,31.54519 -56.13527,47.17717 -4.67196,7.62193 -8.172123,16.77877 -10.088103,26.39186 -1.25086,6.27611 -1.39997,13.35997 -0.94214,44.75806 0.25659,17.59495 -0.1351,21.25167 -3.30055,30.81493 -3.73353,11.27947 -9.10603,19.43764 -19.9745,30.33125 -15.09852,15.13344 -27.30184,22.10366 -41.71289,23.82532 l -5.13584,0.61359 v 29.67264 29.67268 l 1.53135,0.30625 c 0.84226,0.16845 4.09287,0.55636 7.22359,0.86208 16.91818,1.65197 37.41744,-3.74274 57.15294,-15.04075 21.799993,-12.4798 33.284643,-23.71575 40.064483,-39.19691 1.00596,-2.29699 1.98137,-4.33149 2.16761,-4.52115 0.18624,-0.18967 1.40963,-0.11503 2.71863,0.16583 2.3782,0.51029 2.38,0.51228 2.37538,2.59958 -0.004,1.14891 -0.56418,18.21039 -1.24801,37.91443 -0.68383,19.70399 -1.24545,36.55826 -1.248,37.45388 l -0.005,1.62848 h 48.04776 c 43.35105,0 48.07748,-0.0775 48.35188,-0.79258 z"
         id="path446" />
      <path
         style="fill:#000000;stroke-width:0.501056"
         d="m 114.57126,226.36213 c -4.31368,-1.97881 -6.74224,-5.88099 -6.74224,-10.8334 0,-6.90679 4.92412,-11.79015 11.86199,-11.7638 7.21933,0.0274 12.04905,5.32066 11.57976,12.69114 -0.28308,4.44573 -2.19936,7.5317 -5.86649,9.44741 -3.28103,1.71406 -7.68949,1.90068 -10.83302,0.45865 z"
         id="path496" />
      <path
         style="fill:#000000;stroke-width:0.501056"
         d="m 181.96327,296.70154 c -12.3542,-2.93546 -24.01451,-8.92901 -33.0266,-17.95925 -5.79404,-5.53605 -11.74267,-10.95564 -17.07899,-16.93773 6.333,-11.06391 15.2496,-25.23551 15.9836,-54.75758 0.73395,-29.52208 -4.43976,-44.07097 -5.37375,-54.26878 l 48.76528,-0.63288 c 4.86366,10.02992 9.36067,20.56693 17.73946,28.26199 13.68586,13.44315 26.91766,28.91398 30.98969,48.19447 1.76485,9.74458 5.21282,32.16154 -10.52714,51.19502 -15.73995,19.03348 -38.4974,18.00701 -47.47155,16.90474 z"
         id="path462"
         sodipodi:nodetypes="ccczcccczc" />
      <path
         id="path2738"
         style="fill:#ff3300;fill-opacity:1;stroke-width:0.501056"
         d="m 148.53701,157.96075 c 0.91686,5.20565 1.96615,10.389 2.69548,15.62598 1.26289,8.77267 1.89009,17.63363 1.93184,26.49607 0.0439,7.87004 -0.26561,15.76332 -1.43786,23.55398 -1.19498,8.08309 -3.27228,16.05379 -6.42656,23.59916 -1.98809,4.76771 -4.37539,9.35959 -6.95478,13.83196 5.08589,5.35992 10.54983,10.31665 15.86315,15.44602 4.23044,3.92034 9.05715,7.17857 14.21488,9.75113 0.55842,0.27703 1.19277,0.58356 1.78854,0.85594 2.65036,1.22136 5.38312,2.26117 8.16627,3.1376 0.32541,0.0974 0.70422,0.21979 1.0333,0.31498 1.68502,0.47391 3.37432,1.02268 5.13567,1.10754 1.14344,0.10623 2.3268,0.17854 3.46217,0.22081 5.17553,0.18354 10.39985,-0.28759 15.44012,-1.58836 0.97637,-0.25527 1.87979,-0.51945 2.84001,-0.83482 1.55247,-0.50968 3.08732,-1.11366 4.54888,-1.78828 1.5645,-0.7205 3.08507,-1.53702 4.54801,-2.44637 0.39296,-0.24933 0.86265,-0.55023 1.27731,-0.83245 3.07796,-2.08395 5.84304,-4.61469 8.26354,-7.43203 3.39262,-3.96029 6.14643,-8.56182 8.02081,-13.45876 0.254,-0.66858 0.4874,-1.31389 0.7071,-1.97197 2.2573,-6.71988 2.93437,-13.89569 2.52402,-20.94995 -0.12351,-2.20421 -0.36738,-4.47403 -0.67911,-6.68861 -0.0583,-0.41355 -0.12011,-0.84105 -0.18874,-1.26427 -0.34667,-2.22048 -0.77667,-4.45058 -1.40766,-6.63446 -0.87592,-3.0202 -1.96723,-5.97791 -3.29183,-8.83058 -0.28537,-0.61611 -0.61123,-1.2999 -0.92987,-1.93401 -2.56304,-5.12851 -5.7475,-9.92713 -9.26422,-14.44818 -4.22374,-5.41266 -8.96401,-10.5176 -13.85179,-15.35361 -1.65512,-1.65506 -3.38279,-3.24257 -4.90416,-5.02567 -4.39192,-5.04029 -7.75393,-10.87385 -10.72748,-16.83436 -1.01997,-2.03414 -2.00233,-4.08688 -2.9888,-6.13747 -13.13608,0.17101 -26.27216,0.34203 -39.40824,0.51304 z" />
      <g
         id="g5056"
         transform="matrix(0.38513578,0,0,0.38513578,631.2478,-200.16801)">
        <circle
           style="fill:#ff3300;fill-opacity:1;stroke-width:3.80144;stroke-linecap:round;stroke-linejoin:round;stop-color:#000000"
           id="circle5050"
           cx="-1531.7371"
           cy="1283.6414"
           r="60.420235" />
        <path
           id="circle5048"
           style="fill:#000000;fill-opacity:1;stroke-width:4.51592;stroke-linecap:round;stroke-linejoin:round;stop-color:#000000"
           d="m -1480.9845,1232.8872 a 71.776268,71.776268 0 0 0 -101.5057,0 71.776268,71.776268 0 0 0 -10e-4,101.5071 71.776268,71.776268 0 0 0 101.5085,0 71.776268,71.776268 0 0 0 -10e-4,-101.5071 z m -16.24,6.9786 -33.2312,33.2312 -34.4121,-34.4121 a 55.873283,55.873283 0 0 1 67.6433,1.1809 z m 11.0306,11.4891 a 55.873283,55.873283 0 0 1 -0.5883,65.4156 l -32.4137,-32.4136 z m -89.9779,-1.4543 34.4562,34.4563 -33.7961,33.7961 a 55.873283,55.873283 0 0 1 -0.6601,-68.2524 z m 45.7161,45.7161 32.4578,32.4579 a 55.873283,55.873283 0 0 1 -66.0247,1.109 z" />
      </g>
      <g
         id="g5067"
         transform="matrix(0.37579185,0,0,0.37579185,535.161,171.94069)">
        <path
           style="fill:#000000;stroke-width:1.33333"
           d="m -646.7965,-92.606602 c -14.22144,-2.55896 -26.60416,-12.117718 -32.84956,-25.358038 -3.03801,-6.44063 -3.4591,-9.0376 -3.4591,-21.33333 0,-12.61202 0.38064,-14.82411 3.83936,-22.31242 4.46813,-9.6737 13.85945,-19.1491 23.20433,-23.41208 8.48429,-3.87037 29.55832,-4.12648 40.00309,-0.48614 6.49278,2.26294 7.30147,2.28914 10.28642,0.33333 1.7818,-1.16748 3.86076,-2.12269 4.61989,-2.12269 0.87521,0 1.38024,5.89006 1.38024,16.09776 0,14.30989 -0.24688,16.04989 -2.22284,15.66666 -1.26835,-0.24597 -3.06508,-2.95857 -4.18421,-6.31705 -2.68259,-8.05029 -11.36516,-16.47707 -19.25264,-18.68543 -22.25576,-6.23122 -40.90344,13.17924 -40.98615,42.66272 -0.062,22.07779 14.56543,38.575338 34.20239,38.575338 6.95846,0 17.59786,-3.863388 23.9208,-8.686118 4.32493,-3.29879 8.52265,-3.7062 8.52265,-0.82719 0,2.23253 -9.74177,9.848008 -16.60583,12.981348 -7.69044,3.51057 -20.99021,4.91988 -30.41884,3.22333 z"
           id="path510" />
        <path
           style="fill:#000000;stroke-width:1.33333"
           d="m -567.77183,-79.373892 c -15.76667,-5.81807 -31.18364,-11.51812 -34.25993,-12.66678 -7.07659,-2.64232 -6.6166,-5.96662 0.69,-4.98661 3.70098,0.49641 5.47949,0.0392 7.18697,-1.84753 2.53397,-2.800018 26.38296,-67.224548 26.38296,-71.269698 0,-1.52344 -1.8768,-3.68408 -4.59133,-5.28569 -2.80943,-1.6576 -4.31636,-3.42553 -3.88282,-4.55533 0.56212,-1.46487 3.3704,-0.86543 13.59134,2.90113 7.08554,2.61112 15.74349,5.6992 19.23989,6.86239 6.87712,2.2879 7.77324,5.06734 1.51276,4.69205 -6.07211,-0.364 -9.49052,0.6766 -10.57931,3.22048 -0.55198,1.28967 -6.58028,17.34484 -13.3962,35.67817 -12.31156,33.115358 -12.37494,33.348428 -9.69365,35.641378 3.25491,2.78349 26.33013,10.35862 31.55423,10.35862 3.60358,0 14.99188,-6.22689 16.83118,-9.20297 1.08446,-1.75467 2.13303,-1.81183 4.59828,-0.25064 1.46027,0.92476 0.33436,3.29871 -5.33333,11.2452 -3.9514,5.54013 -8.08437,10.06649 -9.18437,10.05856 -1.1,-0.008 -14.9,-4.77465 -30.66667,-10.59273 z"
           id="path508" />
        <path
           style="fill:#000000;stroke-width:1.33333"
           d="m -850.43007,-60.964642 c 0.004,-0.91667 1.81505,-2.69474 4.02315,-3.95127 2.20809,-1.25653 4.3535,-3.16746 4.76757,-4.24652 1.06079,-2.76433 -17.8956,-71.616278 -20.52439,-74.547128 -1.49081,-1.66212 -3.63066,-2.28513 -6.88556,-2.00472 -3.34388,0.28809 -4.72253,-0.13572 -4.72253,-1.45177 0,-1.30011 10.61796,-4.75463 35.33333,-11.49559 19.43334,-5.30032 35.69971,-9.42809 36.14748,-9.17281 0.44779,0.25528 1.86206,4.19881 3.14282,8.7634 1.28076,4.5646 2.62858,9.08088 2.99516,10.03617 1.43642,3.74327 -3.97808,1.47151 -8.95012,-3.75521 -4.85371,-5.1023 -5.58335,-5.42604 -10.27994,-4.56118 -11.11582,2.04696 -29.7216,7.82562 -29.71421,9.22876 0.009,1.86504 7.68484,30.295 8.36107,30.97124 0.83397,0.83398 24.09957,-6.22196 27.29774,-8.2788 2.37707,-1.52876 3,-3.16885 3,-7.89864 0,-4.83378 0.45132,-5.96926 2.37263,-5.96926 1.89015,0 3.15079,2.91468 6.19936,14.33333 2.10471,7.88333 4.07151,15.00591 4.37067,15.82795 0.29916,0.82202 -0.52911,1.90637 -1.84059,2.40964 -1.39304,0.53454 -2.60275,0.26037 -2.90935,-0.65942 -0.28864,-0.86594 -2.19613,-3.44497 -4.23885,-5.73118 l -3.71405,-4.15674 -12.69744,3.18776 c -6.9836,1.75328 -13.42274,3.63603 -14.30919,4.18388 -1.21023,0.74796 -0.52609,4.9817 2.74611,16.994508 2.39681,8.79912 4.82596,16.75581 5.39808,17.68153 1.43582,2.32322 17.86306,-1.57872 28.8529,-6.85337 6.79012,-3.25899 8.71492,-4.95135 11,-9.67168 1.52335,-3.14681 2.76972,-6.96785 2.76972,-8.491198 0,-2.29183 2.28158,-4.38835 4.77572,-4.38835 0.30668,0 0.55762,4.5 0.55762,9.999998 0,8.27463 0.3678,10 2.13172,10 3.62445,0 8.76733,-6.88357 20.31216,-27.187198 l 11.11054,-19.53984 -8.00677,-8.96981 c -9.54276,-10.69055 -22.26357,-23.06357 -26.84433,-26.11041 -1.81316,-1.206 -4.96316,-2.19274 -7,-2.19274 -2.40295,0 -3.70332,-0.70226 -3.70332,-2 0,-1.1 0.45,-2.01541 1,-2.03424 0.55,-0.0188 9.7,-1.453 20.33333,-3.18704 10.63333,-1.73402 19.78333,-2.8832 20.33333,-2.55373 2.09928,1.25759 0.85563,3.09203 -2.66666,3.93347 -9.17523,2.19184 -8.1163,5.68002 5.90128,19.43921 l 9.09872,8.931 7.24884,-12.79657 c 8.94254,-15.78654 9.25869,-18.2464 2.41782,-18.81259 -3.27074,-0.27069 -5,-1.07768 -5,-2.33333 0,-1.05572 0.15,-1.93043 0.33334,-1.94378 0.18333,-0.0133 7.48814,-1.18397 16.23293,-2.6014 8.74477,-1.41741 16.39477,-2.27109 17,-1.89704 2.15529,1.33204 1.03393,2.67771 -3.63964,4.3677 -2.80137,1.01298 -6.33725,3.9189 -8.64523,7.10496 -4.23945,5.8524 -19.94806,33.55221 -19.94806,35.17546 0,1.31839 31.55532,33.69198 36.59237,37.54126 2.15913,1.65 5.60913,2.999998 7.66667,2.999998 2.43641,0 3.74096,0.69744 3.74096,2 0,1.1 -0.45,2.00577 -1,2.01281 -0.55,0.007 -9.66727,1.4898 -20.26058,3.29499 -10.59332,1.80518 -19.51745,3.02529 -19.83138,2.71134 -1.30195,-1.30194 1.18956,-4.68581 3.45012,-4.68581 1.34301,0 3.13376,-0.69192 3.97944,-1.5376 2.22909,-2.22909 0.27705,-5.252838 -12.13934,-18.803908 l -10.69725,-11.67482 -8.41304,15.00816 c -10.63115,18.965048 -10.77908,22.341498 -0.97892,22.341498 1.79368,0 3.22428,0.78668 3.22428,1.77302 0,1.24412 -4.87229,2.51037 -16.33333,4.24486 -8.98334,1.35951 -16.63334,2.88727 -17,3.39503 -0.67495,0.93464 -69.17444,19.92042 -71.87163,19.92042 -0.80393,0 -1.45791,-0.75 -1.45328,-1.66666 z"
           id="path506" />
        <path
           style="fill:#000000;stroke-width:1.33333"
           d="m -483.86603,-37.070442 c -14.2735,-3.96727 -27.65244,-15.85008 -30.47745,-27.06924 -2.66411,-10.58013 -0.17563,-17.88365 14.14686,-41.520128 12.47049,-20.58018 17.75809,-30.02404 17.75809,-31.71676 0,-0.46834 -1.8927,-2.61955 -4.2059,-4.78048 -2.9863,-2.78962 -3.7925,-4.34251 -2.78,-5.35503 1.9142,-1.91412 34.1196,17.36703 34.7857,20.82592 0.3714,1.92821 -0.05,2.22241 -1.9979,1.39416 -4.7623,-2.02521 -9.8453,-2.29643 -11.8505,-0.63231 -2.1018,1.74434 -24.8325,39.060258 -29.7911,48.906548 -1.64011,3.25685 -2.82693,8.15319 -2.82693,11.66282 0,5.06123 0.77606,6.9083 4.75143,11.30855 10.7231,11.86921 25.5589,14.11743 34.7778,5.27023 5.8712,-5.6344 32.4708,-49.83299 32.4708,-53.954268 0,-1.66629 -1.5,-4.81226 -3.3334,-6.99105 -6.9858,-8.3022 -2.7034,-7.53747 13.8753,2.4778 9.0774,5.48365 13.1037,8.650998 12.6153,9.923868 -0.5392,1.4051 -1.539,1.55724 -4.0241,0.61237 -8.7811,-3.338558 -10.5342,-1.68417 -26.5281,25.03509 -11.8937,19.8696 -19.6866,29.80811 -25.8868,33.01436 -5.3175,2.74981 -14.781,3.44927 -21.4791,1.58755 z"
           id="path504" />
        <path
           style="fill:#000000;stroke-width:1.33333"
           d="m -421.10513,9.8838181 c -6.7971,-2.68313 -13.4358,-8.39548 -18.2283,-15.68454 -5.8492,-8.8963001 -6.3222,-9.2771201 -10.5246,-8.4737801 -4.9139,0.93935 -4.1179,-1.6228 4.8108,-15.485 6.4248,-9.97466 8.3886,-12.16108 9.8406,-10.95602 1.529,1.26893 1.5223,2.47469 -0.042,7.67342 -2.4098,8.00716 -2.3481,13.98595 0.2074,20.10208 5.9251,14.1807201 19.1116,18.8530601 27.7529,9.8335801 5.7289,-5.97971 5.8088,-11.1807901 0.4468,-29.0918801 -2.596,-8.67148 -5.1038,-17.66611 -5.5731,-19.98808 -1.9699,-9.74822 5.5124,-22.76485 14.8592,-25.84955 2.6121,-0.8621 7.9881,-1.29888 11.9464,-0.97062 8.6988,0.72137 14.9607,5.1896 21.6838,15.47266 3.663,5.60268 5.2176,6.9026 8.2546,6.9026 2.0579,0 4.0545,0.50617 4.4369,1.12483 0.9524,1.54104 -15.4347,25.54184 -17.4393,25.54184 -2.8634,0 -2.8997,-1.86916 -0.1964,-10.11402 3.4169,-10.42168 1.8497,-17.44789 -5.54,-24.83765 -6.4199,-6.41986 -13.0364,-6.97585 -18.0924,-1.52031 -4.596,4.95908 -4.2586,11.779 1.4854,30.02991 6.1639,19.58545 6.5519,29.3285101 1.4733,37.00272015 -4.6688,7.05511995 -12.0825,10.79711985 -21.1753,10.68815985 -3.8792,-0.0465 -8.5531,-0.67664 -10.3864,-1.4003499 z"
           id="path502" />
        <path
           style="fill:#000000;stroke-width:1.33333"
           d="m -393.77183,38.688538 c -6.6,-8.37589 -12.194,-16.14936 -12.4311,-17.27437 -0.6635,-3.14804 2.9421,-2.42601 6.4311,1.28785 1.7223,1.83334 4.1476,3.33334 5.3895,3.33334 2.206,0 48.059,-35.8948699 57.2413,-44.80999 4.4487,-4.31928 4.5622,-4.66697 2.8856,-8.84304 -3.0461,-7.58751 -3.2597,-9.01665 -1.3386,-8.95819 2.1375,0.0651 25.1449,28.2823901 26.1291,32.0459501 0.9234,3.53124005 -1.4714,3.21224 -5.7662,-0.76807 -1.9782,-1.83333 -4.6635,-3.33333 -5.9672,-3.33333 -1.3037,0 -13.6661,9.07543005 -27.472,20.1676099 -35.9913,28.91691 -36.3205,29.28162 -31.8106,35.24422 2.4116,3.18838 2.625,7.27545 0.3758,7.19588 -0.9167,-0.0324 -7.0667,-6.91198 -13.6667,-15.28786 z"
           id="path500" />
        <path
           style="fill:#000000;stroke-width:1.33333"
           d="m -359.45373,93.035348 c 0.346,-1.28333 11.8743,-18.2259 25.6184,-37.65015 13.7442,-19.42426 25.8841,-37.04714 26.9778,-39.16198 1.2766,-2.46873 1.6859,-5.45765 1.1433,-8.3498399 -1.6451,-8.76919995 2.6097,-4.66928 12.2448,11.7989999 6.678,11.41396 9.0628,16.60483 7.9516,17.30774 -0.9562,0.60485 -2.5593,-0.31107 -4.0319,-2.3037 -3.0359,-4.10788 -6.2821,-4.21004 -9.7787,-0.30773 -4.946,5.51993 -35.3496,49.20494 -34.6984,49.85606 1.1393,1.13932 59.6482,-9.91258 61.7613,-11.66625 1.9676,-1.63297 1.9226,-4.60627 -0.1442,-9.52314 -0.6893,-1.64004 -0.3671,-2.33334 1.0844,-2.33334 2.5644,0 15.9499,22.37725 14.9477,24.98887 -0.5785,1.50742 -1.4128,1.33233 -4.2371,-0.88926 -1.9342,-1.52145 -5.1375,-2.76628 -7.1184,-2.76628 -1.9809,0 -22.3387,3 -45.2397,6.66667 -22.9009,3.66667 -42.8693,6.666673 -44.3741,6.666673 -1.9564,0 -2.5567,-0.6648 -2.1068,-2.333343 z"
           id="path498" />
        <path
           id="path490"
           style="fill:#000000;stroke-width:1.33333"
           d="m -333.88867,126.66602 c -0.30404,0.045 -0.5801,0.19922 -0.83985,0.45898 -2.05569,2.05562 7.20748,26.07654 10.29688,26.70117 1.8848,0.38106 2.1074,-0.23669 1.3418,-3.72265 -1.4797,-6.73676 0.70746,-8.06836 13.24804,-8.06836 h 10.93555 l 6.4043,16.11914 6.40625,16.11718 -7.12891,7.2168 c -8.95799,9.07071 -11.52247,9.99797 -14.88867,5.37695 -2.9181,-4.00597 -6.93235,-4.81856 -5.75195,-1.16406 0.4145,1.28333 3.38255,8.93334 6.59375,17 3.42799,8.61099 5.35426,15.18992 4.66796,15.9336 -1.98559,2.1513 -1.29741,4.51251 1.58008,5.42578 2.5746,0.81713 2.69029,1.53256 1.83789,11.30468 -0.5809,6.65963 -0.33194,12.84199 0.68946,17.09961 1.83769,7.66065 9.08104,16.97626 15.30664,19.6875 2.24669,0.97846 7.0834,1.7919 10.75,1.8086 13.38288,0.0607 20.74525,-7.51495 30.12304,-30.99805 5.8271,-14.5918 9.4661,-20.15783 14.55469,-22.26562 8.49469,-3.5186 16.76,3.45775 16.5332,13.95312 -0.1825,8.44435 -4.27677,15.32422 -12.28906,20.6543 -3.86479,2.57104 -6.92187,5.61566 -6.92187,6.89453 0,2.06537 1.40619,1.90897 14.33398,-1.5957 7.88329,-2.13715 14.78399,-3.89054 15.33399,-3.89454 0.55,-0.004 1,-1.20716 1,-2.67382 0,-1.82741 -0.88873,-2.66602 -2.82422,-2.66602 -2.7214,0 -2.79143,-0.40077 -1.92383,-11 1.7558,-21.4471 -6.62497,-33 -23.93945,-33 -13.52639,0 -18.09707,4.33265 -27.94336,26.49414 -4.1148,9.26127 -8.206,17.76674 -9.0918,18.90039 -5.039,6.44866 -14.84336,8.59493 -20.65625,4.52344 -6.75239,-4.72956 -9.00212,-16.53405 -4.82813,-25.33008 2.0805,-4.38444 10.95807,-13.49001 15.78516,-16.19141 1.7114,-0.95772 2.08221,-1.97333 1.25781,-3.43945 -1.0343,-1.83938 -2.49182,-1.65546 -12.57031,1.58789 l -11.40039,3.66797 -0.29297,-3.85156 c -0.2558,-3.35808 3.45082,-7.72744 28.9336,-34.10742 16.07448,-16.6404 31.38499,-32.32243 34.02539,-34.84961 2.64049,-2.52718 4.80078,-5.2909 4.80078,-6.14258 0,-2.05064 -12.10785,-3.24354 -33.86133,-3.33594 -9.60909,-0.0408 -27.62713,-0.55538 -40.04102,-1.14258 -22.45507,-1.06218 -22.58736,-1.08596 -25.75586,-4.76953 -1.71644,-1.99545 -2.87891,-2.85182 -3.79101,-2.71679 z m 62.27929,15.36914 h 19.11524 l -11.97266,12.09179 c -6.58469,6.65008 -12.92921,12.62091 -14.09961,13.26953 -2.10019,1.16388 -2.70036,-0.0675 -11.53515,-23.69531 -0.4804,-1.28481 3.7568,-1.66601 18.49218,-1.66601 z" />
      </g>
      <g
         id="g5097"
         transform="matrix(0.37579185,0,0,0.37579185,536.6251,172.91561)">
        <path
           style="fill:#000000;stroke-width:1.33333"
           d="m -429.62223,252.36868 c 2.9809,-5.10269 14.446,-17 16.3823,-17 2.9353,0 5.4681,2.57087 5.4681,5.55032 0,3.08812 -14.7857,13.11635 -19.3389,13.11635 -2.4185,0 -3.1872,-0.51008 -2.5115,-1.66667 z"
           id="path494" />
        <path
           style="fill:#000000;stroke-width:1.33333"
           d="m -434.43853,301.36868 c 0,-1.1 0.8358,-2 1.8574,-2 2.9143,0 3.476,-3.13392 3.476,-19.39546 0,-13.81278 -0.2398,-15.3057 -2.6667,-16.60454 -5.0451,-2.70005 -2.6619,-4 7.3333,-4 h 10 v 19.37518 c 0,15.9924 0.3492,19.50918 2,20.14265 1.1,0.42212 2,1.60328 2,2.62483 0,1.44998 -2.6318,1.85734 -12,1.85734 -9.7777,0 -12,-0.37037 -12,-2 z"
           id="path488" />
        <path
           style="fill:#000000;stroke-width:1.33333"
           d="m -475.77183,301.52419 c 0,-1.01447 1.2,-2.15829 2.6667,-2.54184 2.4881,-0.65065 2.6666,-1.81868 2.6666,-17.44193 0,-15.37998 -0.2173,-16.86088 -2.6666,-18.17174 -4.9557,-2.6522 -2.7094,-4 6.6666,-4 8.5769,0 9.3334,0.22575 9.3334,2.78519 0,2.68025 0.1545,2.65513 4.1023,-0.66667 5.2933,-4.454 12.2214,-4.67732 15.1554,-0.4885 2.6426,3.77289 2.6361,6.9523 -0.02,9.60808 -2.9534,2.9534 -7.1931,2.60232 -10.9263,-0.90476 -3.1667,-2.97492 -3.2096,-2.97788 -5.1291,-0.35278 -1.4555,1.99043 -1.8423,5.96015 -1.5592,16 0.3581,12.70019 0.5231,13.3736 3.3765,13.77884 1.65,0.23434 3,1.28434 3,2.33334 0,1.52698 -2.6585,1.90726 -13.3333,1.90726 -10.4634,0 -13.3334,-0.39702 -13.3334,-1.84449 z"
           id="path486" />
        <path
           style="fill:#000000;stroke-width:1.33333"
           d="m -359.77183,296.03535 c 0,-9.65617 2.4859,-11.93639 4.7243,-4.33333 2.2711,7.71437 15.0564,11.18824 16.3858,4.45213 0.6282,-3.18308 -1.9669,-5.83243 -9.4052,-9.60168 -9.6163,-4.87292 -11.7049,-7.48168 -11.7049,-14.61968 0,-4.97345 0.7244,-6.82696 3.9151,-10.01769 3.793,-3.79292 4.2716,-3.90419 15.3333,-3.56411 l 11.4182,0.35103 v 7 c 1e-4,8.21262 -2.6385,9.50036 -6.0296,2.94272 -2.5098,-4.85343 -7.6684,-7.22162 -11.391,-5.22934 -4.9625,2.65587 -3.0696,6.35306 5.4207,10.58752 9.4908,4.73354 13.3333,9.02339 13.3333,14.88582 0,6.72976 -2.4063,11.61016 -6.86,13.91328 -4.351,2.24997 -11.5012,2.45706 -16.6921,0.48348 -2.6297,-0.99982 -3.8647,-0.99982 -4.198,0 -0.2596,0.77908 -1.3221,1.41652 -2.361,1.41652 -1.4359,0 -1.8889,-2.07843 -1.8889,-8.66667 z"
           id="path484" />
        <path
           id="path480"
           style="fill:#000000;stroke-width:1.33333"
           d="m -385.85547,258.12109 c -5.7961,-0.0153 -11.89203,1.20376 -14.90234,3.44141 -4.076,3.0298 -5.62441,9.99384 -2.94141,13.22656 1.9295,2.32493 8.12833,2.51231 10.32813,0.3125 1.96899,-1.96902 2.08388,-6.71488 0.20898,-8.58984 -2.4511,-2.45108 2.28491,-5.1438 6.4707,-3.67969 3.1167,1.09017 3.63899,2.08151 3.99219,7.5625 0.3238,5.02654 -0.0201,6.30664 -1.69531,6.30664 -3.3221,0 -18.50429,7.30197 -20.67969,9.94531 -3.1767,3.85995 -2.53581,12.54955 1.14649,15.53125 4.01219,3.24886 11.52326,3.24213 17.60156,-0.0156 4.65989,-2.49753 4.76452,-2.49753 6.32422,0 1.94619,3.11644 8.13601,3.34635 13.6289,0.50586 4.4816,-2.3175 5.25688,-5.9668 1.26758,-5.9668 -2.4966,0 -2.66601,-0.88719 -2.66601,-13.93555 0,-16.05819 -1.24592,-19.752 -7.69141,-22.81054 -2.60207,-1.23477 -6.42682,-1.82349 -10.39258,-1.83399 z m 2.75,22.16993 0.41797,6.49414 c 0.321,4.98474 -0.12608,6.8919 -1.92188,8.20507 -1.28689,0.94096 -2.67418,1.66533 -3.08398,1.60743 -5.73179,-0.80968 -5.59359,-7.71371 0.25391,-12.64844 z" />
        <path
           id="path476"
           style="fill:#000000;stroke-width:1.33333"
           d="m -496.46875,258.0625 c -6.50791,0.0302 -13.22892,3.13267 -16.94922,9.11523 -2.38875,3.8413 -3.02148,6.81146 -3.02148,14.19141 0,11.06234 2.86445,17.04471 9.98047,20.84961 5.51685,2.94986 13.42062,3.2105 18.41992,0.60937 5.31009,-2.76286 10.06373,-8.32948 9.14844,-10.71484 -0.6691,-1.74348 -1.54086,-1.54968 -5.68946,1.26563 -8.88599,6.03023 -14.08252,3.28001 -17.0293,-9.00977 l -0.88085,-3.66797 h 12.20703 12.20703 l -0.82422,-6.00976 c -0.4531,-3.30554 -1.82272,-7.53513 -3.04492,-9.40039 -3.20395,-4.88984 -8.78117,-7.25517 -14.52344,-7.22852 z m -0.0195,4.10156 c 2.1081,-0.11426 4.06938,2.41817 4.45898,7.67383 l 0.41016,5.53125 h -5.55859 -5.55665 l 0.91211,-5 c 0.97243,-5.3295 3.22589,-8.09082 5.33399,-8.20508 z" />
        <path
           style="fill:#000000;stroke-width:1.33333"
           d="m -540.4991,301.42928 c -3.12693,-3.12692 -3.27273,-4.01794 -3.27273,-20 0,-15.83837 -0.14171,-16.72726 -2.66667,-16.72726 -4.22376,0 -3.19194,-2.40956 4.66667,-10.89779 4.03333,-4.35648 7.33333,-8.48668 7.33333,-9.17821 0,-0.69154 1.2,-1.25734 2.66667,-1.25734 2.37037,0 2.66667,0.8889 2.66667,8 v 8 h 4 c 3.1111,0 4,0.59259 4,2.66667 0,2.07408 -0.8889,2.66667 -4,2.66667 h -4 v 15.25464 c 0,8.39005 0.57812,15.61194 1.2847,16.04864 0.70658,0.43669 2.56658,-0.4879 4.13334,-2.05466 3.88605,-3.88605 6.53838,-1.48326 3.86884,3.50486 -3.98703,7.44982 -15.07438,9.58024 -20.68082,3.97378 z"
           id="path474" />
        <path
           id="path470"
           style="fill:#000000;stroke-width:1.33333"
           d="m -569.9707,258.32422 c -12.24306,-0.11736 -19.125,8.11934 -19.125,23.04492 0,10.76461 2.62664,16.39498 9.64453,20.67383 8.26449,5.03892 20.84963,2.37989 26.53711,-5.60742 4.10775,-5.76881 1.32789,-7.91617 -4.21289,-3.25391 -4.53857,3.81895 -6.76207,4.26599 -10.71875,2.14844 -3.03791,-1.62584 -6.59375,-8.03962 -6.59375,-11.89453 0,-2.5511 0.79446,-2.73438 11.91797,-2.73438 h 11.91601 l -0.77148,-5 c -1.74554,-11.32097 -6.82333,-16.56572 -16.74805,-17.29883 -0.62787,-0.0464 -1.24359,-0.0723 -1.8457,-0.0781 z m -0.084,3.88867 c 0.47678,-0.0297 0.99126,0.0641 1.54688,0.27734 2.29508,0.88071 4.73633,6.1894 4.73633,10.29883 0,2.15697 -0.95547,2.58008 -5.82227,2.58008 h -5.82031 l 0.99609,-5.44141 c 0.93897,-5.13482 2.29726,-7.58608 4.36328,-7.71484 z" />
        <path
           style="fill:#000000;stroke-width:1.33333"
           d="m -631.35134,303.35938 c -4.76626,-1.92038 -5.75382,-5.68194 -5.75382,-21.9161 0,-13.78405 -0.28508,-15.67813 -2.66667,-17.7173 -1.46667,-1.2558 -2.66667,-2.74992 -2.66667,-3.32028 0,-0.57036 4.2,-1.03702 9.33334,-1.03702 h 9.33333 v 16.41183 c 0,19.13633 1.22233,22.41149 7.537,20.19488 l 3.79633,-1.33261 0.37635,-14.90044 c 0.34905,-13.8199 0.17984,-15.00563 -2.33333,-16.35063 -5.08804,-2.72304 -2.73228,-4.02303 7.29032,-4.02303 h 10 v 18.7915 c 0,17.67016 0.15913,18.8331 2.66666,19.48884 5.16923,1.35178 2.7878,3.99934 -4.33333,4.81758 -3.85,0.44238 -8.35,1.1963 -10,1.67538 -2.23317,0.64841 -3,0.32009 -3,-1.28446 0,-2.63561 -0.10133,-2.63904 -4.84759,-0.16372 -4.21572,2.19866 -10.25024,2.47128 -14.73192,0.66558 z"
           id="path468" />
        <path
           style="fill:#000000;stroke-width:1.33333"
           d="m -732.52755,301.63111 c -3.90111,-3.35479 -3.91212,-3.40712 -4.37817,-20.81283 -0.37067,-13.84284 -0.85295,-17.4496 -2.33334,-17.4496 -1.02636,0 -1.8661,-0.9 -1.8661,-2 0,-1.5873 1.92592,-2 9.33333,-2 h 9.33333 v 16.55762 c 0,18.6947 0.45299,20.79301 4.47599,20.73332 6.48916,-0.0963 7.52401,-2.54451 7.52401,-17.79984 0,-13.8687 -0.0812,-14.25192 -3.33333,-15.7337 -5.73028,-2.61089 -3.69607,-3.7574 6.66667,-3.7574 h 10 v 17.33334 c 0,15.55556 0.2735,17.60684 2.66666,20 3.93642,3.93641 3.34118,4.87474 -3.66666,5.78013 -3.48334,0.45003 -7.68334,1.20359 -9.33334,1.67456 -2.48198,0.70847 -3,0.33333 -3,-2.17251 0,-2.93922 -0.0785,-2.9578 -2.65316,-0.62774 -1.47009,1.33041 -5.52297,2.67682 -9.08905,3.01948 -5.46888,0.52549 -7.02352,0.11306 -10.34684,-2.74483 z"
           id="path466" />
        <path
           style="fill:#000000;stroke-width:1.33333"
           d="m -782.00018,310.75834 c -2.3256,-1.01162 -4.8756,-3.0487 -5.66666,-4.52683 -2.0674,-3.86297 -1.77071,-10.26045 0.56578,-12.19957 2.97059,-2.46538 8.86035,-2.01612 10.96979,0.83674 1.68449,2.27814 1.72161,4.02454 0.20836,9.80168 -0.32091,1.22511 0.61639,2.14107 2.48227,2.42579 2.22993,0.34027 3.33993,-0.44232 4.33333,-3.05515 1.73773,-4.57061 1.7492,-54.74126 0.0133,-57.98493 -0.72724,-1.35885 -3.12724,-2.86708 -5.33333,-3.35161 -8.81475,-1.93603 -3.17787,-3.33578 13.43325,-3.33578 13.35942,0 17.31592,0.3903 16.89558,1.66667 -0.3019,0.91667 -1.85091,1.85827 -3.44226,2.09244 -3.89465,0.57313 -4.12117,2.16105 -4.53814,31.81363 -0.32971,23.4462 -0.58924,25.88546 -3.12106,29.33333 -5.65056,7.69505 -17.45188,10.55005 -26.80024,6.48359 z"
           id="path464" />
        <path
           id="path458"
           style="fill:#000000;stroke-width:1.33333"
           d="m -425.32812,323.08594 0.44531,3.09179 c 0.3305,2.29813 1.59548,3.32672 4.92578,4.00391 9.11879,1.85423 8.85156,0.3292 8.85156,50.68555 v 45.40429 l -3.14648,2.54883 c -1.7313,1.40188 -4.88131,2.54883 -7,2.54883 -3.2203,0 -3.85352,0.54562 -3.85352,3.33203 v 3.33399 h 28.66602 28.66797 v -3.33399 c 0,-2.78641 -0.63332,-3.33398 -3.85352,-3.33398 -2.1187,0 -5.2687,-1.14475 -7,-2.54492 -3.0144,-2.43802 -3.16403,-3.38426 -3.55273,-22.33399 l -0.40625,-19.78711 19.07226,25.6543 19.07227,25.65625 17.66797,0.0117 17.66601,0.0117 v -3.17774 c 0,-1.9926 -0.93863,-3.42355 -2.51562,-3.83594 -3.7463,-0.97967 -39.49892,-48.97827 -36.51172,-49.01757 4.15819,-0.0548 15.34302,-7.13776 19.54492,-12.37696 3.4495,-4.30097 4.14913,-6.4538 4.58203,-14.11523 0.6284,-11.12059 -2.57929,-18.43722 -10.33008,-23.56641 -10.33969,-6.84251 -15.32511,-7.59746 -54.54687,-8.25195 z m 52.67773,8.06054 c 13.09459,0 18.77684,6.90242 18.83984,22.88868 0.0462,11.737 -1.93568,17.28972 -7.30078,20.45898 -2.1411,1.2648 -7.81488,2.77046 -12.60937,3.34766 l -8.71875,1.05078 v -22.26563 c 0,-25.21381 0.10307,-25.48047 9.78906,-25.48047 z" />
        <path
           id="path450"
           style="fill:#000000;stroke-width:1.33333"
           d="m -667.88281,258.41602 c -10.5028,0.0461 -15.10266,2.23152 -17.94727,7.73242 -3.61335,6.98745 -1.21932,16.70537 4.92578,19.99414 2.7912,1.4938 2.77005,1.56288 -1.21484,4.08594 -5.15875,3.26626 -6.52479,8.27735 -3.50977,12.8789 1.65465,2.52532 1.82878,3.6046 0.64258,4 -0.89319,0.29773 -2.20082,2.05869 -2.90625,3.91406 -1.89338,4.97997 1.41745,9.21756 8.42969,10.78711 l 5.69141,1.27539 -7.09375,0.14258 c -6.54667,0.1318 -7.05929,0.37255 -6.66602,3.125 0.33004,2.30992 1.57441,3.16736 5.51758,3.80469 9.89833,1.59986 9.57422,-0.10737 9.57422,50.71094 v 45.40429 l -3.14649,2.54883 c -1.73126,1.40188 -5.18063,2.54883 -7.66601,2.54883 -3.93133,0 -4.51953,0.43215 -4.51953,3.33203 v 3.33399 h 60.66601 60.66602 v -3.33399 c 0,-3.04926 -0.49801,-3.33203 -5.85157,-3.33203 -3.77182,0 -6.97127,-0.90603 -9,-2.54687 -3.0359,-2.4555 -3.16227,-3.30778 -3.57226,-24 l -0.42578,-21.45313 h 4.22461 c 10.0259,0 17.46831,7.83219 19.5332,20.55664 0.56782,3.49904 1.44163,4.77539 3.26758,4.77539 2.35678,0 2.49219,-1.55722 2.49219,-28.66601 0,-26.92445 -0.14995,-28.66602 -2.44922,-28.66602 -1.84425,0 -2.97221,1.88986 -4.57813,7.66602 -2.77952,9.99737 -7.90669,15.05684 -16.20508,15.99218 l -6.10156,0.6875 v -19.91796 c 0,-24.75535 -0.0254,-24.70726 13.14063,-24.58399 18.81345,0.17614 27.4328,5.19098 31.87304,18.54688 1.92858,5.80097 3.21638,7.71033 5.42383,8.03515 2.82126,0.41514 2.89649,0.0521 2.89649,-14.1543 v -14.58007 l 5.46289,0.99804 c 10.26313,1.87675 9.86914,-0.14961 9.86914,50.8086 v 45.40429 l -3.14649,2.54883 c -1.73126,1.40188 -5.18063,2.54883 -7.66601,2.54883 -3.93717,0 -4.51953,0.43129 -4.51953,3.34961 v 3.34961 l 49.65625,-0.34961 49.65625,-0.34961 2.89453,-14.66797 c 3.72587,-18.87335 3.77812,-20.66601 0.60742,-20.66601 -1.6464,0 -4.35312,2.93066 -7.82422,8.46679 -8.92267,14.2307 -18.64763,19.54133 -36.48437,19.92774 -14.86887,0.32212 -14.50586,0.95128 -14.50586,-25.22461 v -21.83594 h 4.04296 c 10.32177,0 16.98827,6.29181 20.00977,18.88672 1.1758,4.90111 2.15338,6.44531 4.08008,6.44531 2.4107,0 2.5332,-1.38988 2.5332,-28.66601 0,-27.42622 -0.11149,-28.66602 -2.57226,-28.66602 -1.9537,0 -3.0645,1.68296 -4.6211,7 -1.1271,3.85 -3.04873,8.41318 -4.26953,10.14063 -2.6405,3.73637 -9.54166,6.85937 -15.16016,6.85937 h -4.04296 v -21.25586 c 0,-14.15279 0.49562,-21.56003 1.48242,-22.16992 2.2935,-1.41747 21.99152,-0.81888 28.21679,0.85742 7.3379,1.97587 13.60446,8.79321 16.48633,17.93555 1.6776,5.32181 2.95781,7.29883 4.72461,7.29883 2.2177,0 2.42188,-1.47016 2.42188,-17.33399 v -17.33203 l -115,-0.14648 c -68.30353,-0.0868 -112.6286,-0.61157 -109.16016,-1.29297 10.78142,-2.11811 14.212,-6.23472 13.25977,-15.91211 -0.67676,-6.8778 -5.55223,-9.62879 -18.375,-10.3711 -9.12397,-0.52817 -10.72461,-0.97106 -10.72461,-2.97265 0,-2.92885 2.60214,-3.97266 9.91211,-3.97266 3.74506,0 7.24467,-1.05121 10.22461,-3.07226 4.33684,-2.94139 4.52957,-3.42451 4.51757,-11.33203 -0.0111,-7.00081 0.34544,-8.26172 2.33399,-8.26172 1.58532,0 2.3457,-1.03385 2.3457,-3.1875 0,-3.10795 -0.36181,-3.21041 -14.51172,-4.13477 -3.10335,-0.20273 -5.8419,-0.30752 -8.26562,-0.29687 z m -0.55664,3.65625 c 1.21214,0.0465 2.56304,0.9802 3.92578,2.92578 2.34602,3.34937 2.71859,11.17223 0.77539,16.2832 -1.55857,4.09938 -5.99264,4.567 -7.98633,0.8418 -0.75914,-1.41845 -1.38086,-5.35748 -1.38086,-8.75391 0,-7.20111 1.99931,-11.39922 4.66602,-11.29687 z m 5.75195,46.8125 c 5.31592,-0.0296 7.13214,0.47176 8.33398,1.91992 1.58652,1.91163 1.41796,2.53586 -1.27539,4.71679 -2.22976,1.80556 -5.24628,2.51368 -10.70312,2.51368 -8.41474,0 -12.65393,-2.1677 -11.9043,-6.08789 0.43142,-2.25618 1.84115,-2.62698 11.27344,-2.96289 1.63499,-0.0582 3.04864,-0.0928 4.27539,-0.0996 z m 36.79102,20.88867 c 5.50306,0.0877 8.13779,0.94052 10.125,2.92773 2.56186,2.56186 2.66601,4.44555 2.66601,47.9043 v 45.23633 l -3.51367,2.76367 c -2.72435,2.14297 -5.43224,2.76367 -12.06055,2.76367 -7.2973,0 -9.02625,-0.47938 -11.82031,-3.27344 l -3.27148,-3.27343 v -43.98438 c 0,-43.74017 0.0168,-44.00635 3,-47.31641 2.12427,-2.35702 4.55553,-3.40585 8.33203,-3.59375 2.5539,-0.12707 4.70861,-0.18353 6.54297,-0.15429 z" />
        <path
           style="fill:#000000;stroke-width:1.33333"
           d="m -789.10516,434.70201 c 0,-2.81481 0.62222,-3.33333 4,-3.33333 4.96176,0 8.92704,-3.80155 10.00541,-9.59229 0.45145,-2.42424 0.63492,-22.83718 0.40771,-45.36208 -0.45738,-45.34185 -0.26942,-44.40393 -9.26564,-46.23324 -3.25292,-0.66145 -4.59758,-1.71971 -4.90688,-3.86176 l -0.42607,-2.95063 h 29.5188 29.5188 l -0.42607,3 c -0.34698,2.44315 -1.51348,3.14511 -6.28437,3.78178 -3.30127,0.44053 -6.60264,1.79968 -7.56359,3.11385 -2.6926,3.68236 -3.48666,18.70681 -3.01561,57.05905 0.51691,42.08601 -0.10747,40.31504 14.16621,40.18435 18.67252,-0.17099 30.39107,-7.58388 38.18312,-24.1538 3.14231,-6.68218 4.51931,-8.31856 7,-8.31856 1.6985,0 3.08563,0.15 3.08251,0.33333 -0.003,0.18333 -1.50312,8.70236 -3.33333,18.93119 -1.83022,10.22881 -3.32767,19.07881 -3.32767,19.66666 0,0.58784 -21.9,1.06882 -48.66667,1.06882 h -48.66666 z"
           id="path448" />
      </g>
    </g>
  </g>
</svg>
