<?xml version="1.0" encoding="UTF-8" standalone="no"?>
<!-- Generator: Adobe Illustrator 15.0.0, SVG Export Plug-In . SVG Version: 6.00 Build 0)  -->

<svg
   xmlns:dc="http://purl.org/dc/elements/1.1/"
   xmlns:cc="http://creativecommons.org/ns#"
   xmlns:rdf="http://www.w3.org/1999/02/22-rdf-syntax-ns#"
   xmlns:svg="http://www.w3.org/2000/svg"
   xmlns="http://www.w3.org/2000/svg"
   xmlns:xlink="http://www.w3.org/1999/xlink"
   xmlns:sodipodi="http://sodipodi.sourceforge.net/DTD/sodipodi-0.dtd"
   xmlns:inkscape="http://www.inkscape.org/namespaces/inkscape"
   version="1.1"
   x="0px"
   y="0px"
   width="319.37115"
   height="211.327"
   viewBox="0 0 319.37114 211.32699"
   enable-background="new 0 0 595.275 841.89"
   xml:space="preserve"
   id="svg2"
   inkscape:version="0.92.4 (33fec40, 2019-01-16)"
   sodipodi:docname="logo_gisce.svg"><metadata
   id="metadata337"><rdf:RDF><cc:Work
       rdf:about=""><dc:format>image/svg+xml</dc:format><dc:type
         rdf:resource="http://purl.org/dc/dcmitype/StillImage" /><dc:title></dc:title></cc:Work></rdf:RDF></metadata><defs
   id="defs335"><inkscape:perspective
     sodipodi:type="inkscape:persp3d"
     inkscape:vp_x="0 : 420.945 : 1"
     inkscape:vp_y="0 : 999.99999 : 0"
     inkscape:vp_z="595.27501 : 420.945 : 1"
     inkscape:persp3d-origin="297.63751 : 280.63 : 1"
     id="perspective339" /><linearGradient
     inkscape:collect="always"
     xlink:href="#SVGID_4_"
     id="linearGradient3223"
     gradientUnits="userSpaceOnUse"
     x1="285.98291"
     y1="409.15671"
     x2="308.99521"
     y2="414.89429" /><inkscape:perspective
     id="perspective3153"
     inkscape:persp3d-origin="0.49999999 : 0.33333333 : 1"
     inkscape:vp_z="0.99999999 : 0.49999999 : 1"
     inkscape:vp_y="0 : 999.99999 : 0"
     inkscape:vp_x="0 : 0.49999999 : 1"
     sodipodi:type="inkscape:persp3d" /><linearGradient
     id="SVGID_1_"
     gradientUnits="userSpaceOnUse"
     x1="285.85641"
     y1="412.0376"
     x2="309.0947"
     y2="412.0376"><stop
       offset="0"
       style="stop-color:#80A3DD"
       id="stop286" /><stop
       offset="1"
       style="stop-color:#FFFFFF"
       id="stop288" /></linearGradient><linearGradient
     id="SVGID_2_"
     gradientUnits="userSpaceOnUse"
     x1="285.89651"
     y1="412.03809"
     x2="309.05469"
     y2="412.03809"><stop
       offset="0"
       style="stop-color:#847F77"
       id="stop293" /><stop
       offset="1"
       style="stop-color:#FFFFFF"
       id="stop295" /></linearGradient><linearGradient
     id="SVGID_4_"
     gradientUnits="userSpaceOnUse"
     x1="285.98291"
     y1="409.15671"
     x2="308.99521"
     y2="414.89429"><stop
       offset="0"
       style="stop-color:#0248BB"
       id="stop305" /><stop
       offset="1"
       style="stop-color:#7CA0DC"
       id="stop307" /></linearGradient><linearGradient
     id="linearGradient3166"
     gradientUnits="userSpaceOnUse"
     x1="285.98291"
     y1="409.15671"
     x2="308.99521"
     y2="414.89429"><stop
       offset="0"
       style="stop-color:#0248BB"
       id="stop3168" /><stop
       offset="1"
       style="stop-color:#7CA0DC"
       id="stop3170" /></linearGradient><linearGradient
     id="SVGID_6_"
     gradientUnits="userSpaceOnUse"
     x1="1974.9834"
     y1="-1176.0747"
     x2="2004.1244"
     y2="-1168.2664"
     gradientTransform="translate(-1692,1584)"><stop
       offset="0"
       style="stop-color:#0047BA"
       id="stop315" /><stop
       offset="1"
       style="stop-color:#89AADF"
       id="stop317" /></linearGradient><clipPath
     id="SVGID_5_"><use
       height="1052.3622"
       width="744.09448"
       y="0"
       x="0"
       style="overflow:visible"
       xlink:href="#SVGID_3_"
       overflow="visible"
       id="use312" /></clipPath><linearGradient
     inkscape:collect="always"
     xlink:href="#SVGID_1_"
     id="linearGradient3441"
     gradientUnits="userSpaceOnUse"
     x1="285.85641"
     y1="412.0376"
     x2="309.0947"
     y2="412.0376" /><linearGradient
     inkscape:collect="always"
     xlink:href="#SVGID_2_"
     id="linearGradient3443"
     gradientUnits="userSpaceOnUse"
     x1="285.89651"
     y1="412.03809"
     x2="309.05469"
     y2="412.03809" /><linearGradient
     inkscape:collect="always"
     xlink:href="#SVGID_4_"
     id="linearGradient3445"
     gradientUnits="userSpaceOnUse"
     x1="285.98291"
     y1="409.15671"
     x2="308.99521"
     y2="414.89429" /><linearGradient
     inkscape:collect="always"
     xlink:href="#SVGID_6_"
     id="linearGradient3447"
     gradientUnits="userSpaceOnUse"
     gradientTransform="translate(-1692,1584)"
     x1="1974.9834"
     y1="-1176.0747"
     x2="2004.1244"
     y2="-1168.2664" /><linearGradient
     inkscape:collect="always"
     xlink:href="#SVGID_1_"
     id="linearGradient3478"
     gradientUnits="userSpaceOnUse"
     x1="285.85641"
     y1="412.0376"
     x2="309.0947"
     y2="412.0376" /><linearGradient
     inkscape:collect="always"
     xlink:href="#SVGID_2_"
     id="linearGradient3480"
     gradientUnits="userSpaceOnUse"
     x1="285.89651"
     y1="412.03809"
     x2="309.05469"
     y2="412.03809" /><linearGradient
     inkscape:collect="always"
     xlink:href="#SVGID_4_"
     id="linearGradient3482"
     gradientUnits="userSpaceOnUse"
     x1="285.98291"
     y1="409.15671"
     x2="308.99521"
     y2="414.89429" /><linearGradient
     inkscape:collect="always"
     xlink:href="#SVGID_6_"
     id="linearGradient3484"
     gradientUnits="userSpaceOnUse"
     gradientTransform="translate(-1692,1584)"
     x1="1974.9834"
     y1="-1176.0747"
     x2="2004.1244"
     y2="-1168.2664" /></defs><sodipodi:namedview
   pagecolor="#ffffff"
   bordercolor="#666666"
   borderopacity="1"
   objecttolerance="10000"
   gridtolerance="10"
   guidetolerance="10"
   inkscape:pageopacity="0"
   inkscape:pageshadow="2"
   inkscape:window-width="1865"
   inkscape:window-height="1025"
   id="namedview333"
   showgrid="false"
   inkscape:zoom="1.1212866"
   inkscape:cx="196.4416"
   inkscape:cy="23.39145"
   inkscape:window-x="55"
   inkscape:window-y="27"
   inkscape:window-maximized="1"
   inkscape:current-layer="svg2"
   fit-margin-top="15"
   fit-margin-left="15"
   fit-margin-right="15"
   fit-margin-bottom="15" />
<symbol
   id="Bush_Left"
   viewBox="-43.3 -24.308 86.601 48.615"
   transform="translate(-128.37634,-178.23188)">
	<g
   id="g5">
		<g
   id="g7">
			<path
   d="m -33.888,-3.511 c 8.299,8.895 13.237,21.557 13.237,21.557 -3.489,-10.506 -7.56,-15.73 -14.272,-24.22 z"
   id="path9"
   inkscape:connector-curvature="0"
   style="fill:#009640" />
			<path
   d="m -30.487,3.161 c 0.297,2.265 2.376,11.441 2.376,11.441 l -2.153,-5.593 c -0.479,-2.881 0.761,-5.555 0.447,-7.952 z"
   id="path11"
   inkscape:connector-curvature="0"
   style="fill:#009640" />
			<path
   d="m -27.667,8.564 c 0.297,2.266 1.726,9.829 1.726,9.829 l -0.53,-3.791 c 0,-2.44 -0.211,-5.744 -0.526,-8.142 z"
   id="path13"
   inkscape:connector-curvature="0"
   style="fill:#009640" />
			<path
   d="m -24.188,13.377 c 0.216,1.381 3.051,6.613 3.051,6.613 l -2.181,-2.933 c 0,-1.487 -0.154,-3.501 -0.382,-4.963 z"
   id="path15"
   inkscape:connector-curvature="0"
   style="fill:#009640" />
			<path
   d="m -21.167,18.075 c 0.602,1.176 2.76,6.232 2.76,6.232 l -1.281,-3.51 c -0.313,-1.289 -0.958,-3.02 -1.595,-4.265 z"
   id="path17"
   inkscape:connector-curvature="0"
   style="fill:#009640" />
			<path
   d="m -26.043,10.332 c 0.297,2.266 1.726,9.828 1.726,9.828 l -1.161,-4.837 c 0,-2.441 0.42,-4.697 0.105,-7.095 z"
   id="path19"
   inkscape:connector-curvature="0"
   style="fill:#009640" />
			<path
   d="m -24.522,3.487 c 1.421,0.866 6.495,3.396 6.495,3.396 l -3.35,-2.196 C -23.151,3.523 -26.7,4.061 -28.204,3.144 Z"
   id="path21"
   inkscape:connector-curvature="0"
   style="fill:#009640" />
			<path
   d="m -21.855,6.884 c 1.898,1.261 6.128,5.077 6.128,5.077 l -3.163,-2.14 c -2.187,-1.069 -5.052,-2.709 -7.062,-4.043 z"
   id="path23"
   inkscape:connector-curvature="0"
   style="fill:#009640" />
			<path
   d="m -21.837,13.088 c 1.036,0.934 3.865,6.169 3.865,6.169 l -1.263,-3.432 c -1.244,-0.811 -2.842,-2.037 -3.939,-3.025 z"
   id="path25"
   inkscape:connector-curvature="0"
   style="fill:#009640" />
			<path
   d="m -23.271,9.473 c 1.577,1.009 5.962,5.851 5.962,5.851 l -2.632,-3.877 c -1.816,-0.856 -3.47,-1.16 -5.14,-2.229 z"
   id="path27"
   inkscape:connector-curvature="0"
   style="fill:#009640" />
			<path
   d="m -32.966,0.366 c 0.297,2.265 1.6,12.736 1.6,12.736 l -1.376,-6.888 c -0.479,-2.881 0.762,-5.555 0.447,-7.953 z"
   id="path29"
   inkscape:connector-curvature="0"
   style="fill:#009640" />
			<path
   d="m -34.966,-1.264 c 0.297,2.266 1.599,12.736 1.599,12.736 l -1.376,-6.887 c -0.479,-2.882 0.761,-5.556 0.447,-7.953 z"
   id="path31"
   inkscape:connector-curvature="0"
   style="fill:#009640" />
			<path
   d="m -29.402,-0.557 c 1.549,0.605 10.179,4.284 10.179,4.284 l -4.82,-3.121 c -1.949,-0.838 -5.362,-0.453 -7.002,-1.095 z"
   id="path33"
   inkscape:connector-curvature="0"
   style="fill:#009640" />
			<path
   d="m -29.97,-3.318 c 1.727,0.743 9.727,4.106 9.727,4.106 l -5.13,-2.746 c -2.171,-1.049 -4.612,-0.291 -6.44,-1.078 z"
   id="path35"
   inkscape:connector-curvature="0"
   style="fill:#009640" />
		</g>
		<g
   id="g37">
			<path
   d="m -41.108,-9.821 c 17.332,-2.827 35.766,-10.603 35.766,-10.603 -13.469,6.661 -22.757,8.744 -37.958,12.079 z"
   id="path39"
   inkscape:connector-curvature="0"
   style="fill:#009640" />
			<path
   d="m -29.852,-13.562 c 2.399,-1.676 13.091,-8.003 13.091,-8.003 l -7.499,3.39 c -3.164,2.079 -4.231,4.895 -6.771,6.668 z"
   id="path41"
   inkscape:connector-curvature="0"
   style="fill:#009640" />
			<path
   d="m -21.787,-16.448 c 2.399,-1.676 10.895,-7.041 10.895,-7.041 l -4.051,2.787 c -2.23,1.975 -5.483,4.535 -8.022,6.309 z"
   id="path43"
   inkscape:connector-curvature="0"
   style="fill:#009640" />
			<path
   d="m -13.531,-18.509 c 1.501,-1.004 9.426,-3.744 9.426,-3.744 l -5.098,1.225 c -1.36,1.204 -3.371,2.751 -4.96,3.813 z"
   id="path45"
   inkscape:connector-curvature="0"
   style="fill:#009640" />
			<path
   d="m -5.888,-20.719 c 1.742,-0.635 8.756,-3.589 8.756,-3.589 l -4.628,2.165 c -1.525,0.878 -3.821,1.938 -5.666,2.609 z"
   id="path47"
   inkscape:connector-curvature="0"
   style="fill:#009640" />
			<path
   d="m -18.371,-17.022 c 2.399,-1.676 10.895,-7.041 10.895,-7.041 l -5.708,3.301 c -2.23,1.975 -3.826,4.021 -6.366,5.795 z"
   id="path49"
   inkscape:connector-curvature="0"
   style="fill:#009640" />
			<path
   d="m -22.937,-10.686 c 2.367,0.047 10.307,0.671 10.307,0.671 l -5.722,0.014 c -3.032,0.008 -6.476,-2.295 -8.982,-2.345 z"
   id="path51"
   inkscape:connector-curvature="0"
   style="fill:#009640" />
			<path
   d="m -16.876,-12.029 c 3.258,-0.021 11.436,-0.882 11.436,-0.882 l -5.462,0.066 c -3.403,-0.285 -8.078,-0.468 -11.526,-0.445 z"
   id="path53"
   inkscape:connector-curvature="0"
   style="fill:#009640" />
			<path
   d="m -11.188,-17.037 c 2.003,-0.21 9.925,-2.956 9.925,-2.956 l -4.537,2.111 c -2.12,0.001 -5.014,0.151 -7.134,0.374 z"
   id="path55"
   inkscape:connector-curvature="0"
   style="fill:#009640" />
			<path
   d="m -16.082,-14.868 c 2.671,0.014 11.958,-1.595 11.958,-1.595 l -6.461,1.751 c -2.797,-0.263 -4.908,-0.889 -7.736,-0.902 z"
   id="path57"
   inkscape:connector-curvature="0"
   style="fill:#009640" />
			<path
   d="m -35.155,-12.604 c 2.399,-1.677 13.411,-9.46 13.411,-9.46 l -7.819,4.846 c -3.163,2.079 -4.231,4.895 -6.771,6.668 z"
   id="path59"
   inkscape:connector-curvature="0"
   style="fill:#009640" />
			<path
   d="m -38.862,-12.34 c 2.399,-1.676 13.412,-9.459 13.412,-9.459 l -7.819,4.846 c -3.164,2.079 -4.231,4.894 -6.771,6.668 z"
   id="path61"
   inkscape:connector-curvature="0"
   style="fill:#009640" />
			<path
   d="m -32.045,-9.982 c 2.271,0.325 15.205,1.892 15.205,1.892 l -8.198,-0.013 c -2.927,-0.348 -6.361,-2.455 -8.766,-2.8 z"
   id="path63"
   inkscape:connector-curvature="0"
   style="fill:#009640" />
			<path
   d="m -35.199,-8.048 c 2.595,0.308 14.541,1.798 14.541,1.798 l -8.2,-0.479 c -3.366,-0.294 -5.381,-2.191 -8.127,-2.518 z"
   id="path65"
   inkscape:connector-curvature="0"
   style="fill:#009640" />
		</g>
		<g
   id="g67">
			<path
   d="m -20.024,-4.793 c 13.512,-1.991 27.731,-7.055 27.731,-7.055 -10.5,4.69 -17.742,6.158 -29.593,8.506 z"
   id="path69"
   inkscape:connector-curvature="0"
   style="fill:#009640" />
			<path
   d="m -11.401,-7.015 c 1.871,-1.181 10.206,-5.637 10.206,-5.637 l -5.846,2.388 c -2.467,1.464 -3.3,3.447 -5.279,4.696 z"
   id="path71"
   inkscape:connector-curvature="0"
   style="fill:#009640" />
			<path
   d="m -5.113,-9.048 c 1.87,-1.18 8.494,-4.958 8.494,-4.958 l -3.158,1.963 c -1.739,1.39 -4.275,3.192 -6.255,4.442 z"
   id="path73"
   inkscape:connector-curvature="0"
   style="fill:#009640" />
			<path
   d="m 1.323,-10.499 c 1.17,-0.707 7.349,-2.637 7.349,-2.637 l -3.975,0.862 c -1.06,0.848 -2.627,1.938 -3.867,2.686 z"
   id="path75"
   inkscape:connector-curvature="0"
   style="fill:#009640" />
			<path
   d="m 7.281,-12.056 c 1.358,-0.447 6.827,-2.527 6.827,-2.527 l -3.608,1.524 c -1.189,0.618 -2.979,1.365 -4.417,1.838 z"
   id="path77"
   inkscape:connector-curvature="0"
   style="fill:#009640" />
			<path
   d="m -2.451,-9.452 c 1.871,-1.181 8.494,-4.959 8.494,-4.959 l -4.45,2.325 c -1.739,1.391 -2.982,2.831 -4.962,4.08 z"
   id="path79"
   inkscape:connector-curvature="0"
   style="fill:#009640" />
			<path
   d="m -6.011,-4.99 c 1.846,0.033 8.036,0.473 8.036,0.473 l -4.46,0.01 c -2.364,0.006 -5.049,-1.616 -7.002,-1.651 z"
   id="path81"
   inkscape:connector-curvature="0"
   style="fill:#009640" />
			<path
   d="m -1.285,-5.937 c 2.54,-0.015 8.916,-0.62 8.916,-0.62 l -4.259,0.046 c -2.653,-0.2 -6.298,-0.329 -8.986,-0.313 z"
   id="path83"
   inkscape:connector-curvature="0"
   style="fill:#009640" />
			<path
   d="m 3.15,-9.463 c 1.562,-0.148 7.737,-2.082 7.737,-2.082 l -3.537,1.487 c -1.653,10e-4 -3.909,0.106 -5.562,0.263 z"
   id="path85"
   inkscape:connector-curvature="0"
   style="fill:#009640" />
			<path
   d="m -0.666,-7.936 c 2.083,0.01 9.323,-1.123 9.323,-1.123 L 3.62,-7.825 C 1.439,-8.011 -0.207,-8.451 -2.411,-8.461 Z"
   id="path87"
   inkscape:connector-curvature="0"
   style="fill:#009640" />
			<path
   d="m -15.536,-6.342 c 1.871,-1.18 10.456,-6.661 10.456,-6.661 l -6.096,3.413 c -2.466,1.463 -3.299,3.445 -5.278,4.695 z"
   id="path89"
   inkscape:connector-curvature="0"
   style="fill:#009640" />
			<path
   d="m -18.426,-6.154 c 1.87,-1.181 10.456,-6.662 10.456,-6.662 l -6.096,3.413 c -2.466,1.464 -3.299,3.446 -5.279,4.695 z"
   id="path91"
   inkscape:connector-curvature="0"
   style="fill:#009640" />
			<path
   d="m -13.112,-4.495 c 1.771,0.229 11.854,1.332 11.854,1.332 L -7.65,-3.172 c -2.282,-0.245 -4.959,-1.729 -6.834,-1.972 z"
   id="path93"
   inkscape:connector-curvature="0"
   style="fill:#009640" />
			<path
   d="m -15.57,-3.133 c 2.022,0.217 11.336,1.267 11.336,1.267 l -6.393,-0.338 c -2.625,-0.207 -4.195,-1.543 -6.336,-1.772 z"
   id="path95"
   inkscape:connector-curvature="0"
   style="fill:#009640" />
		</g>
		<g
   id="g97">
			<path
   d="m 1.652,-2.056 c 12.235,-1.712 25.111,-6.067 25.111,-6.067 -9.508,4.034 -16.065,5.297 -26.796,7.316 z"
   id="path99"
   inkscape:connector-curvature="0"
   style="fill:#009640" />
			<path
   d="m 9.46,-3.967 c 1.694,-1.015 9.241,-4.848 9.241,-4.848 l -5.293,2.054 c -2.233,1.259 -2.987,2.964 -4.78,4.039 z"
   id="path101"
   inkscape:connector-curvature="0"
   style="fill:#009640" />
			<path
   d="m 15.154,-5.715 c 1.694,-1.016 7.691,-4.266 7.691,-4.266 l -2.859,1.688 c -1.575,1.196 -3.871,2.747 -5.664,3.821 z"
   id="path103"
   inkscape:connector-curvature="0"
   style="fill:#009640" />
			<path
   d="m 20.982,-6.964 c 1.06,-0.607 6.654,-2.268 6.654,-2.268 l -3.598,0.742 c -0.96,0.729 -2.379,1.667 -3.501,2.311 z"
   id="path105"
   inkscape:connector-curvature="0"
   style="fill:#009640" />
			<path
   d="m 26.378,-8.303 c 1.23,-0.385 6.182,-2.174 6.182,-2.174 l -3.268,1.312 c -1.076,0.532 -2.697,1.174 -4,1.581 z"
   id="path107"
   inkscape:connector-curvature="0"
   style="fill:#009640" />
			<path
   d="m 17.565,-6.063 c 1.694,-1.015 7.691,-4.266 7.691,-4.266 l -4.029,2 c -1.575,1.196 -2.701,2.436 -4.494,3.511 z"
   id="path109"
   inkscape:connector-curvature="0"
   style="fill:#009640" />
			<path
   d="m 14.342,-2.225 c 1.671,0.028 7.276,0.406 7.276,0.406 l -4.039,0.009 c -2.141,0.005 -4.572,-1.39 -6.341,-1.42 z"
   id="path111"
   inkscape:connector-curvature="0"
   style="fill:#009640" />
			<path
   d="m 18.621,-3.038 c 2.3,-0.013 8.073,-0.534 8.073,-0.534 l -3.856,0.04 c -2.402,-0.173 -5.703,-0.283 -8.137,-0.271 z"
   id="path113"
   inkscape:connector-curvature="0"
   style="fill:#009640" />
			<path
   d="m 22.637,-6.072 c 1.414,-0.127 7.006,-1.791 7.006,-1.791 l -3.204,1.279 c -1.496,10e-4 -3.539,0.092 -5.036,0.227 z"
   id="path115"
   inkscape:connector-curvature="0"
   style="fill:#009640" />
			<path
   d="m 19.182,-4.758 c 1.886,0.008 8.442,-0.966 8.442,-0.966 l -4.562,1.06 C 21.087,-4.822 19.597,-5.202 17.601,-5.21 Z"
   id="path117"
   inkscape:connector-curvature="0"
   style="fill:#009640" />
			<path
   d="m 5.717,-3.387 c 1.694,-1.016 9.468,-5.73 9.468,-5.73 l -5.52,2.936 c -2.233,1.259 -2.987,2.964 -4.78,4.039 z"
   id="path119"
   inkscape:connector-curvature="0"
   style="fill:#009640" />
			<path
   d="m 3.1,-3.227 c 1.694,-1.015 9.468,-5.73 9.468,-5.73 l -5.52,2.936 c -2.233,1.26 -2.987,2.965 -4.78,4.04 z"
   id="path121"
   inkscape:connector-curvature="0"
   style="fill:#009640" />
			<path
   d="m 7.912,-1.799 c 1.604,0.197 10.733,1.146 10.733,1.146 L 12.858,-0.66 C 10.792,-0.871 8.368,-2.147 6.67,-2.356 Z"
   id="path123"
   inkscape:connector-curvature="0"
   style="fill:#009640" />
			<path
   d="M 5.686,-0.627 C 7.518,-0.44 15.951,0.462 15.951,0.462 L 10.162,0.172 C 7.786,-0.006 6.364,-1.155 4.425,-1.353 Z"
   id="path125"
   inkscape:connector-curvature="0"
   style="fill:#009640" />
		</g>
		<g
   id="g127">
			<path
   d="M 14.001,2.836 C 25.08,1.363 36.739,-2.384 36.739,-2.384 28.13,1.087 22.192,2.173 12.475,3.91 Z"
   id="path129"
   inkscape:connector-curvature="0"
   style="fill:#009640" />
			<path
   d="m 21.072,1.192 c 1.534,-0.873 8.368,-4.171 8.368,-4.171 l -4.793,1.767 c -2.022,1.083 -2.705,2.551 -4.328,3.475 z"
   id="path131"
   inkscape:connector-curvature="0"
   style="fill:#009640" />
			<path
   d="m 26.228,-0.312 c 1.534,-0.874 6.964,-3.67 6.964,-3.67 l -2.589,1.452 c -1.426,1.029 -3.505,2.363 -5.128,3.288 z"
   id="path133"
   inkscape:connector-curvature="0"
   style="fill:#009640" />
			<path
   d="m 31.505,-1.386 c 0.96,-0.523 6.026,-1.951 6.026,-1.951 l -3.259,0.638 c -0.869,0.628 -2.154,1.434 -3.17,1.987 z"
   id="path135"
   inkscape:connector-curvature="0"
   style="fill:#009640" />
			<path
   d="m 36.391,-2.538 c 1.114,-0.331 5.598,-1.87 5.598,-1.87 l -2.959,1.129 c -0.975,0.457 -2.442,1.009 -3.622,1.359 z"
   id="path137"
   inkscape:connector-curvature="0"
   style="fill:#009640" />
			<path
   d="m 28.411,-0.611 c 1.534,-0.873 6.964,-3.669 6.964,-3.669 l -3.649,1.72 C 30.3,-1.531 29.28,-0.465 27.657,0.46 Z"
   id="path139"
   inkscape:connector-curvature="0"
   style="fill:#009640" />
			<path
   d="m 25.492,2.69 c 1.513,0.024 6.589,0.35 6.589,0.35 L 28.423,3.047 C 26.485,3.052 24.283,1.852 22.681,1.825 Z"
   id="path141"
   inkscape:connector-curvature="0"
   style="fill:#009640" />
			<path
   d="m 29.367,1.99 c 2.083,-0.011 7.31,-0.459 7.31,-0.459 L 33.185,1.565 C 31.01,1.417 28.021,1.322 25.817,1.333 Z"
   id="path143"
   inkscape:connector-curvature="0"
   style="fill:#009640" />
			<path
   d="m 33.003,-0.619 c 1.28,-0.109 6.344,-1.54 6.344,-1.54 l -2.9,1.1 c -1.355,10e-4 -3.205,0.079 -4.56,0.195 z"
   id="path145"
   inkscape:connector-curvature="0"
   style="fill:#009640" />
			<path
   d="m 29.875,0.511 c 1.708,0.008 7.645,-0.83 7.645,-0.83 L 33.39,0.593 C 31.602,0.456 30.252,0.13 28.445,0.122 Z"
   id="path147"
   inkscape:connector-curvature="0"
   style="fill:#009640" />
			<path
   d="m 17.682,1.69 c 1.534,-0.873 8.573,-4.93 8.573,-4.93 l -4.998,2.525 C 19.235,0.369 18.552,1.836 16.929,2.76 Z"
   id="path149"
   inkscape:connector-curvature="0"
   style="fill:#009640" />
			<path
   d="m 15.313,1.829 c 1.533,-0.874 8.573,-4.93 8.573,-4.93 l -4.999,2.525 c -2.022,1.083 -2.705,2.55 -4.328,3.475 z"
   id="path151"
   inkscape:connector-curvature="0"
   style="fill:#009640" />
			<path
   d="m 19.669,3.057 c 1.452,0.17 9.72,0.986 9.72,0.986 L 24.148,4.036 C 22.277,3.855 20.082,2.757 18.544,2.577 Z"
   id="path153"
   inkscape:connector-curvature="0"
   style="fill:#009640" />
			<path
   d="m 17.654,4.065 c 1.658,0.16 9.295,0.937 9.295,0.937 L 21.707,4.753 C 19.556,4.6 18.268,3.61 16.512,3.44 Z"
   id="path155"
   inkscape:connector-curvature="0"
   style="fill:#009640" />
		</g>
		<g
   id="g157">
			<path
   d="M -16.823,0.146 C -9.209,6.411 -2.933,16.13 -2.933,16.13 -7.012,7.951 -10.858,4.172 -17.184,-1.957 Z"
   id="path159"
   inkscape:connector-curvature="0"
   style="fill:#009640" />
			<path
   d="m -12.52,5.146 c 0.525,1.819 3.334,9.083 3.334,9.083 L -11.588,9.912 C -12.335,7.609 -11.716,5.266 -12.272,3.34 Z"
   id="path161"
   inkscape:connector-curvature="0"
   style="fill:#009640" />
			<path
   d="m -9.624,9.226 c 0.525,1.82 2.619,7.842 2.619,7.842 L -7.909,14.027 C -8.226,12.026 -8.819,9.346 -9.375,7.42 Z"
   id="path163"
   inkscape:connector-curvature="0"
   style="fill:#009640" />
			<path
   d="m -6.292,12.74 c 0.347,1.105 3.232,5.044 3.232,5.044 l -2.078,-2.135 c -0.193,-1.22 -0.574,-2.851 -0.942,-4.021 z"
   id="path165"
   inkscape:connector-curvature="0"
   style="fill:#009640" />
			<path
   d="m -3.331,16.218 c 0.621,0.89 2.957,4.768 2.957,4.768 l -1.453,-2.719 c -0.411,-1.018 -1.138,-2.355 -1.795,-3.298 z"
   id="path167"
   inkscape:connector-curvature="0"
   style="fill:#009640" />
			<path
   d="m -8.131,10.474 c 0.525,1.819 2.619,7.841 2.619,7.841 l -1.532,-3.82 c -0.317,-2 -0.283,-3.9 -0.839,-5.827 z"
   id="path169"
   inkscape:connector-curvature="0"
   style="fill:#009640" />
			<path
   d="m -7.835,4.678 c 1.218,0.534 5.496,1.982 5.496,1.982 L -5.231,5.273 C -6.763,4.538 -9.455,5.416 -10.745,4.85 Z"
   id="path171"
   inkscape:connector-curvature="0"
   style="fill:#009640" />
			<path
   d="m -5.318,7.132 c 1.641,0.8 5.428,3.405 5.428,3.405 L -2.629,9.174 C -4.47,8.566 -6.913,7.576 -8.65,6.73 Z"
   id="path173"
   inkscape:connector-curvature="0"
   style="fill:#009640" />
			<path
   d="m -4.499,12.213 c 0.928,0.638 3.809,4.58 3.809,4.58 l -1.429,-2.657 c -1.073,-0.511 -2.477,-1.319 -3.458,-1.994 z"
   id="path175"
   inkscape:connector-curvature="0"
   style="fill:#009640" />
			<path
   d="m -6.085,9.428 c 1.358,0.633 5.4,4.06 5.4,4.06 L -3.236,10.635 C -4.76,10.156 -6.088,10.113 -7.526,9.443 Z"
   id="path177"
   inkscape:connector-curvature="0"
   style="fill:#009640" />
			<path
   d="m -14.812,3.16 c 0.525,1.82 2.898,10.24 2.898,10.24 l -1.965,-5.475 c -0.746,-2.302 -0.128,-4.646 -0.684,-6.572 z"
   id="path179"
   inkscape:connector-curvature="0"
   style="fill:#009640" />
			<path
   d="m -16.581,2.071 c 0.525,1.82 2.898,10.24 2.898,10.24 L -15.648,6.836 C -16.395,4.534 -15.776,2.19 -16.333,0.264 Z"
   id="path181"
   inkscape:connector-curvature="0"
   style="fill:#009640" />
			<path
   d="m -12.158,1.965 c 1.284,0.306 8.479,2.256 8.479,2.256 L -7.836,2.257 c -1.625,-0.445 -4.232,0.29 -5.592,-0.033 z"
   id="path183"
   inkscape:connector-curvature="0"
   style="fill:#009640" />
			<path
   d="m -12.959,-0.229 c 1.441,0.396 8.104,2.166 8.104,2.166 L -9.205,0.32 c -1.826,-0.593 -3.627,0.33 -5.152,-0.09 z"
   id="path185"
   inkscape:connector-curvature="0"
   style="fill:#009640" />
		</g>
		<g
   id="g187">
			<path
   d="M -1.735,1.377 C 3.281,6.61 7.115,14.385 7.115,14.385 4.747,7.917 2.253,4.807 -1.853,-0.243 Z"
   id="path189"
   inkscape:connector-curvature="0"
   style="fill:#009640" />
			<path
   d="m 1.003,5.443 c 0.254,1.415 1.776,7.109 1.776,7.109 L 1.352,9.122 C 0.972,7.327 1.569,5.584 1.3,4.086 Z"
   id="path191"
   inkscape:connector-curvature="0"
   style="fill:#009640" />
			<path
   d="m 2.798,8.724 c 0.254,1.415 1.348,6.121 1.348,6.121 L 3.703,12.478 C 3.61,10.938 3.365,8.864 3.096,7.366 Z"
   id="path193"
   inkscape:connector-curvature="0"
   style="fill:#009640" />
			<path
   d="m 4.943,11.601 c 0.174,0.861 1.972,4.033 1.972,4.033 L 5.574,13.883 C 5.517,12.945 5.354,11.682 5.169,10.77 Z"
   id="path195"
   inkscape:connector-curvature="0"
   style="fill:#009640" />
			<path
   d="m 6.825,14.427 c 0.384,0.715 1.793,3.807 1.793,3.807 L 7.762,16.078 C 7.536,15.279 7.107,14.218 6.7,13.461 Z"
   id="path197"
   inkscape:connector-curvature="0"
   style="fill:#009640" />
			<path
   d="m 3.781,9.765 c 0.254,1.415 1.348,6.121 1.348,6.121 L 4.29,12.887 C 4.197,11.348 4.347,9.906 4.078,8.408 Z"
   id="path199"
   inkscape:connector-curvature="0"
   style="fill:#009640" />
			<path
   d="m 4.377,5.378 c 0.834,0.481 3.79,1.847 3.79,1.847 L 6.195,5.992 C 5.151,5.338 3.172,5.839 2.289,5.329 Z"
   id="path201"
   inkscape:connector-curvature="0"
   style="fill:#009640" />
			<path
   d="m 6.01,7.399 c 1.118,0.709 3.647,2.924 3.647,2.924 L 7.793,9.117 C 6.52,8.542 4.843,7.639 3.659,6.888 Z"
   id="path203"
   inkscape:connector-curvature="0"
   style="fill:#009640" />
			<path
   d="m 6.257,11.312 c 0.62,0.542 2.414,3.716 2.414,3.716 L 7.828,12.92 C 7.097,12.465 6.149,11.765 5.493,11.191 Z"
   id="path205"
   inkscape:connector-curvature="0"
   style="fill:#009640" />
			<path
   d="m 5.311,9.096 c 0.927,0.565 3.583,3.42 3.583,3.42 L 7.263,10.19 C 6.207,9.733 5.263,9.617 4.282,9.018 Z"
   id="path207"
   inkscape:connector-curvature="0"
   style="fill:#009640" />
			<path
   d="m -0.5,3.793 c 0.254,1.416 1.388,7.961 1.388,7.961 L -0.151,7.473 C -0.531,5.677 0.066,3.934 -0.203,2.436 Z"
   id="path209"
   inkscape:connector-curvature="0"
   style="fill:#009640" />
			<path
   d="m -1.69,2.856 c 0.254,1.415 1.388,7.961 1.388,7.961 L -1.341,6.535 C -1.721,4.74 -1.124,2.997 -1.393,1.499 Z"
   id="path211"
   inkscape:connector-curvature="0"
   style="fill:#009640" />
			<path
   d="m 1.472,3.049 c 0.896,0.312 5.9,2.239 5.9,2.239 L 4.537,3.539 C 3.407,3.099 1.498,3.497 0.549,3.167 Z"
   id="path213"
   inkscape:connector-curvature="0"
   style="fill:#009640" />
			<path
   d="M 1.047,1.333 C 2.048,1.724 6.685,3.48 6.685,3.48 L 3.689,1.981 C 2.425,1.418 1.079,2.007 0.019,1.594 Z"
   id="path215"
   inkscape:connector-curvature="0"
   style="fill:#009640" />
		</g>
		<g
   id="g217">
			<path
   d="M 10.392,4.123 C 15.719,8.621 19.531,15.07 19.531,15.07 17.291,9.757 14.678,7.116 10.369,2.823 Z"
   id="path219"
   inkscape:connector-curvature="0"
   style="fill:#009640" />
			<path
   d="m 13.217,7.543 c 0.191,1.146 1.526,5.786 1.526,5.786 L 13.361,10.501 C 13.054,9.044 13.85,7.691 13.648,6.48 Z"
   id="path221"
   inkscape:connector-curvature="0"
   style="fill:#009640" />
			<path
   d="m 15.027,10.275 c 0.19,1.146 1.108,4.971 1.108,4.971 l -0.34,-1.917 c 0,-1.234 -0.136,-2.904 -0.338,-4.117 z"
   id="path223"
   inkscape:connector-curvature="0"
   style="fill:#009640" />
			<path
   d="m 17.261,12.709 c 0.139,0.698 1.958,3.345 1.958,3.345 L 17.82,14.571 c 0,-0.752 -0.099,-1.771 -0.246,-2.51 z"
   id="path225"
   inkscape:connector-curvature="0"
   style="fill:#009640" />
			<path
   d="m 19.2,15.085 c 0.386,0.595 1.772,3.151 1.772,3.151 L 20.15,16.462 C 19.949,15.81 19.535,14.936 19.126,14.306 Z"
   id="path227"
   inkscape:connector-curvature="0"
   style="fill:#009640" />
			<path
   d="m 16.07,11.17 c 0.19,1.145 1.108,4.97 1.108,4.97 l -0.746,-2.446 c 0,-1.234 0.27,-2.375 0.068,-3.588 z"
   id="path229"
   inkscape:connector-curvature="0"
   style="fill:#009640" />
			<path
   d="m 17.046,7.708 c 0.912,0.438 4.169,1.718 4.169,1.718 l -2.15,-1.11 C 17.926,7.727 15.648,8 14.683,7.536 Z"
   id="path231"
   inkscape:connector-curvature="0"
   style="fill:#009640" />
			<path
   d="m 18.758,9.426 c 1.219,0.638 3.934,2.567 3.934,2.567 l -2.03,-1.082 C 19.258,10.37 17.419,9.542 16.129,8.866 Z"
   id="path233"
   inkscape:connector-curvature="0"
   style="fill:#009640" />
			<path
   d="m 18.77,12.563 c 0.666,0.473 2.481,3.12 2.481,3.12 L 20.44,13.948 c -0.798,-0.41 -1.825,-1.03 -2.529,-1.53 z"
   id="path235"
   inkscape:connector-curvature="0"
   style="fill:#009640" />
			<path
   d="m 17.849,10.734 c 1.012,0.511 3.828,2.959 3.828,2.959 L 19.988,11.732 C 18.822,11.299 17.76,11.146 16.689,10.606 Z"
   id="path237"
   inkscape:connector-curvature="0"
   style="fill:#009640" />
			<path
   d="m 11.626,6.13 c 0.19,1.146 1.026,6.44 1.026,6.44 L 11.769,9.088 c -0.307,-1.457 0.489,-2.81 0.287,-4.021 z"
   id="path239"
   inkscape:connector-curvature="0"
   style="fill:#009640" />
			<path
   d="m 10.342,5.306 c 0.19,1.146 1.027,6.44 1.027,6.44 L 10.485,8.264 c -0.307,-1.457 0.489,-2.81 0.287,-4.021 z"
   id="path241"
   inkscape:connector-curvature="0"
   style="fill:#009640" />
			<path
   d="M 13.914,5.663 C 14.909,5.97 20.448,7.83 20.448,7.83 L 17.354,6.251 C 16.103,5.828 13.912,6.022 12.859,5.698 Z"
   id="path243"
   inkscape:connector-curvature="0"
   style="fill:#009640" />
			<path
   d="m 13.549,4.267 c 1.108,0.376 6.245,2.077 6.245,2.077 L 16.5,4.954 C 15.106,4.424 13.54,4.808 12.366,4.409 Z"
   id="path245"
   inkscape:connector-curvature="0"
   style="fill:#009640" />
		</g>
		<g
   id="g247">
			<path
   d="m 22.362,7.215 c 9.256,2.037 17.473,6.526 17.473,6.526 C 34.255,9.674 29.5,8.267 21.691,6.004 Z"
   id="path249"
   inkscape:connector-curvature="0"
   style="fill:#009640" />
			<path
   d="m 27.781,9.267 c 0.817,0.997 4.87,4.805 4.87,4.805 L 29.429,11.985 C 28.304,10.743 28.689,9.147 27.824,8.092 Z"
   id="path251"
   inkscape:connector-curvature="0"
   style="fill:#009640" />
			<path
   d="m 31.521,11.089 c 0.817,0.997 3.916,4.211 3.916,4.211 L 34.042,13.64 C 33.433,12.482 32.429,10.97 31.564,9.914 Z"
   id="path253"
   inkscape:connector-curvature="0"
   style="fill:#009640" />
			<path
   d="m 35.671,12.457 c 0.528,0.599 4.237,2.336 4.237,2.336 L 37.327,13.976 C 36.955,13.269 36.323,12.354 35.764,11.72 Z"
   id="path255"
   inkscape:connector-curvature="0"
   style="fill:#009640" />
			<path
   d="m 39.405,13.892 c 0.804,0.4 3.896,2.231 3.896,2.231 l -1.962,-1.328 c -0.587,-0.529 -1.566,-1.181 -2.417,-1.604 z"
   id="path257"
   inkscape:connector-curvature="0"
   style="fill:#009640" />
			<path
   d="m 33.338,11.5 c 0.817,0.997 3.916,4.211 3.916,4.211 l -2.191,-1.99 c -0.609,-1.159 -0.816,-2.34 -1.681,-3.396 z"
   id="path259"
   inkscape:connector-curvature="0"
   style="fill:#009640" />
			<path
   d="m 32.921,7.851 c 1.421,0.037 6.354,-0.098 6.354,-0.098 L 35.887,7.593 C 34.092,7.507 31.218,8.697 29.713,8.657 Z"
   id="path261"
   inkscape:connector-curvature="0"
   style="fill:#009640" />
			<path
   d="m 36.029,8.761 c 1.925,0.099 6.463,0.797 6.463,0.797 L 39.277,9.375 C 37.156,9.442 34.318,9.419 32.28,9.314 Z"
   id="path263"
   inkscape:connector-curvature="0"
   style="fill:#009640" />
			<path
   d="m 37.593,11.701 c 1.112,0.17 4.817,1.91 4.817,1.91 l -1.928,-1.297 c -1.256,-0.057 -2.918,-0.218 -4.095,-0.398 z"
   id="path265"
   inkscape:connector-curvature="0"
   style="fill:#009640" />
			<path
   d="m 35.475,10.362 c 1.589,0.064 6.515,1.207 6.515,1.207 l -3.199,-1.146 c -1.753,0.071 -3.232,0.362 -4.914,0.295 z"
   id="path267"
   inkscape:connector-curvature="0"
   style="fill:#009640" />
			<path
   d="m 24.982,8.593 c 0.817,0.997 4.534,5.624 4.534,5.624 L 26.631,11.31 C 25.506,10.069 25.89,8.473 25.026,7.418 Z"
   id="path269"
   inkscape:connector-curvature="0"
   style="fill:#009640" />
			<path
   d="m 22.879,8.346 c 0.817,0.997 4.534,5.624 4.534,5.624 L 24.528,11.064 C 23.403,9.822 23.787,8.226 22.923,7.171 Z"
   id="path271"
   inkscape:connector-curvature="0"
   style="fill:#009640" />
			<path
   d="m 27.773,7.216 c 1.465,-0.12 9.7,-0.646 9.7,-0.646 L 32.607,6.357 c -1.861,0.115 -4.66,1.196 -6.21,1.324 z"
   id="path273"
   inkscape:connector-curvature="0"
   style="fill:#009640" />
			<path
   d="M 26.603,6.055 C 28.252,5.953 35.875,5.444 35.875,5.444 L 30.84,5.49 c -2.103,0.074 -3.983,1.076 -5.729,1.185 z"
   id="path275"
   inkscape:connector-curvature="0"
   style="fill:#009640" />
		</g>
	</g>
</symbol>
<g
   id="Fondo"
   transform="translate(-128.37634,-178.23188)">
</g>
<g
   id="Guías"
   transform="translate(-128.37634,-178.23188)">
</g>
<g
   id="Primer_plano"
   transform="translate(-128.37634,-178.23188)">
</g>

<g
   id="g4303"
   transform="translate(-128.37634,-178.23188)"><g
     transform="matrix(4.3571463,0,0,4.3571463,-1008.139,-1550.363)"
     id="g283"><linearGradient
       y2="412.0376"
       x2="309.0947"
       y1="412.0376"
       x1="285.85641"
       gradientUnits="userSpaceOnUse"
       id="linearGradient3180"><stop
         id="stop3182"
         style="stop-color:#80A3DD"
         offset="0" /><stop
         id="stop3184"
         style="stop-color:#FFFFFF"
         offset="1" /></linearGradient><path
       id="path290"
       d="m 292.628,409.784 c 0,4.119 3.339,7.458 7.458,7.458 4.119,0 7.458,-3.339 7.458,-7.458 0,-4.119 -3.339,-7.458 -7.458,-7.458 -4.119,0 -7.458,3.34 -7.458,7.458 z m -6.772,2.254 c 0,-6.417 5.202,-11.62 11.619,-11.62 6.417,0 11.619,5.202 11.619,11.62 0,6.418 -5.202,11.62 -11.619,11.62 -6.417,0 -11.619,-5.203 -11.619,-11.62 z"
       style="fill:url(#linearGradient3478)"
       inkscape:connector-curvature="0" /><linearGradient
       y2="412.03809"
       x2="309.05469"
       y1="412.03809"
       x1="285.89651"
       gradientUnits="userSpaceOnUse"
       id="linearGradient3187"><stop
         id="stop3189"
         style="stop-color:#847F77"
         offset="0" /><stop
         id="stop3191"
         style="stop-color:#FFFFFF"
         offset="1" /></linearGradient><path
       id="path297"
       d="m 304.946,415.386 c 0,-4.119 -3.339,-7.458 -7.458,-7.458 -4.118,0 -7.458,3.339 -7.458,7.458 0,4.119 3.34,7.458 7.458,7.458 4.119,0 7.458,-3.339 7.458,-7.458 z m 4.109,-3.348 c 0,6.395 -5.185,11.579 -11.579,11.579 -6.394,0 -11.579,-5.184 -11.579,-11.579 0,-6.396 5.185,-11.58 11.579,-11.58 6.394,0 11.579,5.185 11.579,11.58 z"
       style="fill:url(#linearGradient3480)"
       inkscape:connector-curvature="0" /><g
       id="g299"><defs
         id="defs301"><path
           d="m 287.433,409.784 c 0,4.119 3.34,7.458 7.458,7.458 4.119,0 7.458,-3.339 7.458,-7.458 0,-4.119 -3.339,-7.458 -7.458,-7.458 -4.119,0 -7.458,3.34 -7.458,7.458 z m -1.8,2.241 c 0,-6.548 5.308,-11.856 11.855,-11.856 6.547,0 11.855,5.308 11.855,11.856 0,6.548 -5.308,11.856 -11.855,11.856 -6.547,0 -11.855,-5.308 -11.855,-11.856 z"
           id="SVGID_3_"
           inkscape:connector-curvature="0" /></defs><linearGradient
         y2="414.89429"
         x2="308.99521"
         y1="409.15671"
         x1="285.98291"
         gradientUnits="userSpaceOnUse"
         id="linearGradient3197"><stop
           id="stop3199"
           style="stop-color:#0248BB"
           offset="0" /><stop
           id="stop3201"
           style="stop-color:#7CA0DC"
           offset="1" /></linearGradient><use
         id="use309"
         overflow="visible"
         xlink:href="#SVGID_3_"
         style="overflow:visible;fill:url(#linearGradient3482)"
         x="0"
         y="0"
         width="744.09448"
         height="1052.3622" /><clipPath
         id="clipPath3204"><use
           id="use3206"
           overflow="visible"
           xlink:href="#SVGID_3_"
           style="overflow:visible"
           x="0"
           y="0"
           width="744.09448"
           height="1052.3622" /></clipPath><linearGradient
         gradientTransform="translate(-1692,1584)"
         y2="-1168.2664"
         x2="2004.1244"
         y1="-1176.0747"
         x1="1974.9834"
         gradientUnits="userSpaceOnUse"
         id="linearGradient3208"><stop
           id="stop3210"
           style="stop-color:#0047BA"
           offset="0" /><stop
           id="stop3212"
           style="stop-color:#89AADF"
           offset="1" /></linearGradient><rect
         id="rect319"
         height="24.875999"
         width="24.566999"
         clip-path="url(#SVGID_5_)"
         y="399.39099"
         x="285.271"
         style="clip-rule:evenodd;fill:url(#linearGradient3484);fill-rule:evenodd" /></g></g><g
     id="g4296"><path
       id="path323"
       d="m 205.23474,346.11543 v 5.28086 c 0,9.00186 -1.4335,15.06265 -4.3005,18.18237 -3.06307,3.32015 -9.02365,4.98022 -17.87737,4.98022 h -16.22166 c -9.65543,0 -16.04737,-1.83436 -19.15837,-5.50743 -2.867,-3.32015 -4.3005,-9.85587 -4.3005,-19.61588 0,-7.53786 0.45314,-12.99736 1.35943,-16.3698 1.159,-4.22643 3.45957,-7.24157 6.90172,-9.04979 3.4465,-1.81257 8.8145,-2.71886 16.10837,-2.71886 h 14.63129 c 7.09344,0 12.32201,0.854 15.69445,2.56636 4.77979,2.41822 7.14136,6.81458 7.08907,13.1978 h -9.20229 c 0,-2.91493 -1.403,-5.10222 -4.22207,-6.56187 -2.11322,-1.05442 -4.75365,-1.58164 -7.9213,-1.58164 l -8.90165,-0.0784 c -0.95857,0 -3.24171,0.0261 -6.86686,0.0784 -7.03679,0.1525 -11.53772,1.71236 -13.5028,4.67522 -1.45964,2.21343 -2.18728,7.06729 -2.18728,14.56158 0,5.28086 0.17428,8.80579 0.52721,10.56172 0.55336,2.71451 1.84743,4.62729 3.88658,5.72965 2.03914,1.10236 5.49436,1.66007 10.37436,1.66007 h 15.69444 c 5.37672,0 8.84937,-0.64921 10.40923,-1.95635 1.71235,-1.51193 2.56635,-4.90615 2.56635,-10.18701 h -22.33037 v -7.84722 z"
       style="clip-rule:evenodd;fill:#98948d;fill-opacity:1;fill-rule:evenodd"
       inkscape:connector-curvature="0" /><rect
       id="rect325"
       height="52.882687"
       width="8.9800787"
       y="321.67184"
       x="215.29976"
       style="clip-rule:evenodd;fill:#98948d;fill-opacity:1;fill-rule:evenodd" /><path
       id="path327"
       d="m 294.3776,359.01694 c 0,5.83422 -1.50757,9.95608 -4.52707,12.37429 -2.66222,2.10886 -6.96272,3.16765 -12.89716,3.16765 h -26.47838 c -11.61615,0 -17.40244,-5.00201 -17.35015,-15.01037 h 9.12822 c 0,4.63165 3.27222,6.94093 9.80794,6.94093 h 22.85759 c 3.172,0 5.53357,-0.427 7.09343,-1.281 2.06093,-1.159 3.09357,-3.21557 3.09357,-6.18715 0,-3.36807 -1.78643,-5.65993 -5.35493,-6.86686 -2.16114,-0.75378 -5.35493,-1.13286 -9.58136,-1.13286 -1.71236,0 -4.25258,0.0697 -7.62065,0.19172 -3.36372,0.122 -5.90394,0.18736 -7.61629,0.18736 -6.68822,0 -11.71637,-0.82786 -15.0888,-2.48793 -4.67522,-2.36158 -7.01501,-6.53572 -7.01501,-12.52244 0,-5.43336 1.61215,-9.33301 4.82772,-11.69458 2.76679,-2.01301 6.98886,-3.01515 12.67058,-3.01515 h 25.19738 c 12.42222,0 18.63116,4.98022 18.63116,14.9363 h -9.5073 c 0,-4.62729 -3.32014,-6.94094 -9.95608,-6.94094 h -23.76387 c -5.48129,0 -8.22194,2.28751 -8.22194,6.86251 0,4.78415 5.00201,7.17186 15.01037,7.17186 1.5555,0 3.88658,-0.0915 6.98015,-0.26578 3.09357,-0.17429 5.41593,-0.26579 6.98015,-0.26579 6.83636,0 12.02137,0.93243 15.53758,2.79293 4.77979,2.50972 7.16315,6.85815 7.16315,13.0453 z"
       style="clip-rule:evenodd;fill:#98948d;fill-opacity:1;fill-rule:evenodd"
       inkscape:connector-curvature="0" /><path
       id="path329"
       d="m 364.03094,357.88408 c 0,6.96272 -2.135,11.64229 -6.41372,14.04308 -3.06743,1.75157 -8.37443,2.63172 -15.9123,2.63172 h -15.61601 c -9.80793,0 -16.29573,-1.88229 -19.46773,-5.64251 -2.81471,-3.31143 -4.22207,-9.95172 -4.22207,-19.92958 0,-7.5248 0.50107,-12.97123 1.50757,-16.32623 1.20693,-4.06522 3.54236,-6.94965 7.01501,-8.64894 3.47264,-1.708 8.84936,-2.562 16.14322,-2.562 h 14.56159 c 7.38972,0 12.67058,0.90193 15.84258,2.70579 4.32665,2.40079 6.48779,6.98451 6.48779,13.74244 h -9.20229 c 0.0479,-5.23293 -4.42686,-7.84722 -13.42873,-7.84722 h -14.18251 c -7.09343,0 -11.59437,1.281 -13.50715,3.84736 -1.45529,1.96071 -2.18729,6.63593 -2.18729,14.03437 0,5.429 0.17864,9.028 0.52721,10.78829 0.50108,2.7145 1.78643,4.62729 3.84736,5.72965 2.06529,1.10671 5.53358,1.66007 10.41358,1.66007 h 15.16287 c 4.27001,0 7.28951,-0.34857 9.0498,-1.05443 2.97157,-1.159 4.42686,-3.54236 4.37457,-7.1675 h 9.20665 z"
       style="clip-rule:evenodd;fill:#98948d;fill-opacity:1;fill-rule:evenodd"
       inkscape:connector-curvature="0" /><path
       id="path331"
       d="m 424.22492,343.40092 c -0.10022,-4.92793 -0.20043,-7.62064 -0.30065,-8.07379 -0.45314,-2.61864 -2.26571,-4.3005 -5.43336,-5.05429 -2.06093,-0.50107 -6.08257,-0.75378 -12.06929,-0.75378 h -10.79265 c -7.1893,0 -11.84273,0.67535 -13.95594,2.03478 -2.61429,1.71236 -3.94322,5.65994 -3.99551,11.84708 z m 8.52258,15.53759 c 0,6.7405 -2.18729,11.14122 -6.56187,13.20215 -3.26786,1.60779 -9.78179,2.41386 -19.53744,2.41386 h -11.69458 c -7.38972,0 -12.77515,-0.63179 -16.14323,-1.88664 -3.67307,-1.35943 -6.21329,-3.87351 -7.62065,-7.54222 -1.25486,-3.36808 -1.88664,-8.74915 -1.88664,-16.14323 0,-7.94744 0.55336,-13.62915 1.66007,-17.04951 1.25486,-4.02165 3.69922,-6.78844 7.32001,-8.29601 3.46829,-1.45964 9.07593,-2.19165 16.81858,-2.19165 h 11.69458 c 8.60537,0 14.9668,1.13286 19.08866,3.39422 3.8735,2.11322 6.06079,5.40722 6.56186,9.88637 0.10022,0.90628 0.20479,3.79943 0.30065,8.67507 0,0.0523 0,0.17429 0,0.37472 v 7.32001 h -55.06998 c -0.0523,7.04114 1.20258,11.49415 3.76894,13.35029 2.013,1.45965 6.66643,2.18729 13.95593,2.18729 h 11.0933 c 6.63593,0 10.93644,-0.29629 12.89715,-0.90193 3.21993,-0.95422 4.80593,-3.21557 4.75365,-6.79279 z"
       style="clip-rule:evenodd;fill:#98948d;fill-opacity:1;fill-rule:evenodd"
       inkscape:connector-curvature="0" /></g></g></svg>