<?xml version="1.0" encoding="UTF-8" standalone="no"?>
<svg
   id="IAC_2022_COLOR"
   viewBox="0 0 500.00001 500.00001"
   version="1.1"
   sodipodi:docname="logo_iac.svg"
   inkscape:export-filename="logo_iac.png"
   inkscape:export-xdpi="195.98796"
   inkscape:export-ydpi="195.98796"
   width="500"
   height="500"
   inkscape:version="1.3 (0e150ed6c4, 2023-07-21)"
   xmlns:inkscape="http://www.inkscape.org/namespaces/inkscape"
   xmlns:sodipodi="http://sodipodi.sourceforge.net/DTD/sodipodi-0.dtd"
   xmlns="http://www.w3.org/2000/svg"
   xmlns:svg="http://www.w3.org/2000/svg">
  <sodipodi:namedview
     id="namedview76"
     pagecolor="#ffffff"
     bordercolor="#666666"
     borderopacity="1.0"
     inkscape:showpageshadow="2"
     inkscape:pageopacity="0.0"
     inkscape:pagecheckerboard="0"
     inkscape:deskcolor="#d1d1d1"
     inkscape:zoom="1.2530341"
     inkscape:cx="27.533168"
     inkscape:cy="186.34768"
     inkscape:window-width="1920"
     inkscape:window-height="1168"
     inkscape:window-x="720"
     inkscape:window-y="0"
     inkscape:window-maximized="1"
     inkscape:current-layer="IAC_2022_COLOR" />
  <defs
     id="defs1">
    <style
       id="style1">.cls-1,.cls-2{fill:#002855;}.cls-3,.cls-4{fill:#002856;}.cls-5,.cls-6{fill:#009cdd;}.cls-7{clip-rule:evenodd;}.cls-7,.cls-8,.cls-9{fill:none;}.cls-8{stroke:#fed141;stroke-miterlimit:10;}.cls-10{fill:#fed141;}.cls-10,.cls-6,.cls-11,.cls-2,.cls-4{fill-rule:evenodd;}.cls-11{fill:#fff;}.cls-9{clip-path:url(#clippath);}</style>
    <clipPath
       id="clippath">
      <path
         id="semicirculo_celeste-2"
         class="cls-7"
         d="m 122.16,122.531 v 86.172 0 c -47.332,0 -86.052,-38.907 -86.052,-86.172 0,-47.265 38.72,-86.174 86.052,-86.174 z" />
    </clipPath>
  </defs>
  <g
     id="g76"
     transform="translate(0.80650036,0.80650036)">
    <g
       id="circulo_blanco_exterior"
       transform="matrix(1.9951186,0,0,1.9951186,4.8782588,4.8782588)"
       style="stroke-width:0.501224">
      <path
         class="cls-11"
         d="M 122.49,243.847 C 55.537,243.847 1.067,189.406 1.067,122.489 1.067,55.572 55.537,1.067 122.49,1.067 c 66.953,0 121.356,54.47 121.356,121.422 0,66.952 -54.44,121.357 -121.356,121.357 z"
         id="path1"
         style="stroke-width:0.501224" />
      <path
         class="cls-3"
         d="m 122.489,1.567 c 32.179,0 62.499,12.604 85.376,35.489 22.88,22.889 35.481,53.23 35.481,85.433 0,66.641 -54.216,120.857 -120.857,120.857 C 55.848,243.346 1.567,189.13 1.567,122.489 1.567,55.848 55.812,1.567 122.489,1.567 m 0,-1 C 55.28,0.567 0.567,55.344 0.567,122.489 c 0,67.145 54.713,121.857 121.922,121.857 67.209,0 121.857,-54.713 121.857,-121.857 0,-67.144 -54.778,-121.922 -121.857,-121.922 z"
         id="path2"
         style="stroke-width:0.501224" />
    </g>
    <g
       id="circ_azul_oscuro"
       transform="matrix(1.9951186,0,0,1.9951186,4.8782588,4.8782588)"
       style="stroke-width:0.501224">
      <path
         class="cls-4"
         d="M 122.231,209.702 C 74.147,209.649 35.063,170.616 35.063,122.69 c 0,-47.926 39.084,-87.278 87.125,-87.331 48.138,0.053 87.221,39.23 87.221,87.331 0,48.101 -39.083,86.959 -87.122,87.012 v 0 c 0,0 -0.055,0 -0.055,0 z"
         id="path3"
         style="stroke-width:0.501224" />
      <path
         class="cls-3"
         d="m 122.285,36.358 v 0 c 47.537,0.054 86.123,38.728 86.123,86.332 0,47.604 -38.587,85.96 -86.123,86.012 v 0 c -0.016,0 -0.032,0 -0.048,0 -0.016,0 -0.032,0 -0.048,0 v 0 c -47.538,-0.053 -86.127,-38.601 -86.127,-86.013 0,-47.412 38.589,-86.277 86.127,-86.33 v 0 c 0.016,-0.001 0.032,0 0.048,0 0.016,0 0.032,0 0.048,0 m 0,-2 h -0.052 c 0,0 -2,0 -2,0 v 0.024 c -47.695,1.096 -86.171,40.308 -86.171,88.307 0,48.459 39.506,87.93 88.074,88.012 h 0.019 c 0,0 0.072,0 0.072,0 h 0.004 c 0,0 0.055,0 0.055,0 48.592,-0.054 88.123,-39.537 88.123,-88.013 0,-47.984 -38.452,-87.187 -86.123,-88.306 v -0.025 h -2 z"
         id="path4"
         style="stroke-width:0.501224" />
    </g>
    <g
       id="estrellas"
       transform="matrix(1.9951186,0,0,1.9951186,4.8782588,4.8782588)"
       style="stroke-width:0.501224">
      <path
         class="cls-11"
         d="m 156.19,106.78 2.491,6.431 c 0.012,0.03 0.035,0.053 0.065,0.065 l 6.432,2.491 c 0.097,0.037 0.097,0.174 0,0.211 l -6.432,2.491 c -0.03,0.012 -0.053,0.035 -0.065,0.065 l -2.491,6.431 c -0.037,0.097 -0.174,0.097 -0.211,0 l -2.49,-6.431 c -0.012,-0.03 -0.035,-0.053 -0.065,-0.065 l -6.432,-2.491 c -0.097,-0.037 -0.097,-0.174 0,-0.211 l 6.432,-2.491 c 0.03,-0.012 0.053,-0.035 0.065,-0.065 l 2.49,-6.431 c 0.037,-0.097 0.174,-0.097 0.211,0 z"
         id="path5"
         style="stroke-width:0.501224" />
      <path
         class="cls-11"
         d="m 145.846,96.885 1.141,2.946 c 0.012,0.03 0.035,0.053 0.065,0.065 l 2.946,1.141 c 0.097,0.037 0.097,0.174 0,0.211 l -2.946,1.141 c -0.03,0.012 -0.053,0.035 -0.065,0.065 l -1.141,2.946 c -0.037,0.097 -0.174,0.097 -0.211,0 l -1.141,-2.946 c -0.012,-0.03 -0.035,-0.053 -0.065,-0.065 l -2.947,-1.141 c -0.097,-0.037 -0.097,-0.174 0,-0.211 l 2.947,-1.141 c 0.03,-0.012 0.053,-0.035 0.065,-0.065 l 1.141,-2.946 c 0.037,-0.097 0.174,-0.097 0.211,0 z"
         id="path6"
         style="stroke-width:0.501224" />
      <path
         class="cls-11"
         d="m 157.315,82.717 1.141,2.946 c 0.012,0.03 0.035,0.053 0.065,0.065 l 2.946,1.141 c 0.097,0.037 0.097,0.174 0,0.211 l -2.946,1.141 c -0.03,0.012 -0.053,0.035 -0.065,0.065 l -1.141,2.946 c -0.037,0.097 -0.174,0.097 -0.211,0 l -1.141,-2.946 c -0.012,-0.03 -0.035,-0.053 -0.065,-0.065 l -2.947,-1.141 c -0.097,-0.037 -0.097,-0.174 0,-0.211 l 2.947,-1.141 c 0.03,-0.012 0.053,-0.035 0.065,-0.065 l 1.141,-2.946 c 0.037,-0.097 0.174,-0.097 0.211,0 z"
         id="path7"
         style="stroke-width:0.501224" />
      <path
         class="cls-11"
         d="m 133.364,79.793 1.141,2.946 c 0.012,0.03 0.035,0.053 0.065,0.065 l 2.946,1.141 c 0.097,0.037 0.097,0.174 0,0.211 l -2.946,1.141 c -0.03,0.012 -0.053,0.035 -0.065,0.065 l -1.141,2.946 c -0.037,0.097 -0.174,0.097 -0.211,0 l -1.141,-2.946 C 132,85.332 131.977,85.309 131.947,85.297 L 129,84.156 c -0.097,-0.037 -0.097,-0.174 0,-0.211 l 2.947,-1.141 c 0.03,-0.012 0.053,-0.035 0.065,-0.065 l 1.141,-2.946 c 0.037,-0.097 0.174,-0.097 0.211,0 z"
         id="path8"
         style="stroke-width:0.501224" />
      <path
         class="cls-11"
         d="m 133.139,58.766 1.267,3.27 c 0.012,0.03 0.035,0.053 0.065,0.065 l 3.271,1.267 c 0.097,0.037 0.097,0.174 0,0.211 l -3.271,1.267 c -0.03,0.012 -0.053,0.035 -0.065,0.065 l -1.267,3.27 c -0.037,0.097 -0.174,0.097 -0.211,0 l -1.267,-3.27 c -0.012,-0.03 -0.035,-0.053 -0.065,-0.065 l -3.271,-1.267 c -0.097,-0.037 -0.097,-0.174 0,-0.211 l 3.271,-1.267 c 0.03,-0.012 0.053,-0.035 0.065,-0.065 l 1.267,-3.27 c 0.037,-0.097 0.174,-0.097 0.211,0 z"
         id="path9"
         style="stroke-width:0.501224" />
      <path
         class="cls-11"
         d="m 139.446,45.506 1.258,3.262 c 0.011,0.03 0.035,0.053 0.065,0.065 l 3.271,1.267 c 0.15,0.058 0.15,0.153 0,0.211 l -3.27,1.267 c -0.03,0.012 -0.053,0.035 -0.065,0.065 l -1.258,3.278 c -0.037,0.097 -0.174,0.097 -0.212,0 l -1.275,-3.279 c -0.012,-0.03 -0.035,-0.053 -0.065,-0.065 l -3.262,-1.258 c -0.097,-0.037 -0.097,-0.174 0,-0.211 l 3.263,-1.275 c 0.029,-0.012 0.053,-0.035 0.064,-0.064 l 1.275,-3.263 c 0.038,-0.096 0.174,-0.096 0.211,0 z"
         id="path10"
         style="stroke-width:0.501224" />
      <path
         class="cls-11"
         d="m 161.7,53.931 1.173,3.027 c 0.012,0.03 0.035,0.053 0.065,0.065 l 3.027,1.173 c 0.097,0.037 0.097,0.174 0,0.211 l -3.027,1.173 c -0.03,0.012 -0.053,0.035 -0.065,0.065 l -1.173,3.027 c -0.037,0.097 -0.174,0.097 -0.211,0 l -1.173,-3.027 c -0.012,-0.03 -0.035,-0.053 -0.065,-0.065 l -3.027,-1.173 c -0.097,-0.037 -0.097,-0.174 0,-0.211 l 3.027,-1.173 c 0.03,-0.012 0.053,-0.035 0.065,-0.065 l 1.173,-3.027 c 0.037,-0.097 0.174,-0.097 0.211,0 z"
         id="path11"
         style="stroke-width:0.501224" />
      <path
         class="cls-11"
         d="m 145.846,70.572 1.958,5.053 c 0.012,0.03 0.035,0.053 0.065,0.065 l 5.053,1.958 c 0.097,0.037 0.097,0.174 0,0.211 l -5.053,1.958 c -0.03,0.012 -0.053,0.035 -0.065,0.065 l -1.958,5.053 c -0.037,0.097 -0.174,0.097 -0.211,0 l -1.958,-5.053 c -0.012,-0.03 -0.035,-0.053 -0.065,-0.065 l -5.053,-1.958 c -0.097,-0.037 -0.097,-0.174 0,-0.211 l 5.053,-1.958 c 0.03,-0.012 0.053,-0.035 0.065,-0.065 l 1.958,-5.053 c 0.037,-0.097 0.174,-0.097 0.211,0 z"
         id="path12"
         style="stroke-width:0.501224" />
      <path
         class="cls-11"
         d="m 169.234,69.448 1.174,3.027 c 0.012,0.03 0.035,0.053 0.065,0.065 l 3.027,1.173 c 0.097,0.037 0.097,0.174 0,0.211 l -3.027,1.173 c -0.03,0.012 -0.053,0.035 -0.065,0.065 l -1.174,3.027 c -0.037,0.097 -0.174,0.097 -0.211,0 l -1.174,-3.027 c -0.012,-0.03 -0.035,-0.053 -0.065,-0.065 l -3.027,-1.173 c -0.097,-0.037 -0.097,-0.174 0,-0.211 l 3.027,-1.173 c 0.03,-0.012 0.053,-0.035 0.065,-0.065 l 1.174,-3.027 c 0.037,-0.097 0.174,-0.097 0.211,0 z"
         id="path13"
         style="stroke-width:0.501224" />
      <path
         class="cls-11"
         d="m 184.864,69.898 1.174,3.027 c 0.012,0.03 0.035,0.053 0.065,0.065 l 3.027,1.173 c 0.097,0.037 0.097,0.174 0,0.211 l -3.027,1.173 c -0.03,0.012 -0.053,0.035 -0.065,0.065 l -1.174,3.027 c -0.037,0.097 -0.174,0.097 -0.211,0 l -1.174,-3.027 c -0.012,-0.03 -0.035,-0.053 -0.065,-0.065 l -3.027,-1.173 c -0.097,-0.037 -0.097,-0.174 0,-0.211 l 3.027,-1.173 c 0.03,-0.012 0.053,-0.035 0.065,-0.065 l 1.174,-3.027 c 0.037,-0.097 0.174,-0.097 0.211,0 z"
         id="path14"
         style="stroke-width:0.501224" />
      <path
         class="cls-11"
         d="m 181.041,80.805 1.991,5.134 c 0.012,0.03 0.035,0.053 0.065,0.065 l 5.133,1.989 c 0.097,0.037 0.097,0.174 0,0.211 l -5.133,1.989 c -0.03,0.012 -0.053,0.035 -0.065,0.065 l -1.991,5.134 c -0.037,0.097 -0.174,0.097 -0.211,0 l -1.991,-5.134 c -0.012,-0.03 -0.035,-0.053 -0.065,-0.065 l -5.133,-1.989 c -0.097,-0.037 -0.097,-0.174 0,-0.211 l 5.133,-1.989 c 0.03,-0.012 0.053,-0.035 0.065,-0.065 l 1.991,-5.134 c 0.037,-0.097 0.174,-0.097 0.211,0 z"
         id="path15"
         style="stroke-width:0.501224" />
      <path
         class="cls-11"
         d="m 194.534,90.362 1.676,4.324 c 0.012,0.03 0.035,0.053 0.065,0.065 l 4.323,1.675 c 0.097,0.037 0.097,0.174 0,0.211 l -4.323,1.675 c -0.03,0.012 -0.053,0.035 -0.065,0.065 l -1.676,4.324 c -0.037,0.097 -0.174,0.097 -0.211,0 l -1.676,-4.324 c -0.012,-0.03 -0.035,-0.053 -0.065,-0.065 l -4.323,-1.675 c -0.097,-0.037 -0.097,-0.174 0,-0.211 l 4.323,-1.675 c 0.03,-0.012 0.053,-0.035 0.065,-0.065 l 1.676,-4.324 c 0.037,-0.097 0.174,-0.097 0.211,0 z"
         id="path16"
         style="stroke-width:0.501224" />
      <path
         class="cls-11"
         d="m 185.089,105.205 1.236,3.189 c 0.012,0.03 0.035,0.053 0.065,0.065 l 3.189,1.236 c 0.097,0.037 0.097,0.174 0,0.211 l -3.189,1.236 c -0.03,0.012 -0.053,0.035 -0.065,0.065 l -1.236,3.189 c -0.037,0.097 -0.174,0.097 -0.211,0 l -1.236,-3.189 c -0.012,-0.03 -0.035,-0.053 -0.065,-0.065 l -3.189,-1.236 c -0.097,-0.037 -0.097,-0.174 0,-0.211 l 3.189,-1.236 c 0.03,-0.012 0.053,-0.035 0.065,-0.065 l 1.236,-3.189 c 0.037,-0.097 0.174,-0.097 0.211,0 z"
         id="path17"
         style="stroke-width:0.501224" />
      <path
         class="cls-11"
         d="m 170.921,122.184 1.236,3.189 c 0.012,0.03 0.035,0.053 0.065,0.065 l 3.189,1.236 c 0.097,0.037 0.097,0.174 0,0.211 l -3.189,1.236 c -0.03,0.012 -0.053,0.035 -0.065,0.065 l -1.236,3.189 c -0.037,0.097 -0.174,0.097 -0.211,0 l -1.236,-3.189 c -0.012,-0.03 -0.035,-0.053 -0.065,-0.065 l -3.189,-1.236 c -0.097,-0.037 -0.097,-0.174 0,-0.211 l 3.189,-1.236 c 0.03,-0.012 0.053,-0.035 0.065,-0.065 l 1.236,-3.189 c 0.037,-0.097 0.174,-0.097 0.211,0 z"
         id="path18"
         style="stroke-width:0.501224" />
      <path
         class="cls-11"
         d="m 195.771,116.112 1.487,3.837 c 0.012,0.03 0.035,0.053 0.065,0.065 l 3.837,1.487 c 0.097,0.037 0.097,0.174 0,0.211 l -3.837,1.487 c -0.03,0.012 -0.053,0.035 -0.065,0.065 l -1.487,3.837 c -0.037,0.097 -0.174,0.097 -0.211,0 l -1.487,-3.837 c -0.012,-0.03 -0.035,-0.053 -0.065,-0.065 l -3.837,-1.487 c -0.097,-0.037 -0.097,-0.174 0,-0.211 l 3.837,-1.487 c 0.03,-0.012 0.053,-0.035 0.065,-0.065 l 1.487,-3.837 c 0.037,-0.097 0.174,-0.097 0.211,0 z"
         id="path19"
         style="stroke-width:0.501224" />
      <path
         class="cls-11"
         d="m 140.786,121.51 1.645,4.243 c 0.012,0.03 0.035,0.053 0.065,0.065 l 4.242,1.644 c 0.097,0.037 0.097,0.174 0,0.211 l -4.242,1.644 c -0.03,0.012 -0.053,0.035 -0.065,0.065 l -1.645,4.243 c -0.037,0.097 -0.174,0.097 -0.211,0 l -1.645,-4.243 c -0.012,-0.03 -0.035,-0.053 -0.065,-0.065 l -4.242,-1.644 c -0.097,-0.037 -0.097,-0.174 0,-0.211 l 4.242,-1.644 c 0.03,-0.012 0.053,-0.035 0.065,-0.065 l 1.645,-4.243 c 0.037,-0.097 0.174,-0.097 0.211,0 z"
         id="path20"
         style="stroke-width:0.501224" />
      <path
         class="cls-11"
         d="m 147.645,159.852 1.927,4.973 c 0.012,0.03 0.035,0.053 0.065,0.065 l 4.971,1.926 c 0.097,0.037 0.097,0.174 0,0.211 l -4.971,1.926 c -0.03,0.012 -0.053,0.035 -0.065,0.065 l -1.927,4.973 c -0.037,0.097 -0.174,0.097 -0.211,0 l -1.927,-4.973 c -0.012,-0.03 -0.035,-0.053 -0.065,-0.065 l -4.971,-1.926 c -0.097,-0.037 -0.097,-0.174 0,-0.211 l 4.971,-1.926 c 0.03,-0.012 0.053,-0.035 0.065,-0.065 l 1.927,-4.973 c 0.037,-0.097 0.174,-0.097 0.211,0 z"
         id="path21"
         style="stroke-width:0.501224" />
      <path
         class="cls-11"
         d="m 176.543,167.386 1.927,4.973 c 0.012,0.03 0.035,0.053 0.065,0.065 l 4.971,1.926 c 0.097,0.037 0.097,0.174 0,0.211 l -4.971,1.926 c -0.03,0.012 -0.053,0.035 -0.065,0.065 l -1.927,4.973 c -0.037,0.097 -0.174,0.097 -0.211,0 l -1.927,-4.973 c -0.012,-0.03 -0.035,-0.053 -0.065,-0.065 l -4.971,-1.926 c -0.097,-0.037 -0.097,-0.174 0,-0.211 l 4.971,-1.926 c 0.03,-0.012 0.053,-0.035 0.065,-0.065 l 1.927,-4.973 c 0.037,-0.097 0.174,-0.097 0.211,0 z"
         id="path22"
         style="stroke-width:0.501224" />
      <path
         class="cls-11"
         d="m 180.816,130.73 1.425,3.676 c 0.012,0.03 0.035,0.053 0.065,0.065 l 3.675,1.424 c 0.097,0.037 0.097,0.174 0,0.211 l -3.675,1.424 c -0.03,0.012 -0.053,0.035 -0.065,0.065 l -1.425,3.676 c -0.037,0.097 -0.174,0.097 -0.211,0 l -1.425,-3.676 c -0.012,-0.03 -0.035,-0.053 -0.065,-0.065 l -3.675,-1.424 c -0.097,-0.037 -0.097,-0.174 0,-0.211 l 3.675,-1.424 c 0.03,-0.012 0.053,-0.035 0.065,-0.065 l 1.425,-3.676 c 0.037,-0.097 0.174,-0.097 0.211,0 z"
         id="path23"
         style="stroke-width:0.501224" />
      <path
         class="cls-11"
         d="m 168.559,157.828 1.425,3.676 c 0.012,0.03 0.035,0.053 0.065,0.065 l 3.675,1.424 c 0.097,0.037 0.097,0.174 0,0.211 l -3.675,1.424 c -0.03,0.012 -0.053,0.035 -0.065,0.065 l -1.425,3.676 c -0.037,0.097 -0.174,0.097 -0.211,0 l -1.425,-3.676 c -0.012,-0.03 -0.035,-0.053 -0.065,-0.065 l -3.675,-1.424 c -0.097,-0.037 -0.097,-0.174 0,-0.211 l 3.675,-1.424 c 0.03,-0.012 0.053,-0.035 0.065,-0.065 l 1.425,-3.676 c 0.037,-0.097 0.174,-0.097 0.211,0 z"
         id="path24"
         style="stroke-width:0.501224" />
      <path
         class="cls-11"
         d="m 135.163,187.176 1.425,3.676 c 0.012,0.03 0.035,0.053 0.065,0.065 l 3.675,1.424 c 0.097,0.037 0.097,0.174 0,0.211 l -3.675,1.424 c -0.03,0.012 -0.053,0.035 -0.065,0.065 l -1.425,3.676 c -0.037,0.097 -0.174,0.097 -0.211,0 l -1.425,-3.676 c -0.012,-0.03 -0.035,-0.053 -0.065,-0.065 l -3.675,-1.424 c -0.097,-0.037 -0.097,-0.174 0,-0.211 l 3.675,-1.424 c 0.03,-0.012 0.053,-0.035 0.065,-0.065 l 1.425,-3.676 c 0.037,-0.097 0.174,-0.097 0.211,0 z"
         id="path25"
         style="stroke-width:0.501224" />
      <path
         class="cls-11"
         d="m 151.918,186.839 1.205,3.109 c 0.012,0.03 0.035,0.053 0.065,0.065 l 3.107,1.204 c 0.097,0.037 0.097,0.174 0,0.211 l -3.107,1.204 c -0.03,0.012 -0.053,0.035 -0.065,0.065 l -1.205,3.109 c -0.037,0.097 -0.174,0.097 -0.211,0 l -1.205,-3.109 c -0.012,-0.03 -0.035,-0.053 -0.065,-0.065 l -3.107,-1.204 c -0.097,-0.037 -0.097,-0.174 0,-0.211 l 3.107,-1.204 c 0.03,-0.012 0.053,-0.035 0.065,-0.065 l 1.205,-3.109 c 0.037,-0.097 0.174,-0.097 0.211,0 z"
         id="path26"
         style="stroke-width:0.501224" />
      <path
         class="cls-11"
         d="m 159.676,176.382 1.205,3.109 c 0.012,0.03 0.035,0.053 0.065,0.065 l 3.107,1.204 c 0.097,0.037 0.097,0.174 0,0.211 l -3.107,1.204 c -0.03,0.012 -0.053,0.035 -0.065,0.065 l -1.205,3.109 c -0.037,0.097 -0.174,0.097 -0.211,0 l -1.205,-3.109 c -0.012,-0.03 -0.035,-0.053 -0.065,-0.065 l -3.107,-1.204 c -0.097,-0.037 -0.097,-0.174 0,-0.211 l 3.107,-1.204 c 0.03,-0.012 0.053,-0.035 0.065,-0.065 l 1.205,-3.109 c 0.037,-0.097 0.174,-0.097 0.211,0 z"
         id="path27"
         style="stroke-width:0.501224" />
      <path
         class="cls-11"
         d="m 171.933,144.223 1.205,3.108 c 0.012,0.03 0.035,0.053 0.065,0.065 l 3.107,1.204 c 0.097,0.037 0.097,0.174 0,0.211 l -3.107,1.203 c -0.03,0.012 -0.053,0.035 -0.065,0.065 l -1.205,3.109 c -0.037,0.097 -0.174,0.097 -0.211,0 l -1.205,-3.109 c -0.012,-0.03 -0.035,-0.053 -0.065,-0.065 l -3.107,-1.203 c -0.097,-0.037 -0.097,-0.174 0,-0.211 l 3.107,-1.204 c 0.03,-0.012 0.053,-0.035 0.065,-0.065 l 1.205,-3.108 c 0.037,-0.097 0.174,-0.097 0.211,0 z"
         id="path28"
         style="stroke-width:0.501224" />
      <path
         class="cls-11"
         d="m 191.948,137.251 1.205,3.108 c 0.012,0.03 0.035,0.053 0.065,0.065 l 3.107,1.204 c 0.097,0.037 0.097,0.174 0,0.211 l -3.107,1.204 c -0.03,0.012 -0.053,0.035 -0.065,0.065 l -1.205,3.109 c -0.037,0.097 -0.174,0.097 -0.211,0 l -1.205,-3.109 c -0.012,-0.03 -0.035,-0.053 -0.065,-0.065 l -3.107,-1.204 c -0.097,-0.037 -0.097,-0.174 0,-0.211 l 3.107,-1.204 c 0.03,-0.012 0.053,-0.035 0.065,-0.065 l 1.205,-3.108 c 0.037,-0.097 0.174,-0.097 0.211,0 z"
         id="path29"
         style="stroke-width:0.501224" />
      <path
         class="cls-11"
         d="m 189.137,152.431 1.205,3.109 c 0.012,0.03 0.035,0.053 0.065,0.065 l 3.107,1.204 c 0.097,0.037 0.097,0.174 0,0.211 l -3.107,1.204 c -0.03,0.012 -0.053,0.035 -0.065,0.065 l -1.205,3.109 c -0.037,0.097 -0.174,0.097 -0.211,0 l -1.205,-3.109 c -0.012,-0.03 -0.035,-0.053 -0.065,-0.065 l -3.107,-1.204 c -0.097,-0.037 -0.097,-0.174 0,-0.211 l 3.107,-1.204 c 0.03,-0.012 0.053,-0.035 0.065,-0.065 l 1.205,-3.109 c 0.037,-0.097 0.174,-0.097 0.211,0 z"
         id="path30"
         style="stroke-width:0.501224" />
      <path
         class="cls-11"
         d="m 135.276,143.661 1.205,3.108 c 0.012,0.03 0.035,0.053 0.065,0.065 l 3.107,1.204 c 0.097,0.037 0.097,0.174 0,0.211 l -3.107,1.203 c -0.03,0.012 -0.053,0.035 -0.065,0.065 l -1.205,3.109 c -0.037,0.097 -0.174,0.097 -0.211,0 l -1.205,-3.109 c -0.012,-0.03 -0.035,-0.053 -0.065,-0.065 l -3.107,-1.203 c -0.097,-0.037 -0.097,-0.174 0,-0.211 l 3.107,-1.204 c 0.03,-0.012 0.053,-0.035 0.065,-0.065 l 1.205,-3.108 c 0.037,-0.097 0.174,-0.097 0.211,0 z"
         id="path31"
         style="stroke-width:0.501224" />
      <path
         class="cls-11"
         d="m 132.802,166.824 1.205,3.109 c 0.012,0.03 0.035,0.053 0.065,0.065 l 3.107,1.204 c 0.097,0.037 0.097,0.174 0,0.211 l -3.107,1.204 c -0.03,0.012 -0.053,0.035 -0.065,0.065 l -1.205,3.109 c -0.037,0.097 -0.174,0.097 -0.211,0 l -1.205,-3.109 c -0.012,-0.03 -0.035,-0.053 -0.065,-0.065 l -3.107,-1.204 c -0.097,-0.037 -0.097,-0.174 0,-0.211 l 3.107,-1.204 c 0.03,-0.012 0.053,-0.035 0.065,-0.065 l 1.205,-3.109 c 0.037,-0.097 0.174,-0.097 0.211,0 z"
         id="path32"
         style="stroke-width:0.501224" />
      <path
         class="cls-11"
         d="m 146.52,136.127 1.016,2.622 c 0.012,0.03 0.035,0.053 0.065,0.065 l 2.622,1.016 c 0.097,0.037 0.097,0.174 0,0.211 l -2.621,1.015 c -0.03,0.012 -0.053,0.035 -0.065,0.065 l -1.016,2.623 c -0.037,0.097 -0.174,0.097 -0.211,0 l -1.016,-2.623 c -0.012,-0.03 -0.035,-0.053 -0.065,-0.065 l -2.621,-1.015 c -0.097,-0.037 -0.097,-0.174 0,-0.211 l 2.622,-1.016 c 0.03,-0.012 0.053,-0.035 0.065,-0.065 l 1.016,-2.622 c 0.037,-0.097 0.174,-0.097 0.211,0 z"
         id="path33"
         style="stroke-width:0.501224" />
    </g>
    <path
       id="semicirculo_celeste"
       class="cls-6"
       d="m 248.60794,249.34213 v 171.92338 0 c -94.42697,0 -171.673977,-77.6241 -171.673977,-171.92338 0,-94.29927 77.245007,-171.927344 171.673977,-171.927344 z"
       style="stroke-width:1" />
    <g
       id="rayos"
       transform="matrix(1.9951186,0,0,1.9951186,4.8782588,4.8782588)"
       style="stroke-width:0.501224">
      <g
         class="cls-9"
         clip-path="url(#clippath)"
         id="g44"
         style="stroke-width:0.501224">
        <line
           class="cls-8"
           x1="103.485"
           y1="212.381"
           x2="55.084"
           y2="31.747999"
           id="line33"
           style="stroke-width:0.501224" />
        <line
           class="cls-8"
           x1="126.036"
           y1="203.03999"
           x2="32.533001"
           y2="41.089001"
           id="line34"
           style="stroke-width:0.501224" />
        <line
           class="cls-8"
           x1="145.401"
           y1="188.181"
           x2="13.168"
           y2="55.949001"
           id="line35"
           style="stroke-width:0.501224" />
        <line
           class="cls-8"
           x1="160.25999"
           y1="168.81599"
           x2="-1.691"
           y2="75.314003"
           id="line36"
           style="stroke-width:0.501224" />
        <line
           class="cls-8"
           x1="169.601"
           y1="146.265"
           x2="-11.032"
           y2="97.864998"
           id="line37"
           style="stroke-width:0.501224" />
        <line
           class="cls-8"
           x1="172.787"
           y1="122.065"
           x2="-14.218"
           y2="122.065"
           id="line38"
           style="stroke-width:0.501224" />
        <line
           class="cls-8"
           x1="169.601"
           y1="97.864998"
           x2="-11.032"
           y2="146.265"
           id="line39"
           style="stroke-width:0.501224" />
        <line
           class="cls-8"
           x1="160.25999"
           y1="75.314003"
           x2="-1.691"
           y2="168.81599"
           id="line40"
           style="stroke-width:0.501224" />
        <line
           class="cls-8"
           x1="145.401"
           y1="55.949001"
           x2="13.168"
           y2="188.181"
           id="line41"
           style="stroke-width:0.501224" />
        <line
           class="cls-8"
           x1="126.036"
           y1="41.089001"
           x2="32.533001"
           y2="203.03999"
           id="line42"
           style="stroke-width:0.501224" />
        <line
           class="cls-8"
           x1="103.485"
           y1="31.747999"
           x2="55.084"
           y2="212.381"
           id="line43"
           style="stroke-width:0.501224" />
        <line
           class="cls-8"
           x1="79.285004"
           y1="28.562"
           x2="79.285004"
           y2="215.567"
           id="line44"
           style="stroke-width:0.501224" />
      </g>
    </g>
    <g
       id="sol"
       transform="matrix(1.9951186,0,0,1.9951186,4.8782588,4.8782588)"
       style="stroke-width:0.501224">
      <path
         id="sol_azul"
         class="cls-2"
         d="m 53.97,153.467 c 0.252,-0.938 0.481,-1.847 0.773,-2.778 0.672,-2.138 1.562,-4.209 2.655,-6.166 0.306,-0.549 0.717,-1.193 0.78,-1.834 0.061,-0.621 0.066,-1.485 0.286,-2.123 0.493,-1.428 0.911,-2.119 1.259,-2.963 0.23,-0.556 0.79,-1.133 1.165,-1.986 0.308,-0.486 0.14,-0.986 -0.368,-1.172 -0.164,-0.06 -0.876,-0.167 -1.067,-0.183 -0.688,-0.057 -1.664,0.439 -2.097,-0.395 -0.511,-0.985 0.373,-2.012 0.599,-2.888 0.068,-0.264 0.134,-0.452 -0.039,-0.681 -0.18,-0.238 -0.712,-0.384 -0.972,-0.488 -1.428,-0.569 -2.905,-0.996 -4.336,-1.56 -0.731,-0.288 -1.469,-0.579 -2.245,-0.71 -0.82,-0.139 -1.439,0.053 -2.225,0.195 -0.787,0.142 -1.638,0.216 -2.439,0.278 -2.027,0.155 -4.114,-0.439 -5.963,-1.256 -0.552,-0.244 -1.159,-0.479 -1.73,-0.73 -0.505,-0.29 -0.549,-0.969 0.603,-1.257 0.512,-0.128 1.747,-0.967 2.158,-1.299 2.144,-1.729 5.165,-2.992 8.418,-2.751 3.402,0.321 8.602,-1.861 8.602,-2.758 -0.051,-0.527 -0.34,-1.025 -0.657,-1.438 -0.232,-0.302 -0.752,-0.611 -0.574,-1.053 0.194,-0.48 0.994,-0.9 1.388,-1.216 0.274,-0.219 1.031,-0.662 1.064,-1.063 0.036,-0.433 -0.344,-0.543 -0.541,-0.841 -0.211,-0.319 -0.137,-0.675 -0.251,-1.033 -0.151,-0.472 -0.307,-0.944 -0.523,-1.391 -0.448,-0.927 -1.174,-1.608 -2.016,-2.178 -0.978,-0.662 -2.011,-1.167 -2.931,-1.931 -0.93,-0.773 -1.771,-1.654 -2.495,-2.623 -0.808,-1.082 -1.468,-2.264 -2.076,-3.467 -0.266,-0.527 -0.47,-1.2 -0.889,-1.621 -0.428,-0.43 -0.709,-0.451 -0.595,-1.075 0.127,-0.693 1.124,-0.57 1.434,-0.536 0.937,0.103 1.586,0.346 2.521,0.524 0.772,0.147 1.812,0.216 2.592,0.303 0.753,0.085 1.571,0.312 2.392,0.384 1.998,0.175 3.652,1.711 5.128,2.959 0.793,0.671 1.555,1.377 2.342,2.055 0.77,0.663 1.737,1.783 2.424,1.783 0.704,-0.002 0.831,-2.235 0.92,-2.699 0.118,-0.613 0.215,-1.211 1.074,-1.063 0.316,0.054 2.122,0.862 2.205,0.157 0.116,-0.985 -0.003,-2.721 0.463,-4.007 0.467,-1.292 1.427,-2.283 1.793,-3.624 0.438,-1.509 0.767,-2.853 0.703,-4.441 -0.044,-1.083 -0.204,-2.234 -0.21,-3.347 -0.003,-0.594 0.038,-1.186 0.153,-1.769 0.095,-0.484 -0.014,-1.13 0.222,-1.566 0.728,-1.343 2.46,1.869 2.779,2.315 0.541,0.723 1.081,1.447 1.622,2.17 1.636,1.93 3.337,4.139 3.357,6.788 0,2.049 0.81,3.241 0.558,5.547 -0.15,1.646 0.53,1.999 1.645,1.041 0.796,-0.684 1.933,-0.747 2.743,-1.441 0.584,-0.571 1.042,-0.442 1.167,0.431 0.275,1.928 1.723,4.216 3.942,2.867 1.877,-1.142 3.135,-3.233 4.44,-4.935 0.829,-1.081 1.864,-1.998 2.986,-2.766 0.5,-0.342 1.029,-0.635 1.543,-0.956 0.498,-0.311 1.013,-0.866 1.533,-1.103 1.255,-0.572 4.166,-3.527 3.286,-0.22 -0.162,0.324 -0.356,0.702 -0.52,1.01 -0.261,0.49 -0.524,0.97 -0.742,1.482 -0.436,1.023 -0.761,2.089 -1.084,3.152 -0.506,1.662 -0.874,3.433 -1.586,5.021 -0.402,0.898 -0.904,1.748 -1.452,2.564 -0.274,0.409 -0.561,0.808 -0.855,1.203 -0.227,0.305 -0.467,0.657 -0.778,0.866 -0.122,0.082 -0.384,0.369 -0.308,0.496 0.36,0.602 3.91,0.214 4.059,0.917 0.104,0.422 -0.942,1.481 -0.996,2.309 -0.092,0.429 0.052,0.767 -0.135,1.32 -0.232,0.688 -0.577,1.78 0.62,2.263 4.838,1.95 9.145,-1.08 13.965,0.407 1.13,0.349 1.924,0.982 2.95,1.451 0.766,0.35 1.599,0.804 2.44,0.851 0.295,0.016 0.996,0.005 1.24,0.142 0.291,0.163 0.274,0.554 0.011,0.743 -0.162,0.116 -0.365,0.156 -0.56,0.201 -1.519,0.351 -2.824,1.32 -4.182,2.045 -0.409,0.218 -1.095,0.232 -1.551,0.351 -0.547,0.142 -1.09,0.304 -1.626,0.483 -1.072,0.359 -2.12,0.791 -3.134,1.293 -0.946,0.468 -1.754,1.107 -2.682,1.577 -1.053,0.533 -3.788,1.346 -4.047,1.384 -2.331,0.335 1.182,3.038 -0.877,3.499 -1.218,0.273 -3.293,0.885 -4.033,1.962 -0.556,0.81 0.233,1.319 0.824,1.698 1.392,0.893 2.463,1.417 4.044,2.203 4.625,2.427 4.473,8.41 7.515,11.684 0.26,0.28 0.677,0.573 0.769,0.894 0.105,0.367 0.314,0.594 -0.318,0.888 -0.303,0.141 -0.744,-0.068 -0.924,-0.145 -1.378,-0.591 -2.968,-0.522 -4.426,-0.845 -0.721,-0.16 -1.729,-0.753 -2.362,-1.119 -0.803,-0.464 -1.264,-0.86 -2.067,-1.324 -1.135,-0.656 -1.786,-1.161 -3.008,-1.638 -1.088,-0.425 -1.801,-0.753 -2.919,-0.877 -0.677,-0.075 -2.013,-0.907 -2.423,-1.316 -0.255,-0.255 -0.747,-0.331 -1.047,-0.032 -0.4,0.883 -0.66,1.373 -0.761,2.375 -0.204,2.327 -4.175,-0.53 -4.722,0.42 -0.34,0.762 2.362,7.306 0.078,11.417 -0.538,0.969 -0.651,1.967 -1.267,3.044 -0.683,1.493 -1.311,3.825 -1.206,5.896 0.013,0.254 0.055,0.8 -0.011,1.049 -0.09,0.344 -0.538,0.722 -0.84,0.322 -0.112,-0.148 -0.141,-0.34 -0.174,-0.523 -0.209,-1.135 -0.728,-1.937 -1.369,-2.849 -0.356,-0.506 -0.718,-1.007 -1.043,-1.539 -0.671,-1.095 -1.454,-2.325 -1.79,-3.568 -0.342,-1.268 -0.043,-2.706 -0.546,-3.916 -2.366,-5.684 -1.668,-7.461 -2.052,-8.148 -0.467,-0.548 -1.289,0.337 -2.019,1.067 -0.369,0.46 -0.985,0.218 -1.184,-0.41 -0.07,-0.522 -0.561,-1.243 -0.778,-1.64 -0.229,-0.419 -0.849,-0.513 -0.94,-0.923 -0.112,-0.175 -0.235,-0.757 -0.622,-1.005 -0.655,-0.441 -1.179,0.433 -1.578,0.918 -0.076,0.093 -0.578,0.497 -0.709,0.58 -0.248,0.157 -0.587,0.252 -0.809,0.395 -0.437,0.281 -0.758,0.845 -1.041,1.261 -0.515,0.758 -1.006,1.533 -1.507,2.299 -0.473,0.723 -0.866,1.531 -1.469,2.16 -0.698,0.729 -1.583,1.265 -2.494,1.683 -1.51,0.692 -3.144,1.126 -4.563,1.99 -0.887,0.54 -1.55,1.343 -2.441,1.838 -1.04,0.579 -0.783,-0.437 -0.597,-1.045 0.048,-0.157 0.139,-0.471 0.181,-0.63 z"
         style="stroke-width:0.501224" />
      <path
         id="sol_amarillo"
         class="cls-10"
         d="m 55.9,151.447 c 1.843,-4.069 4.326,-6.792 4.865,-10.922 0.201,-1.537 0.665,-3.012 1.431,-4.416 0.545,-0.998 2.13,-2.047 2.962,-2.731 11.345,-7.506 1.357,-5.965 -6.821,-4.813 -2.733,0.385 -5.685,-2.193 -8.202,-2.123 -2.946,-0.164 -5.285,0.724 -8.172,-0.832 -1.008,-0.543 2.1,-1.716 1.549,-1.482 -1.487,0.63 2.644,-1.264 3.874,-1.411 2.321,-0.279 3.42,-0.211 5.705,-0.792 1.658,-0.422 3.764,-1.966 5.443,-2.33 2.833,-0.615 5.098,-0.718 7.867,-0.011 0.476,0.041 1.916,0.271 2.228,-0.301 0.254,-0.466 -0.401,-1.041 -0.687,-1.324 -1.135,-1.125 -2.337,-1.82 -4.25,-2.775 -1.087,-0.543 -1.308,-0.812 -2.244,-1.585 -0.964,-0.796 -1.792,-2.293 -2.139,-3.495 -0.187,-0.648 -0.97,-2.05 -1.5,-2.427 -0.909,-0.646 -3.854,-2.338 -5.167,-3.652 -0.953,-0.953 -1.677,-1.767 -2.248,-2.837 -0.281,-0.528 -0.603,-1.141 -0.723,-1.731 -0.138,-0.68 0.072,-0.799 0.739,-0.697 1.745,0.266 2.826,0.634 4.76,0.999 0.585,0.11 1.16,0.29 1.69,0.561 1.622,0.829 2.476,1.657 3.672,2.981 1.982,2.195 4.54,2.659 6.409,4.018 2.522,1.834 4.261,5.021 6.563,5.692 0.62,0.181 0.379,-0.37 0.391,-0.442 0.776,-4.597 -3.538,-9.456 -2.634,-14.211 0.381,-2.002 1.44,-3.426 2.077,-5.308 1.015,-2.36 0.134,-5.233 0.465,-7.696 0.563,-1.456 4.572,4.704 5.003,12.506 0.257,4.655 3.45,8.931 2.677,13.833 0.637,1.562 2.28,-1.902 2.53,-2.346 0.57,-1.012 1.138,-2.036 1.841,-2.964 1.159,-1.529 2.722,-1.539 4.23,-2.48 1.576,-0.983 2.74,-2.523 3.876,-3.959 1.04,-1.315 2.119,-2.61 3.349,-3.754 0.644,-0.599 1.327,-1.156 2.053,-1.652 0.706,-0.482 2.759,-2.159 2.103,-0.308 -0.364,1.028 -1.034,1.973 -1.298,3.033 -0.458,1.838 -0.826,2.886 -1.524,4.658 -0.864,2.195 -3.252,3.028 -4.347,5.015 -1.44,2.906 -2.416,6.504 -4.745,9.05 -0.459,0.502 -1.125,0.749 -0.863,1.493 0.439,0.604 0.751,0.086 1.013,-0.111 3.736,-2.809 9.419,-1.656 13.748,-0.787 3.456,0.693 7.433,-1.831 10.776,-0.141 0.642,0.325 3.829,1.11 2.067,2.066 -0.687,0.373 -1.548,0.51 -2.295,0.708 -1.759,0.465 -3.648,0.769 -5.263,1.63 -1.534,0.817 -2.926,1.935 -4.642,2.363 -4.454,1.153 -9.132,-1.334 -12.928,1.35 -3.363,2.222 1.622,1.372 4.257,5.052 0.812,1.134 1.54,2.569 2.634,3.567 1.899,1.159 4.068,1.906 5.582,3.366 2.079,1.37 2.468,4.629 3.735,6.864 0.209,0.369 0.387,0.915 0.744,1.271 0.936,0.932 0.507,1.671 -0.789,1.187 -1.885,-0.704 -3.368,-1.967 -4.978,-3.113 -1.266,-0.901 -2.709,-1.504 -4.153,-2.055 -2.789,-1.065 -5.766,-1.934 -7.569,-4.663 -0.152,-0.23 -1.498,-1.803 -2.247,-2.339 -6.738,-4.818 -1.273,0.687 -2.687,6.335 -1.191,5.045 1.983,9.492 0.09,14.527 -0.62,1.65 -1.818,3.763 -2.075,5.655 -0.222,1.41 -1.317,-1.14 -1.869,-2.172 -1.376,-2.379 -0.894,-3.884 -1.544,-6.869 -0.106,-0.485 -0.281,-0.959 -0.531,-1.388 -0.928,-1.592 -1.824,-3.246 -1.481,-5.165 0.578,-2.822 -0.398,-5.376 -0.601,-8.408 -0.49,-7.301 -1.962,1.47 -4.755,2.99 -7.792,3.916 -5.522,4.182 -10.283,9.982 -1.224,1.491 -3.217,1.509 -4.792,2.366 -0.476,0.259 -1.128,0.979 -1.695,1.001 -0.699,0.027 -0.474,-0.616 -0.256,-1.096 z m 17.703,-18.302 c 0.542,-2.517 -1.872,-0.292 -1.933,-1.202 -0.06,-0.899 -1.607,-1.044 -2.044,0.117 -2.116,5.619 -6.007,6.561 -6.23,9.977 -0.072,1.094 1.205,-1.178 2.851,-2.264 2.9,-1.915 7.09,-5.388 7.356,-6.627 z m 8.959,12.698 c -0.289,-3.191 1.118,-10.742 0.31,-12.431 -0.104,-0.218 -0.462,-0.111 -0.537,0.119 -0.198,0.61 -0.711,0.876 -1.136,0.663 -0.379,-0.19 -1.082,-0.957 -1.293,-0.063 -0.439,1.86 1.426,7.696 1.239,9.468 -0.284,2.693 1.758,6.012 1.417,2.245 z m -26.76,-20.634 c 1.642,0.567 6.874,-0.132 7.78,-0.189 1.192,-0.075 3.706,0.429 4.359,0.296 1.286,-0.261 -0.96,-0.975 0.648,-3.455 0.27,-0.416 -3.089,0.005 -3.976,0.303 -6.782,2.277 -12.385,1.81 -8.811,3.045 z m 20.484,16.814 c -0.183,-2.4 -0.276,-3.024 -0.557,-2.767 -0.255,0.082 -1.564,1.722 -2.023,2.038 -0.96,0.66 -0.774,0.851 -0.218,1.751 0.208,0.337 0.442,0.749 0.714,0.925 0.362,0.235 0.637,0.032 0.827,-0.091 0.293,-0.19 0.765,-0.516 0.926,-0.597 0.515,-0.255 0.365,-0.805 0.331,-1.26 z M 65.749,129.764 c -0.042,-0.031 -0.837,0.054 -1.551,0.079 -1.515,0.053 -3.87,0.431 -4.135,0.796 -0.221,0.305 -0.987,1.347 -0.772,1.702 0.112,0.186 0.486,0.442 0.672,0.548 0.854,0.485 1.615,0.759 2.191,0.01 0.578,-0.696 1.29,-1.245 1.995,-1.857 0.425,-0.369 1.837,-1.103 1.601,-1.278 z m 24.886,9.816 c -0.265,-0.51 -2.025,-2.558 -2.526,-2.469 -0.108,0.019 -0.141,0.501 -0.127,1.3 0.017,0.938 -0.029,1.882 -0.234,2.596 -0.184,1.081 0.717,0.894 1.505,1.081 1.041,0.248 1.301,0 1.394,-0.466 0.098,-0.489 0.211,-1.612 -0.012,-2.042 z M 58.534,115.657 c -0.265,0.265 0.517,1.386 0.992,1.624 0.217,0.109 0.424,0.141 0.79,0.102 0,0 1.773,-0.129 2.469,-0.321 0.567,-0.156 -1.893,-1.378 -2.785,-1.903 -0.507,-0.299 -0.831,-0.14 -1.467,0.497 z m 40.24,22.36 c 1.525,-0.07 -2.865,-1.815 -4.537,-5.044 -0.854,-1.649 -4.218,-5.173 -5.456,-4.664 -0.786,0.324 0.222,0.536 0.222,1.111 0,0.944 -0.949,0.262 -1.15,0.968 -0.335,1.176 1.333,1.18 2.316,1.968 1.259,1.009 6.421,5.761 8.605,5.661 z m -24.225,-7.016 c 7.662,4.427 17.25,-3.939 13.553,-12.483 -3.144,-6.349 -12.703,-7.218 -16.905,-1.555 -2.187,4.843 -1.834,10.844 3.352,14.038 z m -6.97,-15.941 c 0.336,0.337 1.843,1.864 2.263,0.995 0.176,-0.365 0.24,-0.973 0.863,-1.434 0.383,-0.283 0.16,-0.797 -0.012,-1.001 -1.065,-1.257 -2.114,-1.406 -3.65,-1.967 -1.756,-0.641 -4.282,-3.059 -5.587,-4.177 -0.984,-0.843 -1.391,-1.065 -0.542,0.476 0.433,0.787 1.939,4.108 4.625,5.646 0.755,0.433 1.282,0.701 2.04,1.461 z m 9.151,-3.115 c 0.344,0.207 0.592,-0.697 1.117,-0.58 0.298,0.066 0.402,0.935 1.197,0.369 1.115,-0.794 -0.784,-2.665 -1.62,-4.774 -0.463,-0.784 -0.976,-5.787 -1.486,-7.478 -0.239,-0.79 -0.407,-0.967 -0.555,0.044 -0.072,0.491 -0.273,1.877 -0.287,3.002 -0.042,3.385 0.534,8.754 1.635,9.417 z m 23.887,8.681 c 4.228,0.318 3.583,-0.725 -1.823,-1.962 -1.269,-0.29 -6.703,-0.654 -7.798,0.155 -0.302,0.223 -0.805,0.646 -0.758,1.065 0.057,0.519 0.603,-0.067 0.842,0.236 0.681,0.866 -0.423,1.234 0.172,1.921 0.816,0.943 3.289,-1.872 9.366,-1.415 z m 0.631,6.355 c -0.664,-0.904 -2.122,-1.504 -4.216,-0.878 -0.053,0.016 -1.117,0.162 -1.17,0.177 -0.451,0.121 -1.048,0.154 -0.662,0.398 0.181,0.114 1.205,0.795 1.522,1.028 0.502,0.368 1.191,1.558 1.524,1.316 0.347,-0.251 0.925,-0.797 1.405,-0.92 0.843,-0.216 2.163,-0.35 1.597,-1.12 z M 69.792,103.615 c -1.363,-0.801 -1.923,-1.189 -2.022,0.501 -0.019,0.33 -0.11,0.815 -0.132,0.895 -0.132,0.464 1.257,1.028 2.353,2.276 0.194,0.222 0.806,0.759 0.845,0.803 0.366,0.407 0.379,0.265 0.372,0.176 -0.005,-0.055 -0.353,-1.741 -0.361,-1.796 -0.111,-0.751 -0.726,-2.662 -1.054,-2.855 z m 14.947,9.35 c 0.108,0.097 1.05,-0.176 1.627,0.602 0.224,0.302 0.274,0.966 0.773,1.078 0.571,0.128 1.288,-0.955 1.54,-1.637 0.973,-2.634 3.382,-6.4 3.734,-7.283 1.215,-3.045 -3.84,2.821 -5.768,4.566 -0.826,0.747 -2.066,2.531 -1.907,2.674 z m 14.259,-3.273 c -0.016,-0.196 -0.708,-0.375 -0.904,-0.388 -2.286,-0.155 -1.544,0.1 -3.192,3.114 -1.088,1.571 0.057,1.11 0.487,1.061 2.585,-0.292 3.201,0.505 3.353,-1.943 0.064,-1.026 0.288,-1.443 0.256,-1.844 z M 86.11,102.083 c -0.021,-0.033 -0.238,-0.521 -0.43,-0.895 -0.186,-0.363 -0.388,-0.552 -0.84,-0.549 -0.286,0.002 -0.777,0.164 -1.004,0.328 -0.366,0.264 -0.82,0.434 -1.145,0.757 -0.416,0.413 -0.111,0.712 0.086,1.126 0.22,0.461 0.36,0.953 0.443,1.456 0.311,1.883 0.585,1.502 1.089,0.918 0.152,-0.176 0.899,-0.887 1.249,-1.103 0.443,-0.273 0.795,-0.586 0.973,-0.929 0.26,-0.5 -0.124,-0.643 -0.422,-1.107 z m -9.743,27.146 c 4.2,2.607 9.241,-1.071 10.185,-5.307 0.792,-3.552 -0.112,-6.346 -3.008,-7.697 -9.807,-4.576 -16.735,7.072 -7.177,13.004 z m -0.72,-2.821 c 7.337,6.457 14.17,-8.021 4.408,-9.309 -5.379,-0.71 -8.296,5.887 -4.408,9.309 z m 3.283,-1.147 c 4.242,-0.031 5.576,-4.718 2.055,-5.922 -4.499,-1.539 -7.393,5.961 -2.055,5.922 z"
         style="stroke-width:0.501224" />
    </g>
    <g
       id="texto_exterior"
       transform="matrix(1.9951186,0,0,1.9951186,4.8782588,4.8782588)"
       style="stroke-width:0.501224">
      <circle
         id="punto_dcha"
         class="cls-1"
         cx="152.44701"
         cy="222.616"
         r="1.985"
         style="stroke-width:0.501224" />
      <circle
         id="punto_izq"
         class="cls-1"
         cx="93.424004"
         cy="222.616"
         r="1.985"
         style="stroke-width:0.501224" />
      <g
         id="iac"
         style="stroke-width:0.501224">
        <path
           class="cls-5"
           d="m 108.863,217.142 0.1,-0.552 c 0.02,-0.108 -0.052,-0.212 -0.161,-0.232 l -8.878,-1.608 c -0.053,-0.008 -0.106,0.003 -0.149,0.033 -0.044,0.03 -0.074,0.076 -0.083,0.129 l -0.1,0.551 c -0.019,0.104 0.048,0.206 0.152,0.23 1.444,0.333 1.972,0.683 2.161,0.917 0.182,0.228 0.352,0.768 0.12,2.047 l -2.394,13.205 c -0.242,1.338 -0.579,1.765 -0.82,1.886 -0.256,0.131 -0.874,0.252 -2.359,0.09 -0.109,0 -0.2,0.061 -0.218,0.164 l -0.1,0.551 c -0.02,0.108 0.052,0.212 0.161,0.232 l 8.877,1.608 c 0.012,0.002 0.024,0.003 0.036,0.003 0.041,0 0.08,-0.013 0.114,-0.036 0.044,-0.03 0.074,-0.076 0.083,-0.129 l 0.1,-0.551 c 0.019,-0.103 -0.045,-0.203 -0.147,-0.229 -1.446,-0.37 -1.982,-0.7 -2.176,-0.912 -0.183,-0.199 -0.35,-0.718 -0.108,-2.055 l 2.394,-13.204 c 0.231,-1.28 0.578,-1.727 0.828,-1.875 0.26,-0.154 0.877,-0.297 2.346,-0.101 0.108,0.017 0.204,-0.058 0.223,-0.163 z"
           id="path44"
           style="stroke-width:0.501224" />
        <path
           class="cls-5"
           d="m 129.602,236.865 c -0.666,-0.113 -1.138,-0.298 -1.401,-0.547 -0.187,-0.179 -0.528,-0.683 -1.094,-2.073 l -7.014,-17.351 c -0.03,-0.073 -0.1,-0.122 -0.179,-0.125 l -0.605,-0.021 c -0.071,0.002 -0.154,0.043 -0.188,0.115 l -6.853,14.581 c -1.015,2.16 -1.729,3.492 -2.124,3.959 -0.372,0.438 -0.929,0.688 -1.656,0.744 -0.102,0.008 -0.181,0.091 -0.185,0.192 l -0.02,0.56 c -0.002,0.053 0.017,0.104 0.054,0.144 0.036,0.038 0.086,0.062 0.139,0.063 l 6.04,0.206 c 0.049,0 0.104,-0.018 0.144,-0.054 0.039,-0.037 0.062,-0.087 0.063,-0.14 l 0.019,-0.561 c 0.003,-0.104 -0.073,-0.193 -0.177,-0.205 -0.853,-0.099 -1.221,-0.215 -1.379,-0.294 -0.337,-0.171 -0.494,-0.462 -0.479,-0.892 0.007,-0.228 0.092,-0.55 0.252,-0.957 0.163,-0.416 0.647,-1.539 1.482,-3.432 l 7.764,0.264 1.075,2.818 c 0.161,0.409 0.285,0.799 0.368,1.159 0.103,0.444 0.12,0.642 0.117,0.729 -0.019,0.529 -0.222,0.61 -0.288,0.636 -0.168,0.066 -0.595,0.157 -1.668,0.213 -0.104,0.006 -0.186,0.09 -0.189,0.193 l -0.021,0.56 c -0.002,0.053 0.017,0.104 0.053,0.144 0.037,0.038 0.086,0.062 0.14,0.063 l 7.75,0.263 h 0.007 c 0.051,0 0.1,-0.02 0.137,-0.054 0.039,-0.037 0.062,-0.087 0.063,-0.14 l 0.019,-0.56 c 0.003,-0.101 -0.068,-0.188 -0.167,-0.204 z m -8.024,-7.466 -6.398,-0.218 3.464,-7.48 z"
           id="path45"
           style="stroke-width:0.501224" />
        <path
           class="cls-5"
           d="m 149.133,230.93 -0.647,-0.464 c -0.087,-0.062 -0.207,-0.045 -0.274,0.039 -0.754,0.972 -1.477,1.729 -2.148,2.252 -1.163,0.921 -2.522,1.51 -4.04,1.752 -2.089,0.333 -3.961,-0.167 -5.565,-1.483 -1.612,-1.323 -2.64,-3.31 -3.054,-5.905 -0.45,-2.831 -0.147,-5.185 0.898,-6.997 1.04,-1.799 2.599,-2.875 4.633,-3.199 2.016,-0.32 3.761,0.169 5.185,1.455 0.755,0.692 1.441,1.669 2.041,2.902 0.038,0.08 0.122,0.123 0.211,0.11 l 0.691,-0.109 c 0.054,-0.008 0.102,-0.038 0.133,-0.083 0.031,-0.045 0.043,-0.101 0.032,-0.154 l -1.347,-6.647 c -0.021,-0.104 -0.128,-0.172 -0.228,-0.157 l -0.633,0.102 c -0.087,0.014 -0.154,0.084 -0.166,0.172 -0.039,0.296 -0.151,0.52 -0.346,0.684 -0.199,0.171 -0.426,0.277 -0.674,0.317 -0.057,0.005 -0.354,0.007 -1.947,-0.175 -1.205,-0.14 -2.376,-0.121 -3.482,0.056 -3.17,0.505 -5.611,1.984 -7.258,4.398 -1.561,2.296 -2.115,4.949 -1.646,7.887 0.455,2.869 1.745,5.154 3.834,6.793 1.751,1.37 3.828,2.059 6.195,2.059 0.693,0 1.411,-0.06 2.153,-0.178 1.999,-0.318 3.793,-1.166 5.331,-2.521 0.901,-0.799 1.634,-1.688 2.176,-2.643 0.051,-0.089 0.025,-0.201 -0.058,-0.261 z"
           id="path46"
           style="stroke-width:0.501224" />
      </g>
      <g
         id="into_astrofis_can"
         style="stroke-width:0.501224">
        <path
           class="cls-1"
           d="m 92.799,212.323 -8.289,-3.164 c -0.049,-0.019 -0.104,-0.018 -0.153,0.004 -0.049,0.021 -0.086,0.062 -0.105,0.111 l -0.198,0.521 c -0.037,0.098 0.007,0.208 0.103,0.253 1.329,0.619 1.786,1.037 1.935,1.279 0.14,0.227 0.206,0.761 -0.275,2.023 l -4.756,12.46 c -0.459,1.208 -0.878,1.581 -1.148,1.682 -0.28,0.102 -0.903,0.132 -2.285,-0.322 -0.104,-0.033 -0.211,0.02 -0.25,0.119 l -0.197,0.52 c -0.039,0.104 0.013,0.219 0.116,0.258 l 8.288,3.163 c 0.023,0.01 0.047,0.014 0.071,0.014 0.081,0 0.156,-0.049 0.187,-0.129 l 0.199,-0.52 c 0.039,-0.1 -0.008,-0.212 -0.106,-0.255 -1.335,-0.584 -1.78,-1.02 -1.918,-1.281 -0.134,-0.256 -0.197,-0.813 0.264,-2.02 l 4.754,-12.46 c 0.481,-1.262 0.888,-1.618 1.144,-1.694 0.272,-0.08 0.889,-0.088 2.295,0.336 0.099,0.031 0.207,-0.022 0.245,-0.12 l 0.198,-0.52 c 0.039,-0.104 -0.013,-0.219 -0.116,-0.258 z"
           id="path47"
           style="stroke-width:0.501224" />
        <path
           class="cls-1"
           d="m 71.39,224.39 c -0.179,-0.236 -0.322,-0.677 -0.424,-1.311 l -0.09,-0.552 6.798,-11.241 c 0.983,-1.625 1.582,-2.108 1.911,-2.228 0.472,-0.172 1.253,0.002 2.325,0.508 0.092,0.042 0.204,0.011 0.257,-0.078 l 0.286,-0.477 c 0.057,-0.094 0.026,-0.217 -0.068,-0.273 l -6.024,-3.645 c -0.044,-0.028 -0.101,-0.035 -0.151,-0.023 -0.051,0.013 -0.096,0.046 -0.124,0.091 l -0.288,0.477 c -0.053,0.088 -0.031,0.2 0.05,0.263 1.027,0.783 1.315,1.265 1.376,1.531 0.139,0.619 -0.204,1.617 -1.019,2.965 l -5.747,9.503 -2.767,-20.371 c -0.008,-0.06 -0.043,-0.112 -0.095,-0.144 l -0.438,-0.266 c -0.045,-0.028 -0.1,-0.036 -0.151,-0.023 -0.051,0.013 -0.096,0.046 -0.123,0.091 l -8.167,13.505 c -0.975,1.614 -1.593,2.087 -1.938,2.199 -0.5,0.161 -1.253,0.007 -2.239,-0.459 -0.092,-0.044 -0.204,-0.011 -0.256,0.077 l -0.289,0.477 c -0.028,0.045 -0.036,0.1 -0.023,0.151 0.013,0.051 0.045,0.096 0.091,0.123 l 6.026,3.644 c 0.093,0.056 0.216,0.028 0.274,-0.067 l 0.289,-0.476 c 0.054,-0.088 0.031,-0.203 -0.053,-0.265 -1.061,-0.777 -1.364,-1.261 -1.431,-1.527 -0.148,-0.62 0.191,-1.618 1.007,-2.967 l 4.863,-8.041 2.403,17.704 c 0.008,0.06 0.043,0.112 0.095,0.144 l 4.378,2.646 c 0.032,0.02 0.068,0.029 0.104,0.029 0.067,0 0.133,-0.034 0.171,-0.097 l 0.288,-0.476 c 0.056,-0.093 0.029,-0.213 -0.062,-0.271 -0.494,-0.32 -0.838,-0.606 -1.024,-0.851 z"
           id="path48"
           style="stroke-width:0.501224" />
        <path
           class="cls-1"
           d="m 56.116,205.909 c -0.017,-0.693 -0.157,-1.493 -0.417,-2.38 l -0.867,-2.886 c -0.494,-1.634 -0.765,-2.783 -0.805,-3.412 -0.047,-0.961 0.228,-1.768 0.841,-2.467 0.668,-0.761 1.438,-1.146 2.291,-1.146 h 0.015 c 0.868,0.004 1.652,0.309 2.33,0.903 1.273,1.118 1.905,2.58 1.878,4.343 -0.015,1.024 -0.275,2.211 -0.772,3.529 -0.029,0.078 -0.007,0.166 0.055,0.221 l 0.518,0.454 c 0.043,0.038 0.101,0.053 0.159,0.048 0.057,-0.008 0.108,-0.04 0.14,-0.089 l 3.54,-5.386 c 0.055,-0.083 0.04,-0.193 -0.035,-0.26 l -0.494,-0.435 c -0.074,-0.064 -0.184,-0.065 -0.26,-0.004 -0.171,0.143 -0.363,0.251 -0.573,0.323 -0.06,0.02 -0.24,0.082 -0.55,-0.189 -0.042,-0.038 -0.216,-0.258 -0.914,-1.488 -0.535,-0.945 -1.167,-1.74 -1.877,-2.364 -1.406,-1.235 -2.939,-1.862 -4.557,-1.862 h -0.035 c -1.637,0.011 -3.011,0.634 -4.084,1.854 -0.798,0.909 -1.238,1.941 -1.307,3.07 -0.053,1.104 0.21,2.607 0.783,4.47 l 0.907,2.958 c 0.332,1.079 0.493,1.981 0.479,2.685 -0.009,0.668 -0.253,1.28 -0.728,1.819 -0.53,0.604 -1.14,0.893 -1.855,0.841 -0.729,-0.036 -1.391,-0.312 -1.968,-0.821 -0.757,-0.664 -1.292,-1.628 -1.588,-2.864 -0.294,-1.23 0,-2.724 0.875,-4.438 0.042,-0.081 0.022,-0.181 -0.046,-0.241 l -0.539,-0.474 c -0.043,-0.037 -0.104,-0.057 -0.155,-0.048 -0.057,0.006 -0.107,0.036 -0.14,0.082 l -3.717,5.231 c -0.06,0.084 -0.046,0.199 0.031,0.267 l 0.462,0.405 c 0.07,0.062 0.171,0.067 0.246,0.014 0.248,-0.173 0.47,-0.277 0.66,-0.311 0.198,-0.029 0.428,0.124 0.584,0.262 0.032,0.03 0.19,0.22 0.865,1.414 0.506,0.901 1.031,1.595 1.562,2.061 1.182,1.039 2.46,1.564 3.805,1.564 0.112,0 0.225,-0.004 0.338,-0.012 1.466,-0.095 2.732,-0.737 3.763,-1.91 0.785,-0.894 1.175,-2.014 1.16,-3.332 z"
           id="path49"
           style="stroke-width:0.501224" />
        <path
           class="cls-1"
           d="m 44.281,199.462 c 0.006,-0.054 -0.01,-0.108 -0.045,-0.149 l -0.47,-0.562 c -0.061,-0.074 -0.167,-0.093 -0.251,-0.047 -1.38,0.772 -2.435,1.09 -3.136,0.946 -0.701,-0.144 -1.578,-0.842 -2.608,-2.073 l -0.95,-1.14 11.356,-9.479 c 1.177,-0.981 1.742,-1.163 2.015,-1.143 0.27,0.021 0.814,0.272 1.872,1.359 0.072,0.075 0.19,0.08 0.272,0.014 l 0.427,-0.356 c 0.084,-0.07 0.096,-0.196 0.025,-0.281 l -5.6,-6.711 c -0.034,-0.041 -0.083,-0.066 -0.135,-0.071 -0.056,-0.007 -0.106,0.012 -0.146,0.046 l -0.427,0.356 c -0.08,0.067 -0.095,0.185 -0.034,0.271 0.857,1.191 1.051,1.779 1.063,2.062 0.011,0.267 -0.194,0.765 -1.231,1.631 l -11.626,9.702 -0.941,-1.128 c -1.076,-1.289 -1.61,-2.282 -1.587,-2.954 0.022,-0.679 0.526,-1.66 1.5,-2.916 0.058,-0.074 0.056,-0.178 -0.005,-0.25 l -0.46,-0.551 c -0.035,-0.042 -0.084,-0.067 -0.139,-0.071 -0.055,-0.011 -0.107,0.015 -0.147,0.05 l -3.809,3.388 c -0.081,0.071 -0.09,0.194 -0.021,0.277 l 10.863,13.017 c 0.039,0.048 0.096,0.072 0.153,0.072 0.043,0 0.086,-0.014 0.123,-0.042 l 4.023,-3.129 c 0.043,-0.033 0.07,-0.083 0.076,-0.137 z"
           id="path50"
           style="stroke-width:0.501224" />
        <path
           class="cls-1"
           d="m 28.729,182.551 11.352,-7.002 c 1.15,-0.708 1.688,-0.743 1.937,-0.649 0.266,0.102 0.762,0.473 1.618,1.662 0.062,0.086 0.179,0.109 0.267,0.053 l 0.474,-0.291 c 0.045,-0.027 0.078,-0.072 0.09,-0.124 0.013,-0.051 0.004,-0.105 -0.024,-0.151 l -4.658,-7.552 c -0.028,-0.045 -0.073,-0.077 -0.125,-0.089 -0.051,-0.014 -0.106,-0.004 -0.151,0.024 l -0.473,0.292 c -0.089,0.055 -0.121,0.17 -0.072,0.263 0.679,1.301 0.788,1.91 0.76,2.192 -0.028,0.265 -0.302,0.729 -1.451,1.439 l -11.351,7.002 c -1.102,0.679 -1.661,0.72 -1.934,0.635 -0.284,-0.087 -0.794,-0.442 -1.619,-1.645 -0.061,-0.089 -0.18,-0.112 -0.27,-0.057 l -0.473,0.292 c -0.094,0.058 -0.123,0.181 -0.065,0.275 l 4.657,7.551 c 0.038,0.062 0.104,0.096 0.17,0.096 0.036,0 0.072,-0.01 0.105,-0.03 l 0.474,-0.292 c 0.091,-0.056 0.122,-0.173 0.07,-0.267 -0.705,-1.276 -0.794,-1.893 -0.744,-2.186 0.048,-0.283 0.336,-0.764 1.436,-1.442 z"
           id="path51"
           style="stroke-width:0.501224" />
        <path
           class="cls-1"
           d="m 25.722,174.171 c 0.021,-0.051 0.021,-0.107 0,-0.156 l -0.291,-0.671 c -0.038,-0.089 -0.131,-0.134 -0.228,-0.116 -1.542,0.351 -2.645,0.357 -3.275,0.021 -0.633,-0.337 -1.277,-1.254 -1.915,-2.727 l -0.589,-1.361 13.572,-5.881 c 1.408,-0.611 2,-0.622 2.254,-0.528 0.254,0.097 0.705,0.493 1.413,1.834 0.049,0.093 0.162,0.13 0.256,0.09 l 0.511,-0.221 c 0.049,-0.021 0.087,-0.061 0.107,-0.11 0.02,-0.049 0.019,-0.104 -0.002,-0.152 l -3.475,-8.021 c -0.021,-0.049 -0.061,-0.088 -0.11,-0.106 -0.049,-0.021 -0.104,-0.018 -0.153,0.002 l -0.511,0.222 c -0.096,0.042 -0.144,0.151 -0.109,0.25 0.485,1.382 0.505,2.002 0.437,2.278 -0.065,0.259 -0.403,0.68 -1.642,1.216 l -13.895,6.021 -0.584,-1.348 c -0.667,-1.541 -0.898,-2.646 -0.688,-3.283 0.214,-0.646 0.976,-1.444 2.263,-2.372 0.076,-0.055 0.104,-0.155 0.066,-0.241 l -0.285,-0.658 c -0.021,-0.05 -0.062,-0.089 -0.113,-0.108 -0.051,-0.018 -0.106,-0.017 -0.156,0.007 l -4.612,2.172 c -0.098,0.046 -0.142,0.161 -0.099,0.26 l 6.741,15.557 c 0.033,0.075 0.106,0.121 0.184,0.121 0.024,0 0.049,-0.005 0.073,-0.014 l 4.744,-1.864 c 0.05,-0.021 0.091,-0.06 0.111,-0.109 z"
           id="path52"
           style="stroke-width:0.501224" />
        <path
           class="cls-1"
           d="m 15.588,154.517 9.145,-2.041 c 1.836,-0.41 3.268,-1.066 4.254,-1.951 1.852,-1.646 2.426,-4.115 1.707,-7.341 -0.728,-3.261 -2.317,-5.268 -4.724,-5.965 -1.299,-0.374 -2.994,-0.333 -5.035,0.124 l -7.615,1.699 c -1.845,0.412 -2.605,0.31 -2.92,0.15 -0.45,-0.227 -0.859,-0.874 -1.217,-1.924 -0.034,-0.096 -0.131,-0.152 -0.233,-0.131 l -0.544,0.121 c -0.052,0.012 -0.097,0.043 -0.125,0.088 -0.028,0.045 -0.038,0.1 -0.026,0.151 l 1.513,6.772 c 0.012,0.052 0.043,0.097 0.088,0.125 0.045,0.027 0.1,0.036 0.151,0.026 l 0.542,-0.121 c 0.101,-0.022 0.167,-0.117 0.155,-0.22 -0.126,-1.034 -0.043,-1.776 0.247,-2.205 0.198,-0.293 0.835,-0.73 2.743,-1.157 l 7.616,-1.7 c 1.829,-0.407 3.243,-0.487 4.203,-0.241 1.696,0.44 2.817,1.83 3.331,4.13 0.472,2.122 0.053,3.682 -1.281,4.768 -0.737,0.589 -1.87,1.057 -3.366,1.391 l -9.358,2.089 c -1.263,0.281 -1.794,0.152 -2.017,-0.008 -0.23,-0.163 -0.587,-0.635 -0.977,-1.954 -0.03,-0.102 -0.132,-0.161 -0.236,-0.139 l -0.543,0.122 c -0.107,0.024 -0.175,0.131 -0.151,0.239 l 1.854,8.302 c 0.021,0.093 0.104,0.156 0.195,0.156 0.014,0 0.029,-0.002 0.043,-0.005 l 0.543,-0.121 c 0.102,-0.022 0.169,-0.12 0.154,-0.224 -0.191,-1.339 -0.066,-1.909 0.073,-2.152 0.136,-0.235 0.56,-0.575 1.812,-0.854 z"
           id="path53"
           style="stroke-width:0.501224" />
        <path
           class="cls-1"
           d="m 13.342,134.715 c 0.054,0 0.105,-0.021 0.143,-0.061 0.038,-0.038 0.058,-0.091 0.057,-0.145 l -0.02,-0.731 c -0.002,-0.097 -0.073,-0.178 -0.168,-0.192 -1.562,-0.249 -2.588,-0.651 -3.049,-1.197 -0.463,-0.55 -0.72,-1.642 -0.765,-3.245 l -0.041,-1.482 14.784,-0.417 c 1.533,-0.045 2.091,0.165 2.29,0.348 0.2,0.185 0.472,0.721 0.63,2.227 0.011,0.104 0.121,0.19 0.204,0.18 l 0.557,-0.016 c 0.053,-0.002 0.104,-0.024 0.14,-0.062 0.036,-0.039 0.056,-0.09 0.054,-0.144 l -0.247,-8.736 c -0.003,-0.108 -0.092,-0.194 -0.2,-0.194 -10e-4,0 -0.003,0 -0.005,0 l -0.556,0.015 c -0.105,0.002 -0.19,0.086 -0.194,0.191 -0.064,1.468 -0.276,2.049 -0.442,2.278 -0.156,0.216 -0.625,0.481 -1.975,0.52 L 9.401,124.279 9.359,122.81 c -0.047,-1.678 0.149,-2.789 0.582,-3.303 0.438,-0.52 1.441,-0.979 2.981,-1.363 0.091,-0.022 0.154,-0.105 0.151,-0.2 l -0.021,-0.717 c -10e-4,-0.054 -0.025,-0.105 -0.064,-0.142 -0.04,-0.036 -0.092,-0.055 -0.147,-0.052 l -5.089,0.305 c -0.108,0.006 -0.191,0.097 -0.188,0.206 l 0.479,16.947 c 0.003,0.107 0.091,0.193 0.198,0.194 l 5.097,0.031 h 0.001 z"
           id="path54"
           style="stroke-width:0.501224" />
        <path
           class="cls-1"
           d="m 10.372,111.598 c 1.606,2.333 4.043,3.782 7.243,4.308 0.732,0.12 1.443,0.18 2.132,0.18 2.179,0 4.142,-0.599 5.855,-1.79 2.214,-1.547 3.571,-3.759 4.033,-6.575 0.431,-2.629 -0.068,-5.049 -1.485,-7.192 -1.587,-2.39 -4.04,-3.873 -7.289,-4.406 -3.2,-0.526 -5.967,0.064 -8.222,1.754 -2.084,1.556 -3.367,3.719 -3.812,6.429 -0.442,2.698 0.077,5.151 1.544,7.292 v 0 z m -0.08,-7.06 c 0.271,-1.649 1.21,-2.983 2.791,-3.964 1.045,-0.648 2.442,-0.973 4.172,-0.973 0.906,0 1.904,0.089 2.991,0.268 3.125,0.513 5.322,1.5 6.532,2.933 1.201,1.423 1.67,2.995 1.394,4.671 -0.28,1.714 -1.248,3.062 -2.876,4.006 -1.639,0.952 -4.017,1.181 -7.066,0.681 -3.059,-0.502 -5.243,-1.482 -6.492,-2.913 -1.239,-1.42 -1.725,-3.004 -1.446,-4.708 z"
           id="path55"
           style="stroke-width:0.501224" />
        <path
           class="cls-1"
           d="m 15.143,82.832 c 0.093,0.043 0.208,0.01 0.26,-0.081 0.664,-1.157 1.112,-1.513 1.371,-1.607 0.254,-0.093 0.802,-0.085 1.969,0.479 l 12.101,5.853 c 1.196,0.579 1.521,0.996 1.583,1.244 0.065,0.262 0.05,0.835 -0.397,2.082 -0.034,0.096 0.009,0.203 0.102,0.248 l 0.505,0.244 c 0.028,0.014 0.058,0.02 0.087,0.02 0.074,0 0.146,-0.042 0.18,-0.113 l 3.655,-7.558 c 0.987,-2.042 1.568,-3.915 1.728,-5.566 0.096,-0.912 0.047,-1.871 -0.145,-2.85 -0.307,-1.548 -0.955,-2.925 -1.926,-4.09 -0.969,-1.162 -2.157,-2.088 -3.531,-2.752 -3.821,-1.849 -7.281,-1.56 -10.284,0.856 -1.657,1.328 -3.106,3.262 -4.309,5.748 l -3.546,7.333 c -0.023,0.047 -0.026,0.103 -0.009,0.153 0.018,0.05 0.054,0.091 0.102,0.114 l 0.505,0.244 z M 31.098,71.749 c 3.047,1.474 4.727,3.563 4.992,6.21 0.174,1.735 -0.249,3.67 -1.256,5.751 -0.388,0.801 -0.642,1.073 -0.788,1.161 -0.183,0.111 -0.467,0.074 -0.844,-0.107 l -6.62,-3.202 1.165,-2.535 c 0.659,-1.362 1.156,-1.76 1.457,-1.854 0.457,-0.14 1.251,-0.062 2.36,0.231 0.092,0.023 0.189,-0.02 0.231,-0.106 l 0.309,-0.638 c 0.023,-0.047 0.026,-0.103 0.009,-0.153 -0.018,-0.05 -0.054,-0.091 -0.102,-0.114 l -6.283,-3.039 c -0.047,-0.023 -0.102,-0.026 -0.153,-0.009 -0.05,0.018 -0.091,0.054 -0.114,0.102 l -0.309,0.638 c -0.042,0.086 -0.016,0.191 0.062,0.248 0.919,0.676 1.474,1.245 1.648,1.692 0.115,0.295 0.113,0.935 -0.552,2.308 l -1.164,2.535 -5.783,-2.797 c -0.384,-0.186 -0.588,-0.384 -0.608,-0.589 -0.017,-0.167 0.036,-0.516 0.382,-1.232 1.16,-2.399 2.698,-4.062 4.571,-4.942 2.181,-1.023 4.667,-0.874 7.388,0.442 z"
           id="path56"
           style="stroke-width:0.501224" />
        <path
           class="cls-1"
           d="m 42.048,62.552 c 1.044,2.121 1.634,3.5 1.752,4.097 0.111,0.564 -0.034,1.131 -0.444,1.73 -0.058,0.084 -0.043,0.197 0.034,0.264 l 0.421,0.364 c 0.037,0.031 0.083,0.049 0.131,0.049 0.005,0 0.01,0 0.015,0 0.053,-0.004 0.102,-0.029 0.137,-0.069 l 3.883,-4.498 c 0.035,-0.041 0.052,-0.093 0.048,-0.146 -0.003,-0.053 -0.028,-0.102 -0.068,-0.137 l -0.421,-0.363 c -0.078,-0.068 -0.196,-0.063 -0.271,0.009 -0.601,0.589 -0.917,0.801 -1.074,0.873 -0.346,0.152 -0.659,0.092 -0.985,-0.189 -0.173,-0.149 -0.37,-0.416 -0.586,-0.791 -0.221,-0.385 -0.791,-1.457 -1.74,-3.276 l 4.989,-5.777 2.841,0.935 c 0.427,0.136 0.794,0.28 1.124,0.441 0.404,0.197 0.569,0.307 0.637,0.365 0.398,0.343 0.335,0.549 0.315,0.615 -0.053,0.17 -0.247,0.554 -0.865,1.411 -0.061,0.084 -0.047,0.201 0.031,0.269 l 0.422,0.364 c 0.084,0.073 0.21,0.062 0.282,-0.021 L 57.639,53.3 c 0.035,-0.041 0.052,-0.093 0.048,-0.146 -0.004,-0.053 -0.028,-0.102 -0.069,-0.137 l -0.422,-0.363 c -0.076,-0.066 -0.188,-0.066 -0.262,0 -0.501,0.439 -0.934,0.685 -1.288,0.73 -0.249,0.033 -0.85,-0.02 -2.277,-0.455 L 35.621,47.476 c -0.074,-0.022 -0.158,0 -0.21,0.061 l -0.39,0.452 c -0.052,0.061 -0.063,0.146 -0.028,0.219 l 7.055,14.343 z m 4.157,-8.406 -4.11,4.76 -3.646,-7.311 z"
           id="path57"
           style="stroke-width:0.501224" />
        <path
           class="cls-1"
           d="m 53.054,42.028 c 0.683,0.114 1.495,0.128 2.415,0.041 l 3,-0.307 c 1.697,-0.174 2.875,-0.223 3.501,-0.143 0.939,0.132 1.7,0.567 2.263,1.293 0.633,0.814 0.858,1.625 0.688,2.48 -0.169,0.853 -0.616,1.564 -1.327,2.116 -1.339,1.039 -2.896,1.384 -4.622,1.023 -1,-0.208 -2.117,-0.688 -3.319,-1.427 -0.07,-0.044 -0.162,-0.04 -0.227,0.013 l -0.543,0.422 c -0.046,0.035 -0.074,0.089 -0.077,0.146 -0.003,0.057 0.019,0.114 0.06,0.154 l 4.618,4.496 c 0.039,0.038 0.089,0.057 0.14,0.057 0.043,0 0.086,-0.014 0.123,-0.042 l 0.521,-0.403 c 0.078,-0.061 0.1,-0.168 0.053,-0.254 -0.107,-0.195 -0.177,-0.405 -0.208,-0.625 -0.009,-0.062 -0.037,-0.25 0.289,-0.502 0.046,-0.035 0.297,-0.165 1.634,-0.616 1.031,-0.347 1.933,-0.816 2.679,-1.396 1.49,-1.156 2.397,-2.554 2.696,-4.157 0.3,-1.611 -0.052,-3.079 -1.046,-4.361 -0.742,-0.957 -1.672,-1.584 -2.767,-1.866 -1.074,-0.262 -2.6,-0.287 -4.538,-0.077 l -3.077,0.329 c -1.124,0.123 -2.04,0.11 -2.727,-0.039 -0.653,-0.134 -1.208,-0.49 -1.648,-1.058 -0.491,-0.634 -0.646,-1.282 -0.475,-1.982 0.174,-0.707 0.572,-1.305 1.18,-1.776 0.795,-0.617 1.842,-0.958 3.113,-1.016 1.269,-0.052 2.675,0.515 4.192,1.699 0.072,0.057 0.173,0.057 0.246,0 l 0.567,-0.439 c 0.045,-0.035 0.073,-0.087 0.077,-0.143 0.004,-0.057 -0.016,-0.112 -0.055,-0.153 L 56.019,28.874 C 55.948,28.8 55.833,28.793 55.752,28.854 l -0.486,0.377 c -0.073,0.057 -0.098,0.156 -0.06,0.241 0.124,0.274 0.185,0.511 0.18,0.705 -0.002,0.162 -0.126,0.338 -0.368,0.525 -0.044,0.033 -0.284,0.155 -1.551,0.58 -0.983,0.328 -1.764,0.713 -2.32,1.144 -1.348,1.046 -2.125,2.316 -2.308,3.774 -0.186,1.457 0.206,2.821 1.163,4.056 0.727,0.937 1.752,1.533 3.052,1.77 z"
           id="path58"
           style="stroke-width:0.501224" />
        <path
           class="cls-1"
           d="m 61.52,31.519 c 0.025,0.048 0.068,0.084 0.12,0.101 0.055,0.016 0.109,0.01 0.156,-0.017 l 0.64,-0.355 c 0.084,-0.047 0.123,-0.146 0.093,-0.238 -0.498,-1.501 -0.612,-2.597 -0.338,-3.257 0.275,-0.664 1.126,-1.394 2.53,-2.171 l 1.298,-0.718 7.166,12.94 c 0.743,1.341 0.814,1.933 0.743,2.193 -0.072,0.262 -0.423,0.75 -1.688,1.583 -0.087,0.058 -0.116,0.172 -0.065,0.264 l 0.269,0.486 c 0.026,0.046 0.069,0.081 0.12,0.096 0.018,0.005 0.037,0.008 0.055,0.008 0.034,0 0.067,-0.009 0.097,-0.025 l 7.647,-4.234 c 0.047,-0.025 0.081,-0.069 0.096,-0.12 0.015,-0.051 0.008,-0.106 -0.018,-0.152 L 80.17,37.417 c -0.052,-0.093 -0.164,-0.128 -0.259,-0.084 -1.333,0.617 -1.946,0.697 -2.225,0.656 -0.263,-0.04 -0.714,-0.334 -1.37,-1.516 l -7.335,-13.248 1.285,-0.711 c 1.469,-0.813 2.545,-1.154 3.201,-1.002 0.662,0.149 1.53,0.83 2.581,2.022 0.062,0.071 0.165,0.087 0.247,0.042 l 0.627,-0.347 c 0.047,-0.026 0.082,-0.07 0.096,-0.123 0.014,-0.053 0.007,-0.108 -0.021,-0.155 l -2.609,-4.38 c -0.056,-0.093 -0.177,-0.124 -0.269,-0.072 l -14.83,8.213 c -0.095,0.052 -0.13,0.169 -0.082,0.266 l 2.314,4.543 z"
           id="path59"
           style="stroke-width:0.501224" />
        <path
           class="cls-1"
           d="m 101.071,29.378 c -0.553,0.127 -1.038,0.155 -1.437,0.08 -0.401,-0.075 -0.851,-0.268 -1.337,-0.572 L 90.305,23.83 c 1.371,-0.754 2.387,-1.651 3.021,-2.669 0.695,-1.116 0.797,-2.425 0.304,-3.891 -0.736,-2.183 -2.334,-3.336 -4.75,-3.427 -1.258,-0.052 -2.725,0.209 -4.375,0.766 l -7.865,2.648 c -0.104,0.035 -0.161,0.148 -0.126,0.253 l 0.176,0.527 c 0.033,0.098 0.133,0.155 0.238,0.131 1.002,-0.249 1.693,-0.281 2.051,-0.097 0.243,0.125 0.617,0.521 1.015,1.697 l 4.143,12.308 c 0.474,1.403 0.457,1.998 0.358,2.25 -0.096,0.247 -0.472,0.658 -1.72,1.212 -0.094,0.042 -0.142,0.148 -0.108,0.247 l 0.178,0.527 c 0.028,0.083 0.106,0.136 0.189,0.136 0.021,0 0.042,-0.003 0.064,-0.011 l 7.895,-2.658 c 0.05,-0.017 0.092,-0.053 0.115,-0.101 0.023,-0.048 0.027,-0.103 0.01,-0.153 l -0.179,-0.527 c -0.033,-0.098 -0.134,-0.158 -0.237,-0.13 -1.316,0.32 -1.897,0.26 -2.151,0.152 -0.245,-0.103 -0.625,-0.483 -1.039,-1.715 l -1.826,-5.422 0.953,-0.38 9.97,6.307 c 0.05,0.033 0.114,0.041 0.171,0.021 l 4.575,-1.541 c 0.104,-0.035 0.161,-0.148 0.126,-0.253 l -0.176,-0.527 c -0.033,-0.097 -0.133,-0.157 -0.235,-0.131 z M 87.161,15.865 c 1.479,0.138 2.456,0.971 2.986,2.547 0.552,1.638 0.216,2.958 -1.027,4.037 -0.718,0.609 -2.034,1.283 -3.916,2.004 l -2.289,-6.797 c -0.116,-0.343 -0.129,-0.595 -0.035,-0.712 0.052,-0.066 0.286,-0.256 1.327,-0.606 0.969,-0.327 1.822,-0.492 2.544,-0.492 0.142,0 0.278,0.006 0.409,0.019 z"
           id="path60"
           style="stroke-width:0.501224" />
        <path
           class="cls-1"
           d="m 118.412,17.918 c -0.426,-3.214 -1.794,-5.69 -4.066,-7.359 -2.097,-1.542 -4.537,-2.143 -7.259,-1.779 -2.709,0.359 -4.906,1.568 -6.529,3.595 v 0 c -1.766,2.214 -2.444,4.966 -2.018,8.183 0.407,3.059 1.706,5.473 3.861,7.176 1.736,1.365 3.73,2.052 5.946,2.052 0.494,0 1,-0.034 1.516,-0.103 2.643,-0.351 4.813,-1.532 6.451,-3.51 1.827,-2.212 2.533,-4.989 2.099,-8.253 z m -4.672,7.6 c -1.013,1.563 -2.381,2.469 -4.065,2.692 -1.723,0.228 -3.292,-0.306 -4.668,-1.589 -1.388,-1.293 -2.297,-3.502 -2.703,-6.563 -0.409,-3.072 -0.105,-5.447 0.901,-7.059 0.998,-1.598 2.373,-2.523 4.085,-2.75 0.25,-0.033 0.497,-0.05 0.742,-0.05 1.378,0 2.675,0.526 3.863,1.57 1.406,1.235 2.333,3.473 2.755,6.649 0.417,3.14 0.111,5.528 -0.909,7.1 z"
           id="path61"
           style="stroke-width:0.501224" />
        <path
           class="cls-1"
           d="m 132.689,14.505 -0.702,-0.029 c -0.101,0 -0.183,0.061 -0.204,0.155 -0.252,1.103 -0.551,1.832 -0.888,2.167 -0.223,0.221 -0.8,0.471 -2.317,0.41 l -4.145,-0.17 0.267,-6.485 c 0.02,-0.476 0.112,-0.629 0.152,-0.674 0.025,-0.029 0.149,-0.125 0.619,-0.106 l 4.108,0.169 c 1.621,0.067 2.704,0.286 3.221,0.648 0.499,0.35 0.823,1.192 0.964,2.504 0.011,0.099 0.092,0.174 0.191,0.178 l 0.835,0.034 c 0.034,0 0.105,-0.017 0.146,-0.054 0.039,-0.037 0.062,-0.088 0.062,-0.142 l 0.072,-4.29 c 0.002,-0.108 -0.084,-0.199 -0.192,-0.203 L 118.921,7.961 c -0.13,0.012 -0.203,0.082 -0.208,0.191 l -0.023,0.556 c -0.004,0.105 0.073,0.195 0.177,0.207 1.313,0.147 1.812,0.424 2,0.631 0.187,0.206 0.398,0.713 0.345,1.962 l -0.533,12.975 c -0.063,1.534 -0.29,2.066 -0.469,2.242 -0.182,0.177 -0.693,0.408 -2.102,0.501 -0.102,0.007 -0.182,0.089 -0.187,0.191 l -0.023,0.556 c -0.002,0.053 0.017,0.104 0.053,0.144 0.036,0.039 0.086,0.062 0.139,0.064 l 8.383,0.345 c 0,0 0.005,0 0.008,0 0.05,0 0.099,-0.019 0.136,-0.053 0.039,-0.036 0.062,-0.086 0.064,-0.139 l 0.022,-0.556 c 0.004,-0.104 -0.073,-0.195 -0.177,-0.207 -1.342,-0.159 -1.861,-0.427 -2.061,-0.625 -0.193,-0.19 -0.412,-0.686 -0.357,-1.971 l 0.26,-6.354 4.145,0.17 c 1.501,0.062 2.059,0.358 2.262,0.595 0.309,0.357 0.552,1.11 0.723,2.237 0.014,0.095 0.093,0.166 0.188,0.17 l 0.703,0.029 c 0.053,0.005 0.105,-0.017 0.145,-0.053 0.039,-0.036 0.062,-0.086 0.064,-0.139 l 0.283,-6.919 c 0.004,-0.11 -0.082,-0.204 -0.191,-0.208 z"
           id="path62"
           style="stroke-width:0.501224" />
        <path
           class="cls-1"
           d="m 145.9,11.57 c 0.105,0.023 0.203,-0.059 0.222,-0.164 l 0.096,-0.549 c 0.009,-0.052 -0.003,-0.106 -0.033,-0.149 -0.031,-0.043 -0.077,-0.073 -0.13,-0.082 l -8.741,-1.52 c -0.054,-0.01 -0.105,0.002 -0.149,0.034 -0.043,0.031 -0.073,0.077 -0.082,0.129 l -0.095,0.548 c -0.018,0.105 0.05,0.206 0.153,0.229 1.421,0.317 1.941,0.66 2.128,0.892 0.181,0.224 0.35,0.758 0.128,2.032 l -2.285,13.14 c -0.23,1.331 -0.561,1.758 -0.797,1.881 -0.252,0.131 -0.86,0.256 -2.316,0.109 -0.101,-0.005 -0.2,0.062 -0.218,0.165 l -0.096,0.549 c -0.009,0.052 0.003,0.106 0.033,0.149 0.031,0.043 0.077,0.073 0.13,0.082 l 8.74,1.52 c 0.012,0.002 0.023,0.003 0.034,0.003 0.096,0 0.18,-0.069 0.197,-0.166 l 0.096,-0.549 c 0.018,-0.103 -0.047,-0.203 -0.149,-0.229 -1.423,-0.354 -1.951,-0.676 -2.144,-0.885 -0.181,-0.195 -0.348,-0.708 -0.116,-2.039 l 2.285,-13.141 c 0.221,-1.273 0.56,-1.719 0.806,-1.869 0.253,-0.154 0.854,-0.302 2.304,-0.122 z"
           id="path63"
           style="stroke-width:0.501224" />
        <path
           class="cls-1"
           d="m 158.016,29.525 c 0.354,-1.157 0.333,-2.279 -0.067,-3.337 -0.403,-1.028 -1.261,-2.292 -2.548,-3.756 l -2.039,-2.327 c -0.745,-0.847 -1.262,-1.604 -1.537,-2.252 -0.266,-0.611 -0.294,-1.269 -0.083,-1.956 0.235,-0.767 0.677,-1.267 1.347,-1.529 0.681,-0.264 1.397,-0.284 2.133,-0.058 0.961,0.295 1.844,0.956 2.624,1.962 0.772,1.001 1.116,2.483 1.021,4.406 -0.004,0.091 0.054,0.174 0.142,0.201 l 0.687,0.211 c 0.055,0.017 0.113,0.009 0.161,-0.02 0.049,-0.029 0.083,-0.078 0.094,-0.133 l 1.244,-6.295 c 0.02,-0.101 -0.04,-0.2 -0.138,-0.23 l -0.587,-0.18 c -0.089,-0.028 -0.183,0.01 -0.23,0.089 -0.154,0.259 -0.314,0.445 -0.474,0.553 -0.136,0.09 -0.349,0.091 -0.643,10e-4 -0.052,-0.018 -0.288,-0.143 -1.367,-0.937 -0.835,-0.616 -1.599,-1.032 -2.27,-1.237 -1.63,-0.502 -3.116,-0.407 -4.416,0.282 -1.298,0.689 -2.188,1.794 -2.647,3.285 -0.349,1.134 -0.246,2.316 0.308,3.515 0.301,0.625 0.757,1.297 1.356,1.998 l 1.976,2.278 c 1.12,1.29 1.839,2.227 2.134,2.783 0.431,0.844 0.513,1.717 0.243,2.594 -0.298,0.973 -0.848,1.643 -1.633,1.99 -0.806,0.357 -1.622,0.399 -2.495,0.131 -1.619,-0.497 -2.795,-1.57 -3.495,-3.189 -0.405,-0.939 -0.654,-2.129 -0.741,-3.536 -0.005,-0.083 -0.061,-0.155 -0.141,-0.179 l -0.659,-0.202 c -0.057,-0.017 -0.115,-0.009 -0.164,0.021 -0.05,0.031 -0.083,0.081 -0.092,0.138 l -1.021,6.364 c -0.016,0.099 0.043,0.194 0.139,0.223 l 0.63,0.193 c 0.093,0.027 0.193,-0.015 0.238,-0.103 0.1,-0.202 0.23,-0.38 0.392,-0.53 0.045,-0.043 0.183,-0.175 0.576,-0.054 0.055,0.017 0.305,0.148 1.444,0.982 0.878,0.644 1.78,1.111 2.683,1.389 0.81,0.249 1.593,0.373 2.344,0.373 0.92,0 1.792,-0.187 2.608,-0.559 1.491,-0.682 2.488,-1.813 2.966,-3.365 z"
           id="path64"
           style="stroke-width:0.501224" />
        <path
           class="cls-1"
           d="m 166.735,18.777 c 0.118,0.261 0.148,0.82 -0.383,2 l -5.479,12.159 c -0.555,1.231 -0.979,1.562 -1.239,1.623 -0.275,0.066 -0.897,0.036 -2.272,-0.469 -0.101,-0.039 -0.209,0.009 -0.252,0.105 l -0.229,0.508 c -0.045,0.101 0,0.219 0.101,0.264 l 8.089,3.646 c 0.026,0.012 0.054,0.018 0.082,0.018 0.024,0 0.048,-0.004 0.071,-0.013 0.049,-0.019 0.089,-0.057 0.111,-0.105 l 0.229,-0.508 c 0.043,-0.096 0.005,-0.208 -0.088,-0.258 -1.29,-0.696 -1.722,-1.141 -1.856,-1.391 -0.126,-0.235 -0.159,-0.773 0.395,-2.004 l 5.481,-12.159 c 0.53,-1.178 0.97,-1.525 1.245,-1.61 0.285,-0.085 0.904,-0.08 2.263,0.455 0.101,0.039 0.212,-0.007 0.256,-0.104 l 0.229,-0.507 c 0.021,-0.048 0.023,-0.103 0.005,-0.153 -0.02,-0.05 -0.057,-0.09 -0.105,-0.111 l -8.09,-3.646 c -0.1,-0.046 -0.22,0 -0.265,0.1 l -0.229,0.507 c -0.044,0.097 -0.003,0.212 0.092,0.26 1.299,0.661 1.717,1.123 1.84,1.393 z"
           id="path65"
           style="stroke-width:0.501224" />
        <path
           class="cls-1"
           d="m 170.043,29.642 c -1.544,2.439 -2.092,4.985 -1.628,7.568 0.508,2.797 2.163,5.101 4.921,6.846 1.667,1.055 3.526,1.59 5.528,1.59 h 0.055 c 1.189,-0.008 2.312,-0.195 3.339,-0.557 0.096,-0.034 0.151,-0.133 0.129,-0.232 l -0.172,-0.768 c -0.023,-0.106 -0.129,-0.173 -0.233,-0.153 -1.19,0.233 -2.22,0.328 -3.061,0.282 -1.46,-0.07 -2.848,-0.515 -4.124,-1.323 -1.754,-1.109 -2.806,-2.701 -3.126,-4.73 -0.319,-2.04 0.227,-4.192 1.623,-6.398 1.521,-2.406 3.287,-3.967 5.247,-4.638 1.947,-0.667 3.798,-0.453 5.508,0.628 1.694,1.073 2.659,2.574 2.865,4.461 0.104,1.007 -0.031,2.184 -0.4,3.497 -0.024,0.085 0.011,0.176 0.085,0.223 l 0.581,0.368 c 0.046,0.03 0.104,0.039 0.155,0.025 0.053,-0.013 0.099,-0.047 0.125,-0.094 l 3.367,-5.839 c 0.054,-0.093 0.024,-0.212 -0.065,-0.269 l -0.532,-0.337 c -0.077,-0.049 -0.174,-0.041 -0.239,0.019 -0.22,0.193 -0.446,0.288 -0.692,0.288 -0.003,0 -0.006,0 -0.009,0 -0.263,-0.003 -0.493,-0.069 -0.702,-0.202 -0.038,-0.025 -0.245,-0.199 -1.319,-1.398 v 0 c -0.803,-0.894 -1.68,-1.643 -2.604,-2.229 -2.667,-1.688 -5.438,-2.176 -8.233,-1.445 -2.656,0.698 -4.805,2.319 -6.386,4.818 z"
           id="path66"
           style="stroke-width:0.501224" />
        <path
           class="cls-1"
           d="m 182.625,47.51 c -0.567,0.08 -1.127,-0.097 -1.703,-0.541 -0.081,-0.063 -0.195,-0.054 -0.266,0.02 l -0.386,0.399 c -0.077,0.08 -0.075,0.206 0.005,0.283 l 4.271,4.13 c 0.078,0.077 0.206,0.076 0.282,-0.004 l 0.386,-0.398 c 0.072,-0.075 0.075,-0.192 0.007,-0.271 -0.447,-0.513 -0.721,-0.892 -0.81,-1.124 -0.132,-0.347 -0.052,-0.665 0.245,-0.971 0.156,-0.163 0.434,-0.345 0.822,-0.541 0.401,-0.202 1.534,-0.724 3.369,-1.552 l 5.485,5.306 -1.096,2.786 c -0.155,0.411 -0.324,0.78 -0.503,1.096 -0.179,0.32 -0.313,0.527 -0.399,0.616 -0.365,0.376 -0.569,0.302 -0.633,0.279 -0.164,-0.061 -0.533,-0.274 -1.359,-0.942 -0.081,-0.065 -0.197,-0.057 -0.27,0.017 l -0.387,0.399 c -0.037,0.038 -0.058,0.089 -0.057,0.143 0,0.053 0.023,0.104 0.062,0.14 l 5.48,5.301 c 0.038,0.038 0.089,0.057 0.139,0.057 0.052,0 0.104,-0.021 0.144,-0.061 l 0.388,-0.399 c 0.069,-0.072 0.075,-0.184 0.014,-0.263 -0.411,-0.525 -0.633,-0.972 -0.658,-1.326 -0.018,-0.254 0.068,-0.85 0.583,-2.249 l 6.447,-17.411 c 0.027,-0.074 0.009,-0.158 -0.049,-0.213 l -0.429,-0.415 c -0.058,-0.057 -0.144,-0.072 -0.217,-0.041 l -14.721,6.234 c -2.18,0.924 -3.589,1.434 -4.188,1.517 z m 7.828,-1.264 7.505,-3.227 -2.984,7.599 z"
           id="path67"
           style="stroke-width:0.501224" />
        <path
           class="cls-1"
           d="m 199.441,67.4 c -0.046,0.026 -0.08,0.07 -0.095,0.12 -0.014,0.051 -0.008,0.106 0.018,0.152 l 3.994,7.099 c 1.354,2.407 2.921,4.248 4.657,5.47 3.147,2.226 6.618,2.3 10.317,0.218 1.33,-0.748 2.458,-1.746 3.353,-2.966 0.897,-1.223 1.459,-2.637 1.669,-4.201 0.131,-0.989 0.12,-1.949 -0.032,-2.853 -0.261,-1.639 -0.958,-3.472 -2.069,-5.449 l -4.116,-7.317 c -0.039,-0.069 -0.113,-0.106 -0.187,-0.102 -0.029,0.002 -0.059,0.01 -0.086,0.025 l -0.489,0.275 c -0.089,0.05 -0.126,0.159 -0.086,0.253 0.524,1.216 0.575,1.788 0.526,2.053 -0.047,0.251 -0.345,0.688 -1.503,1.339 l -11.715,6.591 c -1.129,0.636 -1.676,0.677 -1.935,0.6 -0.264,-0.078 -0.734,-0.406 -1.468,-1.519 -0.057,-0.087 -0.174,-0.113 -0.265,-0.064 l -0.489,0.275 z m 9.753,10.698 c -1.924,-0.763 -3.563,-2.327 -4.869,-4.649 -0.39,-0.693 -0.464,-1.038 -0.457,-1.206 0.007,-0.206 0.199,-0.417 0.57,-0.626 l 5.598,-3.15 1.319,2.458 c 0.748,1.329 0.79,1.968 0.694,2.269 -0.146,0.457 -0.664,1.059 -1.54,1.791 -0.074,0.062 -0.093,0.168 -0.046,0.251 l 0.348,0.618 c 0.026,0.046 0.07,0.08 0.12,0.095 0.052,0.014 0.107,0.008 0.152,-0.018 l 6.082,-3.422 c 0.046,-0.026 0.08,-0.07 0.095,-0.12 0.014,-0.051 0.008,-0.106 -0.018,-0.152 l -0.348,-0.617 c -0.047,-0.084 -0.147,-0.121 -0.238,-0.092 -1.089,0.362 -1.877,0.488 -2.342,0.377 -0.306,-0.075 -0.827,-0.441 -1.569,-1.76 l -1.32,-2.458 6.409,-3.606 c 0.364,-0.205 0.646,-0.259 0.835,-0.159 0.151,0.078 0.422,0.334 0.858,1.11 1.134,2.015 1.676,3.92 1.61,5.663 -0.101,2.658 -1.648,4.848 -4.598,6.507 -2.635,1.482 -5.106,1.786 -7.347,0.899 z"
           id="path68"
           style="stroke-width:0.501224" />
        <path
           class="cls-1"
           d="m 214.676,92.783 c -1.565,2.373 -1.959,5.182 -1.17,8.35 0.481,1.932 1.47,3.617 2.94,5.007 0.866,0.815 1.807,1.455 2.797,1.902 0.026,0.012 0.055,0.018 0.082,0.018 0.068,0 0.134,-0.035 0.172,-0.097 l 0.405,-0.674 c 0.056,-0.093 0.027,-0.213 -0.064,-0.271 -1.021,-0.654 -1.831,-1.297 -2.407,-1.911 -1.006,-1.058 -1.701,-2.337 -2.067,-3.803 -0.502,-2.016 -0.163,-3.893 1.007,-5.58 1.176,-1.696 3.057,-2.876 5.592,-3.507 2.762,-0.688 5.117,-0.597 6.999,0.271 1.865,0.86 3.059,2.293 3.549,4.258 0.485,1.945 0.145,3.696 -1.01,5.204 -0.62,0.799 -1.53,1.557 -2.704,2.252 -0.076,0.045 -0.114,0.135 -0.093,0.22 l 0.167,0.668 c 0.014,0.053 0.048,0.098 0.095,0.125 0.047,0.027 0.104,0.034 0.156,0.019 l 6.468,-1.897 c 0.103,-0.03 0.163,-0.136 0.138,-0.24 l -0.151,-0.611 c -0.021,-0.086 -0.098,-0.148 -0.186,-0.152 -0.299,-0.013 -0.53,-0.104 -0.708,-0.277 -0.188,-0.183 -0.308,-0.389 -0.367,-0.63 -0.013,-0.054 -0.037,-0.351 0.011,-1.924 0.037,-1.198 -0.078,-2.346 -0.343,-3.41 -0.764,-3.062 -2.431,-5.327 -4.957,-6.732 -2.402,-1.33 -5.078,-1.642 -7.946,-0.927 -2.802,0.699 -4.956,2.162 -6.403,4.349 z"
           id="path69"
           style="stroke-width:0.501224" />
        <path
           class="cls-1"
           d="m 236.985,117.241 c -0.004,-0.08 -0.055,-0.15 -0.13,-0.178 l -14.974,-5.593 c -2.219,-0.829 -3.594,-1.427 -4.086,-1.778 -0.463,-0.331 -0.754,-0.857 -0.865,-1.563 -0.015,-0.101 -0.101,-0.163 -0.206,-0.169 l -0.556,0.024 c -0.053,0.002 -0.103,0.025 -0.139,0.064 -0.036,0.04 -0.055,0.091 -0.053,0.144 l 0.262,5.935 c 0.005,0.11 0.104,0.188 0.209,0.191 l 0.556,-0.023 c 0.104,-0.004 0.187,-0.088 0.191,-0.192 0.026,-0.678 0.088,-1.14 0.183,-1.371 0.146,-0.344 0.422,-0.521 0.846,-0.539 0.23,-0.011 0.555,0.048 0.97,0.173 0.431,0.13 1.612,0.529 3.512,1.188 l 0.336,7.625 -2.709,1.27 c -0.389,0.188 -0.766,0.339 -1.12,0.45 -0.433,0.135 -0.627,0.167 -0.714,0.172 -0.512,0.019 -0.619,-0.17 -0.65,-0.232 -0.111,-0.226 -0.226,-0.77 -0.339,-1.619 -0.014,-0.103 -0.11,-0.168 -0.207,-0.173 l -0.557,0.023 c -0.053,0.002 -0.103,0.025 -0.139,0.064 -0.036,0.039 -0.055,0.091 -0.053,0.144 l 0.335,7.618 c 0.005,0.107 0.094,0.191 0.2,0.191 h 0.009 l 0.556,-0.024 c 0.1,-0.005 0.181,-0.082 0.19,-0.182 0.062,-0.662 0.208,-1.138 0.436,-1.415 0.159,-0.196 0.631,-0.569 1.968,-1.231 l 16.654,-8.21 c 0.071,-0.035 0.114,-0.109 0.111,-0.188 l -0.027,-0.597 z m -4.968,-0.268 -7.392,3.464 -0.277,-6.281 z"
           id="path70"
           style="stroke-width:0.501224" />
        <path
           class="cls-1"
           d="m 236.465,134.326 -0.547,-0.108 c -0.114,-0.022 -0.21,0.047 -0.234,0.151 -0.131,0.571 -0.282,0.992 -0.449,1.252 -0.162,0.25 -0.528,0.535 -1.088,0.846 l -0.489,0.272 -12.885,-2.555 c -1.865,-0.37 -2.522,-0.768 -2.746,-1.036 -0.32,-0.386 -0.427,-1.18 -0.315,-2.358 0.01,-0.102 -0.06,-0.195 -0.16,-0.215 l -0.545,-0.107 c -0.116,-0.025 -0.215,0.049 -0.235,0.157 l -1.37,6.907 c -0.021,0.108 0.049,0.214 0.157,0.235 l 0.545,0.108 c 0.1,0.023 0.199,-0.039 0.229,-0.137 0.387,-1.232 0.742,-1.669 0.971,-1.817 0.535,-0.341 1.588,-0.358 3.135,-0.053 l 10.893,2.16 -18.204,9.55 c -0.054,0.027 -0.092,0.078 -0.104,0.138 l -0.1,0.503 c -0.021,0.108 0.049,0.214 0.157,0.235 l 15.48,3.069 c 1.852,0.367 2.506,0.786 2.729,1.072 0.323,0.417 0.435,1.178 0.333,2.263 -0.01,0.102 0.06,0.194 0.16,0.215 l 0.546,0.108 c 0.013,0.003 0.026,0.004 0.039,0.004 0.039,0 0.078,-0.012 0.111,-0.034 0.044,-0.029 0.074,-0.075 0.085,-0.127 l 1.369,-6.907 c 0.021,-0.108 -0.049,-0.214 -0.157,-0.235 l -0.546,-0.109 c -0.103,-0.024 -0.202,0.041 -0.231,0.141 -0.365,1.26 -0.717,1.71 -0.945,1.864 -0.533,0.349 -1.587,0.373 -3.133,0.066 l -9.218,-1.828 15.819,-8.3 c 0.054,-0.027 0.092,-0.078 0.104,-0.138 l 0.997,-5.018 c 0.01,-0.052 0,-0.106 -0.03,-0.15 -0.03,-0.044 -0.075,-0.074 -0.127,-0.085 z"
           id="path71"
           style="stroke-width:0.501224" />
        <path
           class="cls-1"
           d="m 216.971,155.477 c -1.646,-1.703 -2.63,-2.835 -2.924,-3.362 -0.278,-0.503 -0.313,-1.087 -0.107,-1.784 0.029,-0.098 -0.02,-0.201 -0.113,-0.241 l -0.513,-0.217 c -0.101,-0.043 -0.22,0.004 -0.263,0.106 l -2.316,5.471 c -0.021,0.049 -0.021,0.104 0,0.153 0.021,0.049 0.059,0.088 0.107,0.109 l 0.513,0.217 c 0.096,0.042 0.207,0.002 0.255,-0.092 0.315,-0.6 0.57,-0.99 0.757,-1.159 0.279,-0.249 0.604,-0.287 0.993,-0.121 0.211,0.089 0.48,0.281 0.801,0.573 0.332,0.301 1.227,1.17 2.66,2.583 l -2.975,7.029 -2.993,-0.02 c -0.45,0.002 -0.842,-0.021 -1.205,-0.075 -0.445,-0.063 -0.637,-0.117 -0.718,-0.151 -0.32,-0.136 -0.484,-0.301 -0.487,-0.49 -0.003,-0.176 0.062,-0.597 0.39,-1.606 0.032,-0.099 -0.017,-0.205 -0.112,-0.245 l -0.513,-0.219 c -0.051,-0.02 -0.104,-0.021 -0.153,0 -0.049,0.021 -0.088,0.059 -0.109,0.107 l -2.973,7.021 c -0.021,0.049 -0.021,0.104 0,0.153 0.021,0.049 0.059,0.088 0.107,0.109 l 0.513,0.217 c 0.025,0.011 0.052,0.016 0.078,0.016 0.068,0 0.135,-0.036 0.172,-0.098 0.34,-0.571 0.676,-0.938 1.001,-1.091 0.331,-0.156 1.107,-0.246 2.306,-0.265 l 18.565,-0.252 c 0.079,0 0.15,-0.049 0.182,-0.122 l 0.232,-0.55 c 0.031,-0.074 0.015,-0.159 -0.041,-0.217 l -11.114,-11.488 z m 6.786,9.326 -8.164,-0.05 2.452,-5.791 z"
           id="path72"
           style="stroke-width:0.501224" />
        <path
           class="cls-1"
           d="m 219.867,181.925 c -0.086,-0.062 -0.202,-0.049 -0.27,0.03 -0.842,0.973 -1.345,1.222 -1.62,1.26 -0.26,0.044 -0.803,-0.068 -1.806,-0.802 l -10.479,-7.669 c -1.195,-0.875 -1.524,-1.37 -1.589,-1.633 -0.065,-0.258 0.005,-0.81 0.707,-1.981 0.053,-0.089 0.029,-0.203 -0.054,-0.264 l -0.45,-0.329 c -0.09,-0.066 -0.215,-0.046 -0.279,0.043 l -4.918,6.723 c -0.065,0.089 -0.046,0.214 0.043,0.279 l 0.447,0.329 c 0.083,0.062 0.2,0.049 0.269,-0.029 0.893,-1.021 1.401,-1.307 1.673,-1.365 0.255,-0.058 0.787,0.034 1.838,0.803 l 4.615,3.378 -0.56,0.861 -11.781,0.591 c -0.061,0.004 -0.116,0.033 -0.151,0.082 l -2.852,3.897 c -0.031,0.043 -0.045,0.097 -0.036,0.148 0.008,0.053 0.036,0.1 0.079,0.131 l 0.449,0.328 c 0.083,0.062 0.2,0.05 0.268,-0.028 0.378,-0.423 0.757,-0.724 1.125,-0.893 0.371,-0.169 0.851,-0.271 1.422,-0.303 l 9.446,-0.475 c -0.686,1.406 -0.999,2.724 -0.931,3.923 0.074,1.312 0.745,2.44 1.994,3.354 0.943,0.69 1.916,1.036 2.91,1.036 0.964,0 1.948,-0.325 2.947,-0.974 1.049,-0.682 2.104,-1.74 3.133,-3.146 l 4.902,-6.699 c 0.031,-0.043 0.045,-0.097 0.036,-0.148 -0.008,-0.053 -0.036,-0.1 -0.079,-0.131 l -0.449,-0.328 z m -4.426,4.462 c -0.006,0.084 -0.089,0.374 -0.735,1.26 -0.724,0.988 -1.443,1.69 -2.141,2.089 -1.29,0.739 -2.571,0.621 -3.91,-0.36 -1.395,-1.021 -1.882,-2.294 -1.487,-3.89 0.234,-0.911 0.922,-2.221 2.045,-3.896 l 5.788,4.235 c 0.293,0.215 0.449,0.414 0.44,0.562 z"
           id="path73"
           style="stroke-width:0.501224" />
        <path
           class="cls-1"
           d="m 205.1,200.78 c -0.074,-0.076 -0.196,-0.082 -0.276,-0.01 -1.089,0.965 -1.673,1.186 -1.971,1.201 -0.279,0.023 -0.817,-0.16 -1.72,-1.087 l -9.312,-9.548 c -0.943,-0.967 -1.096,-1.483 -1.057,-1.747 0.04,-0.28 0.293,-0.845 1.268,-1.942 0.069,-0.078 0.067,-0.197 -0.006,-0.272 l -0.388,-0.398 c -0.037,-0.038 -0.088,-0.06 -0.141,-0.061 -0.047,-0.003 -0.104,0.02 -0.143,0.057 l -6.353,6.194 c -0.038,0.037 -0.06,0.088 -0.061,0.142 0,0.053 0.021,0.104 0.058,0.142 l 0.39,0.398 c 0.073,0.076 0.193,0.082 0.271,0.013 1.118,-0.945 1.69,-1.185 1.973,-1.22 0.257,-0.027 0.775,0.132 1.721,1.101 l 9.312,9.549 c 0.902,0.925 1.065,1.461 1.044,1.748 -0.023,0.296 -0.26,0.873 -1.252,1.939 -0.072,0.077 -0.071,0.199 0.003,0.275 l 0.388,0.398 c 0.038,0.039 0.094,0.059 0.144,0.061 0.052,0 0.103,-0.021 0.14,-0.057 l 6.352,-6.194 c 0.079,-0.077 0.081,-0.204 0.004,-0.283 l -0.388,-0.398 z"
           id="path74"
           style="stroke-width:0.501224" />
        <path
           class="cls-1"
           d="m 183.824,196.881 c 0.038,-0.567 0.331,-1.092 0.871,-1.559 0.077,-0.066 0.092,-0.181 0.034,-0.265 l -0.314,-0.459 c -0.063,-0.092 -0.187,-0.114 -0.278,-0.052 l -4.901,3.356 c -0.044,0.03 -0.073,0.076 -0.083,0.128 -0.01,0.053 0,0.106 0.031,0.15 l 0.314,0.459 c 0.06,0.086 0.178,0.111 0.264,0.061 0.732,-0.417 1.092,-0.54 1.263,-0.569 0.367,-0.06 0.659,0.079 0.902,0.435 0.13,0.188 0.253,0.496 0.364,0.915 0.116,0.421 0.385,1.57 0.848,3.61 l -6.298,4.312 -2.51,-1.63 c -0.361,-0.229 -0.688,-0.468 -0.974,-0.713 -0.343,-0.296 -0.473,-0.443 -0.521,-0.516 -0.298,-0.433 -0.184,-0.615 -0.146,-0.677 0.09,-0.146 0.37,-0.464 1.192,-1.143 0.08,-0.065 0.097,-0.182 0.038,-0.268 l -0.313,-0.459 c -0.03,-0.043 -0.076,-0.073 -0.128,-0.083 -0.052,-0.012 -0.104,0.002 -0.15,0.031 l -6.29,4.31 c -0.091,0.062 -0.114,0.187 -0.052,0.277 l 0.312,0.458 c 0.057,0.084 0.166,0.113 0.254,0.066 0.598,-0.298 1.079,-0.422 1.433,-0.378 0.252,0.033 0.817,0.236 2.085,1.021 l 15.769,9.803 c 0.032,0.021 0.069,0.03 0.105,0.03 0.039,0 0.079,-0.012 0.113,-0.035 l 0.493,-0.337 c 0.065,-0.045 0.099,-0.126 0.083,-0.205 l -3.162,-15.668 c -0.468,-2.32 -0.686,-3.804 -0.648,-4.409 z m -0.327,7.924 1.658,7.999 -6.848,-4.446 5.189,-3.553 z"
           id="path75"
           style="stroke-width:0.501224" />
        <path
           class="cls-1"
           d="m 169.16,218.059 c -0.631,-0.28 -1.414,-0.495 -2.33,-0.641 l -2.981,-0.447 c -1.689,-0.253 -2.844,-0.499 -3.43,-0.729 -0.876,-0.362 -1.505,-0.973 -1.869,-1.813 -0.41,-0.949 -0.428,-1.791 -0.051,-2.574 0.376,-0.785 0.986,-1.364 1.812,-1.722 1.556,-0.674 3.147,-0.622 4.729,0.156 0.916,0.449 1.879,1.191 2.861,2.206 0.057,0.059 0.146,0.076 0.223,0.044 l 0.631,-0.272 c 0.054,-0.023 0.094,-0.067 0.111,-0.123 0.018,-0.055 0.011,-0.115 -0.02,-0.165 l -3.356,-5.503 c -0.052,-0.085 -0.16,-0.117 -0.25,-0.079 l -0.605,0.262 c -0.091,0.039 -0.14,0.139 -0.114,0.234 0.056,0.213 0.071,0.428 0.047,0.654 -0.007,0.063 -0.027,0.254 -0.404,0.417 -0.053,0.022 -0.328,0.086 -1.737,0.19 -1.087,0.081 -2.076,0.312 -2.939,0.688 -1.73,0.749 -2.957,1.878 -3.645,3.356 -0.692,1.485 -0.716,2.994 -0.069,4.485 0.48,1.11 1.226,1.949 2.218,2.494 0.971,0.518 2.442,0.922 4.376,1.201 l 3.062,0.444 c 1.117,0.16 2.002,0.4 2.632,0.714 0.607,0.296 1.043,0.766 1.333,1.436 0.319,0.733 0.309,1.4 -0.031,2.036 -0.345,0.642 -0.878,1.123 -1.583,1.429 -0.923,0.401 -2.023,0.471 -3.27,0.212 -1.237,-0.26 -2.461,-1.164 -3.639,-2.688 -0.056,-0.073 -0.153,-0.098 -0.237,-0.062 l -0.659,0.285 c -0.053,0.022 -0.093,0.066 -0.11,0.12 -0.019,0.053 -0.013,0.112 0.015,0.161 l 3.142,5.596 c 0.037,0.065 0.104,0.103 0.175,0.103 0.026,0 0.054,-0.006 0.079,-0.017 l 0.565,-0.244 c 0.085,-0.036 0.134,-0.127 0.118,-0.218 -0.051,-0.295 -0.051,-0.541 0,-0.728 0.044,-0.157 0.209,-0.298 0.487,-0.418 0.051,-0.021 0.314,-0.079 1.648,-0.176 1.033,-0.074 1.884,-0.254 2.529,-0.533 1.566,-0.679 2.635,-1.717 3.174,-3.083 0.542,-1.367 0.501,-2.786 -0.12,-4.218 -0.471,-1.089 -1.316,-1.921 -2.516,-2.472 z"
           id="path76"
           style="stroke-width:0.501224" />
      </g>
    </g>
  </g>
</svg>
